M48
;DRILL file {KiCad (5.0.0-rc2-dev-482-gf81c77cd4)} date Thu May 10 20:02:42 2018
;FORMAT={3:3/ absolute / metric / keep zeros}
FMAT,2
METRIC,TZ
T1C0.400
T2C0.500
T3C0.900
T4C3.200
%
G90
G05
M71
T1
X078730Y-129200
X080800Y-114080
X081930Y-143150
X082390Y-127290
X083820Y-104880
X087310Y-114750
X088580Y-115830
X089790Y-129650
X090540Y-125380
X090660Y-130470
X091840Y-125730
X095070Y-138300
X095340Y-109840
X095350Y-115210
X096110Y-132760
X096201Y-114770
X096240Y-109860
X097300Y-130170
X097470Y-131530
X098130Y-145710
X098570Y-117170
X103690Y-131620
X103730Y-130000
X104530Y-134250
X104540Y-129240
X105470Y-139480
X105550Y-124360
X105560Y-126450
X107250Y-128000
X107410Y-110140
X108520Y-139790
X109120Y-127790
X109550Y-132280
X110480Y-141280
X113750Y-110130
X114430Y-125630
X114990Y-131780
X115740Y-128430
X116130Y-142200
X116160Y-135960
X116650Y-133180
X121620Y-141310
X125420Y-109810
X125940Y-125420
X128470Y-138000
X128490Y-135390
X129820Y-110490
X130600Y-109670
X133370Y-115240
X134590Y-131000
X136230Y-130450
X141760Y-107040
X141960Y-143110
T2
X068110Y-106700
X068800Y-141600
X071600Y-139400
X071600Y-143800
X074400Y-141600
X077650Y-132520
X077710Y-142490
X079470Y-126450
X082590Y-106900
X082600Y-124980
X082670Y-120630
X083920Y-132450
X083960Y-115570
X084130Y-120570
X085330Y-123480
X085530Y-124810
X086020Y-136850
X087290Y-125840
X087370Y-134580
X087890Y-143650
X089300Y-124770
X090110Y-138030
X091170Y-119990
X091510Y-133140
X092030Y-113590
X093740Y-136910
X093940Y-145740
X095800Y-105010
X095800Y-106440
X095800Y-107930
X095960Y-125930
X097200Y-120570
X097870Y-119420
X098430Y-136750
X098540Y-139850
X099490Y-127180
X100760Y-124550
X101830Y-113760
X102000Y-132440
X102270Y-119680
X103560Y-137290
X103570Y-121160
X105100Y-123030
X105810Y-142610
X109820Y-137310
X109840Y-117990
X110120Y-145760
X110180Y-113380
X110220Y-127160
X110810Y-120990
X114740Y-122300
X115110Y-120330
X115680Y-118980
X117480Y-125920
X119050Y-136480
X120050Y-124450
X120160Y-127250
X120750Y-113270
X121520Y-119100
X121900Y-133160
X121950Y-145800
X122670Y-134510
X128240Y-120540
X129680Y-130830
X130460Y-124450
X132760Y-125110
X133940Y-145690
X134240Y-134410
X134320Y-141080
X134840Y-120490
X136400Y-144910
X136510Y-105040
X137250Y-132430
X137950Y-124960
X141100Y-119570
X141420Y-125710
X141550Y-124020
X141860Y-127450
X143760Y-128020
X151790Y-110320
X152950Y-137640
T3
X072500Y-105670
X075500Y-105670
T4
X064000Y-143500
X156000Y-143500
X156000Y-106500
X064000Y-106500
T0
M30
