G04 #@! TF.GenerationSoftware,KiCad,Pcbnew,(5.0.0-rc2-dev-482-gf81c77cd4)*
G04 #@! TF.CreationDate,2018-05-10T20:02:33+02:00*
G04 #@! TF.ProjectId,score_board,73636F72655F626F6172642E6B696361,1*
G04 #@! TF.SameCoordinates,Original*
G04 #@! TF.FileFunction,Paste,Top*
G04 #@! TF.FilePolarity,Positive*
%FSLAX46Y46*%
G04 Gerber Fmt 4.6, Leading zero omitted, Abs format (unit mm)*
G04 Created by KiCad (PCBNEW (5.0.0-rc2-dev-482-gf81c77cd4)) date Thu May 10 20:02:33 2018*
%MOMM*%
%LPD*%
G01*
G04 APERTURE LIST*
%ADD10R,1.620000X1.670000*%
%ADD11R,1.670000X1.620000*%
%ADD12R,0.500000X0.800000*%
%ADD13R,0.300000X0.800000*%
G04 APERTURE END LIST*
D10*
X141430000Y-145000000D03*
X138570000Y-145000000D03*
X78570000Y-145000000D03*
X81430000Y-145000000D03*
X81430000Y-105000000D03*
X78570000Y-105000000D03*
X138570000Y-105000000D03*
X141430000Y-105000000D03*
D11*
X87250000Y-132280000D03*
X87250000Y-129420000D03*
X100250000Y-129420000D03*
X100250000Y-132280000D03*
X106750000Y-132280000D03*
X106750000Y-129420000D03*
X113250000Y-129420000D03*
X113250000Y-132280000D03*
X119750000Y-132280000D03*
X119750000Y-129420000D03*
X126250000Y-129420000D03*
X126250000Y-132280000D03*
X132750000Y-132280000D03*
X132750000Y-129420000D03*
X139250000Y-129420000D03*
X139250000Y-132280000D03*
X80750000Y-132280000D03*
X80750000Y-129420000D03*
X93750000Y-129420000D03*
X93750000Y-132280000D03*
X139250000Y-117720000D03*
X139250000Y-120580000D03*
X126250000Y-120580000D03*
X126250000Y-117720000D03*
X119750000Y-117720000D03*
X119750000Y-120580000D03*
X106750000Y-120580000D03*
X106750000Y-117720000D03*
X100250000Y-117720000D03*
X100250000Y-120580000D03*
X93750000Y-120580000D03*
X93750000Y-117720000D03*
X87250000Y-120580000D03*
X87250000Y-117720000D03*
X132750000Y-120580000D03*
X132750000Y-117720000D03*
X80750000Y-120580000D03*
X80750000Y-117720000D03*
X113250000Y-120580000D03*
X113250000Y-117720000D03*
D12*
X109100000Y-125850000D03*
D13*
X110000000Y-125850000D03*
D12*
X110900000Y-125850000D03*
X110900000Y-124150000D03*
D13*
X110000000Y-124150000D03*
D12*
X109100000Y-124150000D03*
M02*
