G04 #@! TF.GenerationSoftware,KiCad,Pcbnew,(5.0.0-rc2-dev-482-gf81c77cd4)*
G04 #@! TF.CreationDate,2018-05-10T20:02:33+02:00*
G04 #@! TF.ProjectId,score_board,73636F72655F626F6172642E6B696361,1*
G04 #@! TF.SameCoordinates,Original*
G04 #@! TF.FileFunction,Copper,L2,Bot,Signal*
G04 #@! TF.FilePolarity,Positive*
%FSLAX46Y46*%
G04 Gerber Fmt 4.6, Leading zero omitted, Abs format (unit mm)*
G04 Created by KiCad (PCBNEW (5.0.0-rc2-dev-482-gf81c77cd4)) date Thu May 10 20:02:33 2018*
%MOMM*%
%LPD*%
G01*
G04 APERTURE LIST*
%ADD10R,3.500000X1.600000*%
%ADD11R,3.150000X1.000000*%
%ADD12R,1.400000X1.120000*%
%ADD13R,1.120000X1.400000*%
%ADD14R,0.700000X1.500000*%
%ADD15R,1.000000X0.800000*%
%ADD16R,1.550000X1.300000*%
%ADD17R,1.300000X5.500000*%
%ADD18R,1.800000X3.900000*%
%ADD19R,0.500000X0.800000*%
%ADD20R,0.400000X0.800000*%
%ADD21R,0.600000X1.500000*%
%ADD22R,1.295000X1.400000*%
%ADD23R,1.550000X0.600000*%
%ADD24R,3.510000X2.540000*%
%ADD25C,1.000000*%
%ADD26C,0.700000*%
%ADD27C,0.381000*%
%ADD28C,0.254000*%
%ADD29C,0.762000*%
G04 APERTURE END LIST*
D10*
X87300000Y-107000000D03*
X92700000Y-107000000D03*
D11*
X112525000Y-132240000D03*
X107475000Y-132240000D03*
X112525000Y-134780000D03*
X107475000Y-134780000D03*
X112525000Y-137320000D03*
X107475000Y-137320000D03*
D12*
X134500000Y-127620000D03*
X134500000Y-129380000D03*
D13*
X136380000Y-125000000D03*
X134620000Y-125000000D03*
X118880000Y-119000000D03*
X117120000Y-119000000D03*
X102120000Y-123000000D03*
X103880000Y-123000000D03*
X109120000Y-129000000D03*
X110880000Y-129000000D03*
D12*
X121500000Y-120620000D03*
X121500000Y-122380000D03*
X85500000Y-127880000D03*
X85500000Y-126120000D03*
D13*
X85620000Y-130500000D03*
X87380000Y-130500000D03*
D14*
X71750000Y-107430000D03*
X74750000Y-107430000D03*
X76250000Y-107430000D03*
D15*
X70350000Y-104570000D03*
X77650000Y-104570000D03*
X77650000Y-106780000D03*
X70350000Y-106780000D03*
D16*
X124020000Y-145750000D03*
X124020000Y-141250000D03*
X131980000Y-141250000D03*
X131980000Y-145750000D03*
X107980000Y-145750000D03*
X107980000Y-141250000D03*
X100020000Y-141250000D03*
X100020000Y-145750000D03*
X112020000Y-145750000D03*
X112020000Y-141250000D03*
X119980000Y-141250000D03*
X119980000Y-145750000D03*
X95980000Y-145750000D03*
X95980000Y-141250000D03*
X88020000Y-141250000D03*
X88020000Y-145750000D03*
D17*
X143750000Y-124000000D03*
X146250000Y-124000000D03*
D18*
X141450000Y-131300000D03*
X148550000Y-131300000D03*
D19*
X126200000Y-137900000D03*
D20*
X125400000Y-137900000D03*
D19*
X123800000Y-137900000D03*
D20*
X124600000Y-137900000D03*
D19*
X126200000Y-136100000D03*
D20*
X124600000Y-136100000D03*
X125400000Y-136100000D03*
D19*
X123800000Y-136100000D03*
X126200000Y-113900000D03*
D20*
X124600000Y-113900000D03*
X125400000Y-113900000D03*
D19*
X123800000Y-113900000D03*
D20*
X125400000Y-112100000D03*
D19*
X126200000Y-112100000D03*
D20*
X124600000Y-112100000D03*
D19*
X123800000Y-112100000D03*
X129800000Y-112100000D03*
D20*
X130600000Y-112100000D03*
D19*
X132200000Y-112100000D03*
D20*
X131400000Y-112100000D03*
D19*
X129800000Y-113900000D03*
D20*
X131400000Y-113900000D03*
X130600000Y-113900000D03*
D19*
X132200000Y-113900000D03*
X90200000Y-118900000D03*
D20*
X88600000Y-118900000D03*
X89400000Y-118900000D03*
D19*
X87800000Y-118900000D03*
D20*
X89400000Y-117100000D03*
D19*
X90200000Y-117100000D03*
D20*
X88600000Y-117100000D03*
D19*
X87800000Y-117100000D03*
X93800000Y-117100000D03*
D20*
X94600000Y-117100000D03*
D19*
X96200000Y-117100000D03*
D20*
X95400000Y-117100000D03*
D19*
X93800000Y-118900000D03*
D20*
X95400000Y-118900000D03*
X94600000Y-118900000D03*
D19*
X96200000Y-118900000D03*
X129800000Y-136100000D03*
D20*
X131400000Y-136100000D03*
X130600000Y-136100000D03*
D19*
X132200000Y-136100000D03*
D20*
X130600000Y-137900000D03*
D19*
X129800000Y-137900000D03*
D20*
X131400000Y-137900000D03*
D19*
X132200000Y-137900000D03*
D21*
X87555000Y-127700000D03*
X88825000Y-127700000D03*
X90095000Y-127700000D03*
X91365000Y-127700000D03*
X92635000Y-127700000D03*
X93905000Y-127700000D03*
X95175000Y-127700000D03*
X96445000Y-127700000D03*
X96445000Y-122300000D03*
X95175000Y-122300000D03*
X93905000Y-122300000D03*
X92635000Y-122300000D03*
X91365000Y-122300000D03*
X90095000Y-122300000D03*
X88825000Y-122300000D03*
X87555000Y-122300000D03*
X123555000Y-117300000D03*
X124825000Y-117300000D03*
X126095000Y-117300000D03*
X127365000Y-117300000D03*
X128635000Y-117300000D03*
X129905000Y-117300000D03*
X131175000Y-117300000D03*
X132445000Y-117300000D03*
X132445000Y-122700000D03*
X131175000Y-122700000D03*
X129905000Y-122700000D03*
X128635000Y-122700000D03*
X127365000Y-122700000D03*
X126095000Y-122700000D03*
X124825000Y-122700000D03*
X123555000Y-122700000D03*
D22*
X118467500Y-123000000D03*
X116532500Y-123000000D03*
X98497500Y-138320000D03*
X96562500Y-138320000D03*
D13*
X109380000Y-121000000D03*
X107620000Y-121000000D03*
D21*
X132445000Y-132700000D03*
X131175000Y-132700000D03*
X129905000Y-132700000D03*
X128635000Y-132700000D03*
X127365000Y-132700000D03*
X126095000Y-132700000D03*
X124825000Y-132700000D03*
X123555000Y-132700000D03*
X123555000Y-127300000D03*
X124825000Y-127300000D03*
X126095000Y-127300000D03*
X127365000Y-127300000D03*
X128635000Y-127300000D03*
X129905000Y-127300000D03*
X131175000Y-127300000D03*
X132445000Y-127300000D03*
D23*
X112700000Y-123095000D03*
X112700000Y-124365000D03*
X112700000Y-125635000D03*
X112700000Y-126905000D03*
X107300000Y-126905000D03*
X107300000Y-125635000D03*
X107300000Y-124365000D03*
X107300000Y-123095000D03*
D24*
X71500000Y-112320000D03*
X71500000Y-141680000D03*
D25*
X105100000Y-123030000D03*
X132760000Y-125110000D03*
X120050000Y-124450000D03*
X114740000Y-122300000D03*
X95960000Y-125930000D03*
X85330000Y-123480000D03*
X130460000Y-124450000D03*
D26*
X109120000Y-127790000D03*
X109550000Y-132280000D03*
D25*
X74400000Y-141600000D03*
X71600000Y-143800000D03*
X68800000Y-141600000D03*
X71600000Y-139400000D03*
X110220000Y-127160000D03*
X100760000Y-124550000D03*
X103570000Y-121160000D03*
X121900000Y-133160000D03*
X122670000Y-134510000D03*
X137950000Y-124960000D03*
X141100000Y-119570000D03*
X134840000Y-120490000D03*
X128240000Y-120540000D03*
X121520000Y-119100000D03*
X115680000Y-118980000D03*
X115110000Y-120330000D03*
X109840000Y-117990000D03*
X110810000Y-120990000D03*
X102270000Y-119680000D03*
X97200000Y-120570000D03*
X97870000Y-119420000D03*
X91170000Y-119990000D03*
X89300000Y-124770000D03*
X87290000Y-125840000D03*
X85530000Y-124810000D03*
X93740000Y-136910000D03*
X98540000Y-139850000D03*
X98430000Y-136750000D03*
X91510000Y-133140000D03*
X83920000Y-132450000D03*
X77650000Y-132520000D03*
X102000000Y-132440000D03*
X103560000Y-137290000D03*
X143760000Y-128020000D03*
X141550000Y-124020000D03*
X141420000Y-125710000D03*
X141860000Y-127450000D03*
X137250000Y-132430000D03*
X134240000Y-134410000D03*
X129680000Y-130830000D03*
X109820000Y-137310000D03*
X82670000Y-120630000D03*
X84130000Y-120570000D03*
X136400000Y-144910000D03*
X77710000Y-142490000D03*
X136510000Y-105040000D03*
X133940000Y-145690000D03*
X121950000Y-145800000D03*
X110120000Y-145760000D03*
X87890000Y-143650000D03*
X93940000Y-145740000D03*
X117480000Y-125920000D03*
X120160000Y-127250000D03*
X101830000Y-113760000D03*
X120750000Y-113270000D03*
X99490000Y-127180000D03*
X90110000Y-138030000D03*
X87370000Y-134580000D03*
X105810000Y-142610000D03*
X119050000Y-136480000D03*
X134320000Y-141080000D03*
X86020000Y-136850000D03*
X83960000Y-115570000D03*
X82600000Y-124980000D03*
X110180000Y-113380000D03*
X151790000Y-110320000D03*
X152950000Y-137640000D03*
X95800000Y-107930000D03*
X95800000Y-106440000D03*
X95800000Y-105010000D03*
X68110000Y-106700000D03*
X92030000Y-113590000D03*
X79470000Y-126450000D03*
X82590000Y-106900000D03*
D26*
X134590000Y-131000000D03*
X128490000Y-135390000D03*
X128470000Y-138000000D03*
X114990000Y-131780000D03*
X108520000Y-139789998D03*
X105470000Y-139480000D03*
X96110000Y-132760000D03*
X136230000Y-130450000D03*
X98130000Y-145710000D03*
X95070000Y-138300000D03*
X116160000Y-135960000D03*
X115740000Y-128430000D03*
X116130000Y-142200000D03*
X121620000Y-141310000D03*
X110480000Y-141280000D03*
X114430000Y-125630000D03*
X107250000Y-128000000D03*
X104530000Y-134250000D03*
X104540000Y-129240000D03*
X116650000Y-133180000D03*
X125940000Y-125420000D03*
X97470000Y-131530000D03*
X97299998Y-130170000D03*
X105550000Y-124360000D03*
X103690000Y-131620000D03*
X103730000Y-130000000D03*
X105560000Y-126450000D03*
X98570000Y-117170000D03*
X80800000Y-114080000D03*
X87310000Y-114750000D03*
X88580000Y-115830000D03*
X78730000Y-129200000D03*
X125420000Y-109810000D03*
X133370000Y-115240000D03*
X129820000Y-110490000D03*
X130600000Y-109670000D03*
X113750000Y-110130000D03*
X107410000Y-110140000D03*
X82390000Y-127290000D03*
X96240000Y-109860000D03*
X141760000Y-107040000D03*
X96200941Y-114769945D03*
X95340000Y-109840000D03*
X83820000Y-104880000D03*
X95350000Y-115210000D03*
X89790000Y-129650000D03*
X81930000Y-143150000D03*
X90540000Y-125380000D03*
X141960000Y-143110000D03*
X90660000Y-130470000D03*
X91840000Y-125730000D03*
D27*
X93905000Y-120816578D02*
X95400000Y-119321578D01*
X95400000Y-119321578D02*
X95400000Y-118900000D01*
X93905000Y-122300000D02*
X93905000Y-120816578D01*
X94600000Y-119367222D02*
X94600000Y-118900000D01*
X92635000Y-121332222D02*
X94600000Y-119367222D01*
X92635000Y-122300000D02*
X92635000Y-121332222D01*
X129820000Y-132785000D02*
X129905000Y-132700000D01*
X129800000Y-136100000D02*
X129820000Y-136080000D01*
X129820000Y-136080000D02*
X129820000Y-132785000D01*
X131400000Y-135020000D02*
X131400000Y-136100000D01*
X132445000Y-132700000D02*
X132445000Y-133975000D01*
X132445000Y-133975000D02*
X131400000Y-135020000D01*
X130600000Y-134940000D02*
X130600000Y-136100000D01*
X131175000Y-132700000D02*
X131175000Y-134365000D01*
X131175000Y-134365000D02*
X130600000Y-134940000D01*
X132200000Y-135319000D02*
X133370000Y-134149000D01*
X132200000Y-136100000D02*
X132200000Y-135319000D01*
X133370000Y-134149000D02*
X133370000Y-131280000D01*
X131175000Y-129085000D02*
X131175000Y-127300000D01*
X133370000Y-131280000D02*
X131175000Y-129085000D01*
X90095000Y-122300000D02*
X90095000Y-120135000D01*
X90200000Y-120030000D02*
X90200000Y-118900000D01*
X90095000Y-120135000D02*
X90200000Y-120030000D01*
X89400000Y-120350000D02*
X89400000Y-118900000D01*
X88820000Y-120930000D02*
X89400000Y-120350000D01*
X88825000Y-122300000D02*
X88820000Y-122295000D01*
X88820000Y-122295000D02*
X88820000Y-120930000D01*
X128214000Y-115320000D02*
X129190000Y-115320000D01*
X129800000Y-114710000D02*
X129800000Y-113900000D01*
X129190000Y-115320000D02*
X129800000Y-114710000D01*
X127365000Y-117300000D02*
X127365000Y-116169000D01*
X127365000Y-116169000D02*
X128214000Y-115320000D01*
X131400000Y-114681000D02*
X131400000Y-113900000D01*
X131400000Y-114750000D02*
X131400000Y-114681000D01*
X129905000Y-116245000D02*
X131400000Y-114750000D01*
X129905000Y-117300000D02*
X129905000Y-116245000D01*
X130600000Y-114681000D02*
X130600000Y-113900000D01*
X129316000Y-115965000D02*
X130600000Y-114681000D01*
X129045000Y-115965000D02*
X129316000Y-115965000D01*
X128635000Y-117300000D02*
X128635000Y-116375000D01*
X128635000Y-116375000D02*
X129045000Y-115965000D01*
X132200000Y-114681000D02*
X132200000Y-113900000D01*
X132200000Y-115370000D02*
X132200000Y-114681000D01*
X131175000Y-117300000D02*
X131175000Y-116395000D01*
X131175000Y-116395000D02*
X132200000Y-115370000D01*
X126095000Y-117300000D02*
X126095000Y-114935000D01*
X126200000Y-114830000D02*
X126200000Y-113900000D01*
X126095000Y-114935000D02*
X126200000Y-114830000D01*
X124600000Y-114654357D02*
X124600000Y-113900000D01*
X123555000Y-115699357D02*
X124600000Y-114654357D01*
X123555000Y-117300000D02*
X123555000Y-115699357D01*
X124825000Y-117300000D02*
X124825000Y-115235000D01*
X125400000Y-114660000D02*
X125400000Y-113900000D01*
X124825000Y-115235000D02*
X125400000Y-114660000D01*
X123800000Y-113900000D02*
X123800000Y-114700000D01*
X123800000Y-114700000D02*
X122490000Y-116010000D01*
X122490000Y-116010000D02*
X122490000Y-118530000D01*
X124825000Y-120865000D02*
X124825000Y-122700000D01*
X122490000Y-118530000D02*
X124825000Y-120865000D01*
X127966000Y-134500000D02*
X127170000Y-134500000D01*
X128635000Y-132700000D02*
X128635000Y-133831000D01*
X126200000Y-135470000D02*
X126200000Y-136100000D01*
X127170000Y-134500000D02*
X126200000Y-135470000D01*
X128635000Y-133831000D02*
X127966000Y-134500000D01*
X124600000Y-135010000D02*
X124600000Y-136100000D01*
X126095000Y-132700000D02*
X126095000Y-133515000D01*
X126095000Y-133515000D02*
X124600000Y-135010000D01*
X125410000Y-136090000D02*
X125400000Y-136100000D01*
X127365000Y-132700000D02*
X127365000Y-133505000D01*
X125410000Y-135460000D02*
X125410000Y-136090000D01*
X127365000Y-133505000D02*
X125410000Y-135460000D01*
X123800000Y-135319000D02*
X123800000Y-136100000D01*
X123800000Y-135055644D02*
X123800000Y-135319000D01*
X124825000Y-134030644D02*
X123800000Y-135055644D01*
X124825000Y-132700000D02*
X124825000Y-134030644D01*
X105880000Y-122831000D02*
X106144000Y-123095000D01*
X105880000Y-121799000D02*
X105880000Y-122831000D01*
X106144000Y-123095000D02*
X107300000Y-123095000D01*
X106679000Y-121000000D02*
X105880000Y-121799000D01*
X107620000Y-121000000D02*
X106679000Y-121000000D01*
X103880000Y-122860000D02*
X103880000Y-123000000D01*
X107620000Y-119919000D02*
X107411000Y-119710000D01*
X106360000Y-119710000D02*
X105040000Y-121030000D01*
X105040000Y-121030000D02*
X105040000Y-121700000D01*
X105040000Y-121700000D02*
X103880000Y-122860000D01*
X107620000Y-121000000D02*
X107620000Y-119919000D01*
X107411000Y-119710000D02*
X106360000Y-119710000D01*
X132765000Y-127620000D02*
X132445000Y-127300000D01*
X134500000Y-127620000D02*
X132765000Y-127620000D01*
X134500000Y-125120000D02*
X134620000Y-125000000D01*
X134500000Y-127620000D02*
X134500000Y-125120000D01*
X121820000Y-122700000D02*
X121500000Y-122380000D01*
X123555000Y-122700000D02*
X121820000Y-122700000D01*
X118880000Y-120081000D02*
X118880000Y-119000000D01*
X118880000Y-120841000D02*
X118880000Y-120081000D01*
X121500000Y-122380000D02*
X120419000Y-122380000D01*
X120419000Y-122380000D02*
X118880000Y-120841000D01*
X118467500Y-121253500D02*
X118880000Y-120841000D01*
X118467500Y-123000000D02*
X118467500Y-121253500D01*
X87555000Y-128845000D02*
X87555000Y-127700000D01*
X87670000Y-128960000D02*
X87555000Y-128845000D01*
X87380000Y-130500000D02*
X87670000Y-130210000D01*
X87670000Y-130210000D02*
X87670000Y-128960000D01*
X86570000Y-129460000D02*
X86570000Y-128950000D01*
X87380000Y-130500000D02*
X87380000Y-130270000D01*
X86570000Y-128950000D02*
X85500000Y-127880000D01*
X87380000Y-130270000D02*
X86570000Y-129460000D01*
D28*
X124825000Y-128304000D02*
X124605000Y-128524000D01*
X124825000Y-127300000D02*
X124825000Y-128304000D01*
X124605000Y-128524000D02*
X123190000Y-128524000D01*
X121500000Y-126834000D02*
X121500000Y-122380000D01*
X123190000Y-128524000D02*
X121500000Y-126834000D01*
D27*
X103910000Y-123030000D02*
X103880000Y-123000000D01*
X105100000Y-123030000D02*
X103910000Y-123030000D01*
X108495000Y-123095000D02*
X107300000Y-123095000D01*
X109120000Y-123720000D02*
X108495000Y-123095000D01*
D29*
X146250000Y-120488000D02*
X145542000Y-119780000D01*
X146250000Y-124000000D02*
X146250000Y-120488000D01*
X145542000Y-119780000D02*
X142550000Y-119780000D01*
X142550000Y-119780000D02*
X139770000Y-122560000D01*
X139770000Y-122560000D02*
X135360000Y-122560000D01*
X134620000Y-123300000D02*
X134620000Y-125000000D01*
X135360000Y-122560000D02*
X134620000Y-123300000D01*
X134620000Y-123300000D02*
X134570000Y-123300000D01*
X134570000Y-123300000D02*
X132760000Y-125110000D01*
X119917500Y-124450000D02*
X118467500Y-123000000D01*
X120050000Y-124450000D02*
X119917500Y-124450000D01*
X118467500Y-122627378D02*
X117290122Y-121450000D01*
X118467500Y-123000000D02*
X118467500Y-122627378D01*
X117290122Y-121450000D02*
X115590000Y-121450000D01*
X115590000Y-121450000D02*
X114740000Y-122300000D01*
X103880000Y-123000000D02*
X103880000Y-124462000D01*
X103880000Y-124462000D02*
X102432000Y-125910000D01*
X102432000Y-125910000D02*
X95980000Y-125910000D01*
X95980000Y-125910000D02*
X95960000Y-125930000D01*
X84140000Y-123962894D02*
X84140000Y-129100000D01*
X84622894Y-123480000D02*
X84140000Y-123962894D01*
X85330000Y-123480000D02*
X84622894Y-123480000D01*
X84240000Y-127880000D02*
X85500000Y-127880000D01*
X84140000Y-129100000D02*
X84140000Y-127980000D01*
X84140000Y-127980000D02*
X84240000Y-127880000D01*
D28*
X131175000Y-123735000D02*
X130460000Y-124450000D01*
X131175000Y-122700000D02*
X131175000Y-123735000D01*
X95175000Y-126715000D02*
X95960000Y-125930000D01*
X95175000Y-127700000D02*
X95175000Y-126715000D01*
D27*
X109120000Y-127790000D02*
X109120000Y-127590000D01*
X109120000Y-127590000D02*
X109120000Y-123720000D01*
X109120000Y-129000000D02*
X109120000Y-127790000D01*
X109510000Y-132240000D02*
X109550000Y-132280000D01*
X107475000Y-132240000D02*
X109510000Y-132240000D01*
D29*
X82220000Y-131020000D02*
X84140000Y-129100000D01*
X75390000Y-127960000D02*
X78450000Y-131020000D01*
X75380000Y-112190000D02*
X75390000Y-112200000D01*
X78450000Y-131020000D02*
X82220000Y-131020000D01*
X75390000Y-112200000D02*
X75390000Y-127960000D01*
X82928000Y-108860000D02*
X75250000Y-108860000D01*
X87300000Y-107000000D02*
X84788000Y-107000000D01*
X74750000Y-108360000D02*
X74750000Y-107430000D01*
X75250000Y-108860000D02*
X74750000Y-108360000D01*
X84788000Y-107000000D02*
X82928000Y-108860000D01*
X86022000Y-109840000D02*
X87300000Y-108562000D01*
X75390000Y-112200000D02*
X77750000Y-109840000D01*
X87300000Y-108562000D02*
X87300000Y-107000000D01*
X77750000Y-109840000D02*
X86022000Y-109840000D01*
D27*
X110880000Y-127820000D02*
X110880000Y-129000000D01*
X110220000Y-127160000D02*
X110880000Y-127820000D01*
X135390000Y-135350000D02*
X135390000Y-131810000D01*
X135390000Y-131810000D02*
X134790000Y-131210000D01*
X133770000Y-136970000D02*
X135390000Y-135350000D01*
X131549000Y-136970000D02*
X133770000Y-136970000D01*
X131400000Y-137900000D02*
X131400000Y-137119000D01*
X131400000Y-137119000D02*
X131549000Y-136970000D01*
X134790000Y-131210000D02*
X134790000Y-131200000D01*
X134790000Y-131200000D02*
X134590000Y-131000000D01*
X128490000Y-135884974D02*
X128490000Y-135390000D01*
X128490000Y-136120000D02*
X128490000Y-135884974D01*
X129370000Y-137000000D02*
X128490000Y-136120000D01*
X130481000Y-137000000D02*
X129370000Y-137000000D01*
X130600000Y-137900000D02*
X130600000Y-137119000D01*
X130600000Y-137119000D02*
X130481000Y-137000000D01*
X128850000Y-138890000D02*
X128470000Y-138510000D01*
X128470000Y-138510000D02*
X128470000Y-138000000D01*
X129610000Y-138890000D02*
X128850000Y-138890000D01*
X129800000Y-137900000D02*
X129800000Y-138700000D01*
X129800000Y-138700000D02*
X129610000Y-138890000D01*
X116714974Y-131780000D02*
X115484974Y-131780000D01*
X115484974Y-131780000D02*
X114990000Y-131780000D01*
X121914974Y-136980000D02*
X116714974Y-131780000D01*
X126061000Y-136980000D02*
X121914974Y-136980000D01*
X126200000Y-137119000D02*
X126061000Y-136980000D01*
X126200000Y-137900000D02*
X126200000Y-137119000D01*
X124291002Y-139789998D02*
X109014974Y-139789998D01*
X109014974Y-139789998D02*
X108520000Y-139789998D01*
X125400000Y-138681000D02*
X124291002Y-139789998D01*
X125400000Y-137900000D02*
X125400000Y-138681000D01*
X124600000Y-138681000D02*
X124184411Y-139096589D01*
X105853411Y-139096589D02*
X105819999Y-139130001D01*
X124600000Y-137900000D02*
X124600000Y-138681000D01*
X105819999Y-139130001D02*
X105470000Y-139480000D01*
X124184411Y-139096589D02*
X105853411Y-139096589D01*
X122505822Y-138563178D02*
X102933178Y-138563178D01*
X123800000Y-137900000D02*
X123169000Y-137900000D01*
X123169000Y-137900000D02*
X122505822Y-138563178D01*
X102933178Y-138563178D02*
X101913178Y-138563178D01*
X101913178Y-138563178D02*
X96110000Y-132760000D01*
D28*
X126095000Y-123704000D02*
X126095000Y-122700000D01*
X126095000Y-123756000D02*
X126095000Y-123704000D01*
X123555000Y-127300000D02*
X123555000Y-126296000D01*
X123555000Y-126296000D02*
X126095000Y-123756000D01*
D27*
X136240000Y-130460000D02*
X136230000Y-130450000D01*
X136240000Y-135810000D02*
X136240000Y-130460000D01*
X133210000Y-138840000D02*
X136240000Y-135810000D01*
X132359000Y-138840000D02*
X133210000Y-138840000D01*
X132200000Y-137900000D02*
X132200000Y-138681000D01*
X132200000Y-138681000D02*
X132359000Y-138840000D01*
X106824000Y-145750000D02*
X100020000Y-145750000D01*
X107980000Y-145750000D02*
X106824000Y-145750000D01*
D28*
X100020000Y-145750000D02*
X98170000Y-145750000D01*
X98170000Y-145750000D02*
X98130000Y-145710000D01*
X96542500Y-138300000D02*
X96562500Y-138320000D01*
X95070000Y-138300000D02*
X96542500Y-138300000D01*
X116437500Y-123095000D02*
X116532500Y-123000000D01*
X112700000Y-123095000D02*
X116437500Y-123095000D01*
D27*
X107980000Y-141250000D02*
X100020000Y-141250000D01*
X130824000Y-141250000D02*
X124020000Y-141250000D01*
X131980000Y-141250000D02*
X130824000Y-141250000D01*
X124020000Y-142281000D02*
X122961000Y-143340000D01*
X124020000Y-141250000D02*
X124020000Y-142281000D01*
X107980000Y-142560000D02*
X107980000Y-141250000D01*
X108760000Y-143340000D02*
X107980000Y-142560000D01*
D28*
X112525000Y-137320000D02*
X114920000Y-137320000D01*
X114920000Y-137320000D02*
X116160000Y-136080000D01*
X116160000Y-136080000D02*
X116160000Y-135960000D01*
X116532500Y-127637500D02*
X116532500Y-123000000D01*
X115740000Y-128430000D02*
X116532500Y-127637500D01*
X116130000Y-143320000D02*
X116150000Y-143340000D01*
X116130000Y-142200000D02*
X116130000Y-143320000D01*
D27*
X122961000Y-143340000D02*
X116150000Y-143340000D01*
X116150000Y-143340000D02*
X108760000Y-143340000D01*
X95980000Y-141250000D02*
X88020000Y-141250000D01*
D28*
X112225000Y-124365000D02*
X112700000Y-124365000D01*
X111420000Y-123560000D02*
X112225000Y-124365000D01*
X111420000Y-122450000D02*
X111420000Y-123560000D01*
X111670000Y-119880000D02*
X111670000Y-122200000D01*
X80950000Y-143770000D02*
X80950000Y-139620000D01*
X111670000Y-122200000D02*
X111420000Y-122450000D01*
X110820000Y-119030000D02*
X111670000Y-119880000D01*
X81360000Y-144180000D02*
X80950000Y-143770000D01*
X82890000Y-144180000D02*
X81360000Y-144180000D01*
X80950000Y-139620000D02*
X88670000Y-131900000D01*
X88020000Y-141250000D02*
X85820000Y-141250000D01*
X85820000Y-141250000D02*
X82890000Y-144180000D01*
X89460000Y-126782078D02*
X89832078Y-126410000D01*
X88670000Y-131900000D02*
X88670000Y-129670000D01*
X89460000Y-128880000D02*
X89460000Y-126782078D01*
X104327078Y-119030000D02*
X110820000Y-119030000D01*
X88670000Y-129670000D02*
X89460000Y-128880000D01*
X89832078Y-126410000D02*
X94236038Y-126410000D01*
X95646038Y-125000000D02*
X98357078Y-125000000D01*
X94236038Y-126410000D02*
X95646038Y-125000000D01*
X98357078Y-125000000D02*
X104327078Y-119030000D01*
D27*
X113176000Y-141250000D02*
X119980000Y-141250000D01*
X112020000Y-141250000D02*
X113176000Y-141250000D01*
D28*
X119980000Y-141250000D02*
X121560000Y-141250000D01*
X121560000Y-141250000D02*
X121620000Y-141310000D01*
X112020000Y-141250000D02*
X110510000Y-141250000D01*
X110510000Y-141250000D02*
X110480000Y-141280000D01*
X112705000Y-125630000D02*
X112700000Y-125635000D01*
X114430000Y-125630000D02*
X112705000Y-125630000D01*
X107300000Y-127950000D02*
X107250000Y-128000000D01*
X107300000Y-126905000D02*
X107300000Y-127950000D01*
X107300000Y-126905000D02*
X106825000Y-126905000D01*
X107475000Y-134780000D02*
X105060000Y-134780000D01*
X105060000Y-134780000D02*
X104530000Y-134250000D01*
X105780000Y-128000000D02*
X107250000Y-128000000D01*
X104540000Y-129240000D02*
X105780000Y-128000000D01*
X129905000Y-128304000D02*
X128229599Y-129979401D01*
X128229599Y-129979401D02*
X113255349Y-129979401D01*
X112548340Y-130686411D02*
X108396411Y-130686411D01*
X108396411Y-130686411D02*
X107250000Y-129540000D01*
X107250000Y-129540000D02*
X107250000Y-128494974D01*
X129905000Y-127300000D02*
X129905000Y-128304000D01*
X113255349Y-129979401D02*
X112548340Y-130686411D01*
X107250000Y-128494974D02*
X107250000Y-128000000D01*
X92635000Y-129465000D02*
X92635000Y-127700000D01*
X92710000Y-129540000D02*
X92635000Y-129465000D01*
X92710000Y-129540000D02*
X91694000Y-129540000D01*
X91365000Y-129211000D02*
X91365000Y-127700000D01*
X91694000Y-129540000D02*
X91365000Y-129211000D01*
X128016000Y-124460000D02*
X127365000Y-123809000D01*
X128635000Y-127300000D02*
X128635000Y-126296000D01*
X127365000Y-123809000D02*
X127365000Y-122700000D01*
X128635000Y-126296000D02*
X128016000Y-125677000D01*
X127365000Y-127300000D02*
X127365000Y-126296000D01*
X127984000Y-125677000D02*
X128016000Y-125677000D01*
X127365000Y-126296000D02*
X127984000Y-125677000D01*
X128635000Y-123841000D02*
X128635000Y-122700000D01*
X128016000Y-124460000D02*
X128635000Y-123841000D01*
X127946000Y-125420000D02*
X128016000Y-125350000D01*
X125940000Y-125420000D02*
X127946000Y-125420000D01*
X128016000Y-125677000D02*
X128016000Y-125350000D01*
X128016000Y-125350000D02*
X128016000Y-124460000D01*
X97610000Y-129540000D02*
X92710000Y-129540000D01*
X100520000Y-134580000D02*
X97470000Y-131530000D01*
X102030000Y-136090000D02*
X100520000Y-134580000D01*
X116650000Y-133180000D02*
X116650000Y-134360000D01*
X114920000Y-136090000D02*
X102030000Y-136090000D01*
X116650000Y-134360000D02*
X114920000Y-136090000D01*
X116650000Y-133180000D02*
X113465000Y-133180000D01*
X113465000Y-133180000D02*
X112525000Y-132240000D01*
X100310713Y-129540000D02*
X97610000Y-129540000D01*
X104215713Y-125635000D02*
X100310713Y-129540000D01*
X107300000Y-125635000D02*
X104215713Y-125635000D01*
X97649997Y-129579997D02*
X97649997Y-129820001D01*
X97610000Y-129540000D02*
X97649997Y-129579997D01*
X97649997Y-129820001D02*
X97299998Y-130170000D01*
X105555000Y-124365000D02*
X105550000Y-124360000D01*
X107300000Y-124365000D02*
X105555000Y-124365000D01*
X126095000Y-128495000D02*
X126095000Y-127300000D01*
X129260000Y-124349000D02*
X129260000Y-128230000D01*
X129260000Y-128230000D02*
X128970000Y-128520000D01*
X129905000Y-122700000D02*
X129905000Y-123704000D01*
X128970000Y-128520000D02*
X126120000Y-128520000D01*
X129905000Y-123704000D02*
X129260000Y-124349000D01*
X126120000Y-128520000D02*
X126095000Y-128495000D01*
X111959000Y-133460000D02*
X112525000Y-134026000D01*
X105080000Y-133460000D02*
X111959000Y-133460000D01*
X103690000Y-132070000D02*
X105080000Y-133460000D01*
X112525000Y-134026000D02*
X112525000Y-134780000D01*
X103690000Y-131620000D02*
X103690000Y-132070000D01*
X105210001Y-126799999D02*
X105560000Y-126450000D01*
X103730000Y-128280000D02*
X105210001Y-126799999D01*
X103730000Y-130000000D02*
X103730000Y-128280000D01*
X105055026Y-124360000D02*
X105550000Y-124360000D01*
X93905000Y-127417077D02*
X93920000Y-127432077D01*
X93905000Y-127700000D02*
X93905000Y-127417077D01*
X93920000Y-127432077D02*
X93920000Y-128590000D01*
X93920000Y-128590000D02*
X94210000Y-128880000D01*
X94210000Y-128880000D02*
X100395962Y-128880000D01*
X104915962Y-124360000D02*
X105055026Y-124360000D01*
X100395962Y-128880000D02*
X104915962Y-124360000D01*
X107775000Y-124365000D02*
X107300000Y-124365000D01*
X108390000Y-124980000D02*
X107775000Y-124365000D01*
X108010000Y-128290000D02*
X108390000Y-127910000D01*
X126120000Y-128520000D02*
X126090000Y-128520000D01*
X108010000Y-129645250D02*
X108010000Y-128290000D01*
X125460000Y-129150000D02*
X113510000Y-129150000D01*
X108390000Y-127910000D02*
X108390000Y-124980000D01*
X126090000Y-128520000D02*
X125460000Y-129150000D01*
X113510000Y-129150000D02*
X112380000Y-130280000D01*
X112380000Y-130280000D02*
X108644751Y-130280000D01*
X108644751Y-130280000D02*
X108010000Y-129645250D01*
X132445000Y-123704000D02*
X132445000Y-122700000D01*
X132445000Y-123865000D02*
X132445000Y-123704000D01*
X130550000Y-125760000D02*
X132445000Y-123865000D01*
X130550000Y-128500000D02*
X130550000Y-125760000D01*
X128200000Y-130850000D02*
X130550000Y-128500000D01*
X114908486Y-130850000D02*
X128200000Y-130850000D01*
X114665664Y-131092822D02*
X114908486Y-130850000D01*
X108228071Y-131092822D02*
X114665664Y-131092822D01*
X97451514Y-130850000D02*
X107985250Y-130850000D01*
X90095000Y-128704000D02*
X92241000Y-130850000D01*
X90095000Y-127700000D02*
X90095000Y-128704000D01*
X96828486Y-130850000D02*
X96837887Y-130859401D01*
X107985250Y-130850000D02*
X108228071Y-131092822D01*
X96837887Y-130859401D02*
X97442113Y-130859401D01*
X92241000Y-130850000D02*
X96828486Y-130850000D01*
X97442113Y-130859401D02*
X97451514Y-130850000D01*
D27*
X88232778Y-117950000D02*
X97760000Y-117950000D01*
X87800000Y-117100000D02*
X87800000Y-117517222D01*
X97760000Y-117950000D02*
X97790000Y-117920000D01*
X87800000Y-117517222D02*
X88232778Y-117950000D01*
X97760000Y-117950000D02*
X97790000Y-117950000D01*
X97790000Y-117950000D02*
X98570000Y-117170000D01*
X90200000Y-117100000D02*
X90200000Y-114880000D01*
X90200000Y-114880000D02*
X89360000Y-114040000D01*
X89360000Y-114040000D02*
X80840000Y-114040000D01*
X80840000Y-114040000D02*
X80800000Y-114080000D01*
X89400000Y-117100000D02*
X89400000Y-115080000D01*
X89400000Y-115080000D02*
X89060000Y-114740000D01*
X89060000Y-114740000D02*
X87320000Y-114740000D01*
X87320000Y-114740000D02*
X87310000Y-114750000D01*
X88600000Y-117100000D02*
X88600000Y-115850000D01*
X88600000Y-115850000D02*
X88580000Y-115830000D01*
X78380001Y-128850001D02*
X78730000Y-129200000D01*
X124600000Y-111319000D02*
X124191000Y-110910000D01*
X77310000Y-127780000D02*
X78380001Y-128850001D01*
X124600000Y-112100000D02*
X124600000Y-111319000D01*
X124191000Y-110910000D02*
X80290000Y-110910000D01*
X77310000Y-113890000D02*
X77310000Y-127780000D01*
X80290000Y-110910000D02*
X77310000Y-113890000D01*
X125400000Y-112100000D02*
X125400000Y-111319000D01*
X125400000Y-111319000D02*
X125400000Y-109830000D01*
X125400000Y-109830000D02*
X125420000Y-109810000D01*
X126831000Y-112100000D02*
X127691000Y-112960000D01*
X126200000Y-112100000D02*
X126831000Y-112100000D01*
X133370000Y-113320000D02*
X133010000Y-112960000D01*
X133370000Y-115240000D02*
X133370000Y-113320000D01*
X127691000Y-112960000D02*
X133010000Y-112960000D01*
X129800000Y-112100000D02*
X129800000Y-110510000D01*
X129800000Y-110510000D02*
X129820000Y-110490000D01*
X130600000Y-112100000D02*
X130600000Y-109670000D01*
X131400000Y-112100000D02*
X131400000Y-109110000D01*
X131400000Y-109110000D02*
X131190000Y-108900000D01*
X131190000Y-108900000D02*
X114980000Y-108900000D01*
X114980000Y-108900000D02*
X113750000Y-110130000D01*
X132200000Y-112100000D02*
X132200000Y-108980000D01*
X107759999Y-109790001D02*
X107410000Y-110140000D01*
X109410000Y-108140000D02*
X107759999Y-109790001D01*
X131360000Y-108140000D02*
X109410000Y-108140000D01*
X132200000Y-108980000D02*
X131360000Y-108140000D01*
X81168120Y-112100000D02*
X78480000Y-114788120D01*
X78480000Y-114788120D02*
X78480000Y-123380000D01*
X123800000Y-112100000D02*
X81168120Y-112100000D01*
X82040001Y-126940001D02*
X82390000Y-127290000D01*
X78480000Y-123380000D02*
X82040001Y-126940001D01*
X91924000Y-120610000D02*
X91365000Y-121169000D01*
X92570000Y-120610000D02*
X91924000Y-120610000D01*
X93800000Y-118900000D02*
X93800000Y-119380000D01*
X91365000Y-121169000D02*
X91365000Y-122300000D01*
X93800000Y-119380000D02*
X92570000Y-120610000D01*
X96200000Y-119681000D02*
X96200000Y-118900000D01*
X96200000Y-119690000D02*
X96200000Y-119681000D01*
X95175000Y-122300000D02*
X95175000Y-120715000D01*
X95175000Y-120715000D02*
X96200000Y-119690000D01*
X96589999Y-109510001D02*
X106129999Y-109510001D01*
X96240000Y-109860000D02*
X96589999Y-109510001D01*
X106129999Y-109510001D02*
X108600000Y-107040000D01*
X108600000Y-107040000D02*
X141760000Y-107040000D01*
X96200000Y-114770886D02*
X96200941Y-114769945D01*
X96200000Y-117100000D02*
X96200000Y-114770886D01*
X95400000Y-117100000D02*
X95400000Y-115260000D01*
X95400000Y-115260000D02*
X95350000Y-115210000D01*
X88880000Y-104880000D02*
X86380000Y-104880000D01*
X90000000Y-108500000D02*
X90000000Y-106000000D01*
X90000000Y-106000000D02*
X88880000Y-104880000D01*
X95340000Y-109840000D02*
X91340000Y-109840000D01*
X86380000Y-104880000D02*
X83820000Y-104880000D01*
X91340000Y-109840000D02*
X90000000Y-108500000D01*
X94600000Y-116319000D02*
X94610000Y-116309000D01*
X94600000Y-117100000D02*
X94600000Y-116319000D01*
X89790000Y-129650000D02*
X89350000Y-130090000D01*
X89350000Y-130090000D02*
X89350000Y-135730000D01*
X89350000Y-135730000D02*
X81930000Y-143150000D01*
X94600000Y-116319000D02*
X94600000Y-114934506D01*
X97480000Y-114020000D02*
X99560000Y-116100000D01*
X92083322Y-123836678D02*
X90889999Y-125030001D01*
X99560000Y-120772267D02*
X96495589Y-123836678D01*
X90889999Y-125030001D02*
X90540000Y-125380000D01*
X99560000Y-116100000D02*
X99560000Y-120772267D01*
X96495589Y-123836678D02*
X92083322Y-123836678D01*
X95514506Y-114020000D02*
X97480000Y-114020000D01*
X94600000Y-114934506D02*
X95514506Y-114020000D01*
X90660000Y-135180000D02*
X90660000Y-130470000D01*
X96930000Y-139850000D02*
X95330000Y-139850000D01*
X125150000Y-144050000D02*
X99080000Y-144050000D01*
X95330000Y-139850000D02*
X90660000Y-135180000D01*
X141960000Y-143110000D02*
X141610001Y-142760001D01*
X97400000Y-140320000D02*
X96930000Y-139850000D01*
X141610001Y-142760001D02*
X126439999Y-142760001D01*
X126439999Y-142760001D02*
X125150000Y-144050000D01*
X99080000Y-144050000D02*
X97400000Y-142370000D01*
X97400000Y-142370000D02*
X97400000Y-140320000D01*
X93800000Y-116319000D02*
X93800000Y-117100000D01*
X93199911Y-124370089D02*
X97579911Y-124370089D01*
X93800000Y-114980149D02*
X93800000Y-116319000D01*
X97579911Y-124370089D02*
X100190000Y-121760000D01*
X100190000Y-115630000D02*
X97960000Y-113400000D01*
X97960000Y-113400000D02*
X95380149Y-113400000D01*
X95380149Y-113400000D02*
X93800000Y-114980149D01*
X91840000Y-125730000D02*
X93199911Y-124370089D01*
X100190000Y-121760000D02*
X100190000Y-115630000D01*
D29*
X71500000Y-112320000D02*
X71500000Y-109540000D01*
X71750000Y-109290000D02*
X71750000Y-107430000D01*
X71500000Y-109540000D02*
X71750000Y-109290000D01*
D27*
X88600000Y-119635356D02*
X88600000Y-118900000D01*
X87555000Y-120680356D02*
X88600000Y-119635356D01*
X87555000Y-122300000D02*
X87555000Y-120680356D01*
X87800000Y-118900000D02*
X87800000Y-119681000D01*
X87800000Y-119681000D02*
X86410000Y-121071000D01*
X86410000Y-121071000D02*
X86410000Y-123500000D01*
X88825000Y-125915000D02*
X88825000Y-127700000D01*
X86410000Y-123500000D02*
X88825000Y-125915000D01*
D28*
G36*
X157519918Y-103300594D02*
X158011944Y-103479191D01*
X158449692Y-103766192D01*
X158809668Y-104146190D01*
X159072576Y-104598821D01*
X159227220Y-105109416D01*
X159265000Y-105532732D01*
X159265001Y-144457290D01*
X159199405Y-145019918D01*
X159020809Y-145511944D01*
X158733810Y-145949689D01*
X158353807Y-146309670D01*
X157901180Y-146572576D01*
X157390584Y-146727220D01*
X156967269Y-146765000D01*
X133288026Y-146765000D01*
X133293327Y-146759699D01*
X133390000Y-146526310D01*
X133390000Y-146035750D01*
X133231250Y-145877000D01*
X132107000Y-145877000D01*
X132107000Y-145897000D01*
X131853000Y-145897000D01*
X131853000Y-145877000D01*
X130728750Y-145877000D01*
X130570000Y-146035750D01*
X130570000Y-146526310D01*
X130666673Y-146759699D01*
X130671974Y-146765000D01*
X125328026Y-146765000D01*
X125333327Y-146759699D01*
X125430000Y-146526310D01*
X125430000Y-146035750D01*
X125271250Y-145877000D01*
X124147000Y-145877000D01*
X124147000Y-145897000D01*
X123893000Y-145897000D01*
X123893000Y-145877000D01*
X122768750Y-145877000D01*
X122610000Y-146035750D01*
X122610000Y-146526310D01*
X122706673Y-146759699D01*
X122711974Y-146765000D01*
X121288026Y-146765000D01*
X121293327Y-146759699D01*
X121390000Y-146526310D01*
X121390000Y-146035750D01*
X121231250Y-145877000D01*
X120107000Y-145877000D01*
X120107000Y-145897000D01*
X119853000Y-145897000D01*
X119853000Y-145877000D01*
X118728750Y-145877000D01*
X118570000Y-146035750D01*
X118570000Y-146526310D01*
X118666673Y-146759699D01*
X118671974Y-146765000D01*
X113328026Y-146765000D01*
X113333327Y-146759699D01*
X113430000Y-146526310D01*
X113430000Y-146035750D01*
X113271250Y-145877000D01*
X112147000Y-145877000D01*
X112147000Y-145897000D01*
X111893000Y-145897000D01*
X111893000Y-145877000D01*
X110768750Y-145877000D01*
X110610000Y-146035750D01*
X110610000Y-146526310D01*
X110706673Y-146759699D01*
X110711974Y-146765000D01*
X109274822Y-146765000D01*
X109353157Y-146647765D01*
X109402440Y-146400000D01*
X109402440Y-145100000D01*
X109357785Y-144875500D01*
X110650672Y-144875500D01*
X110610000Y-144973690D01*
X110610000Y-145464250D01*
X110768750Y-145623000D01*
X111893000Y-145623000D01*
X111893000Y-145603000D01*
X112147000Y-145603000D01*
X112147000Y-145623000D01*
X113271250Y-145623000D01*
X113430000Y-145464250D01*
X113430000Y-144973690D01*
X113389328Y-144875500D01*
X118610672Y-144875500D01*
X118570000Y-144973690D01*
X118570000Y-145464250D01*
X118728750Y-145623000D01*
X119853000Y-145623000D01*
X119853000Y-145603000D01*
X120107000Y-145603000D01*
X120107000Y-145623000D01*
X121231250Y-145623000D01*
X121390000Y-145464250D01*
X121390000Y-144973690D01*
X121349328Y-144875500D01*
X122650672Y-144875500D01*
X122610000Y-144973690D01*
X122610000Y-145464250D01*
X122768750Y-145623000D01*
X123893000Y-145623000D01*
X123893000Y-145603000D01*
X124147000Y-145603000D01*
X124147000Y-145623000D01*
X125271250Y-145623000D01*
X125430000Y-145464250D01*
X125430000Y-144973690D01*
X130570000Y-144973690D01*
X130570000Y-145464250D01*
X130728750Y-145623000D01*
X131853000Y-145623000D01*
X131853000Y-144623750D01*
X132107000Y-144623750D01*
X132107000Y-145623000D01*
X133231250Y-145623000D01*
X133390000Y-145464250D01*
X133390000Y-144973690D01*
X133293327Y-144740301D01*
X133114698Y-144561673D01*
X132881309Y-144465000D01*
X132265750Y-144465000D01*
X132107000Y-144623750D01*
X131853000Y-144623750D01*
X131694250Y-144465000D01*
X131078691Y-144465000D01*
X130845302Y-144561673D01*
X130666673Y-144740301D01*
X130570000Y-144973690D01*
X125430000Y-144973690D01*
X125377299Y-144846460D01*
X125472094Y-144827604D01*
X125745152Y-144645152D01*
X125791209Y-144576223D01*
X126781932Y-143585501D01*
X141090803Y-143585501D01*
X141124958Y-143667958D01*
X141402042Y-143945042D01*
X141764071Y-144095000D01*
X142155929Y-144095000D01*
X142517958Y-143945042D01*
X142795042Y-143667958D01*
X142945000Y-143305929D01*
X142945000Y-143055431D01*
X153765000Y-143055431D01*
X153765000Y-143944569D01*
X154105259Y-144766026D01*
X154733974Y-145394741D01*
X155555431Y-145735000D01*
X156444569Y-145735000D01*
X157266026Y-145394741D01*
X157894741Y-144766026D01*
X158235000Y-143944569D01*
X158235000Y-143055431D01*
X157894741Y-142233974D01*
X157266026Y-141605259D01*
X156444569Y-141265000D01*
X155555431Y-141265000D01*
X154733974Y-141605259D01*
X154105259Y-142233974D01*
X153765000Y-143055431D01*
X142945000Y-143055431D01*
X142945000Y-142914071D01*
X142795042Y-142552042D01*
X142517958Y-142274958D01*
X142155929Y-142125000D01*
X142145515Y-142125000D01*
X141932095Y-141982397D01*
X141691304Y-141934501D01*
X141691302Y-141934501D01*
X141610001Y-141918329D01*
X141528700Y-141934501D01*
X133395577Y-141934501D01*
X133402440Y-141900000D01*
X133402440Y-140600000D01*
X133353157Y-140352235D01*
X133212809Y-140142191D01*
X133002765Y-140001843D01*
X132755000Y-139952560D01*
X131205000Y-139952560D01*
X130957235Y-140001843D01*
X130747191Y-140142191D01*
X130606843Y-140352235D01*
X130592469Y-140424500D01*
X125407531Y-140424500D01*
X125393157Y-140352235D01*
X125252809Y-140142191D01*
X125164948Y-140083484D01*
X125926226Y-139322207D01*
X125995152Y-139276152D01*
X126177604Y-139003094D01*
X126188674Y-138947440D01*
X126450000Y-138947440D01*
X126697765Y-138898157D01*
X126907809Y-138757809D01*
X127048157Y-138547765D01*
X127097440Y-138300000D01*
X127097440Y-137500000D01*
X127048157Y-137252235D01*
X127025500Y-137218327D01*
X127025500Y-137200303D01*
X127041672Y-137119000D01*
X127024814Y-137034250D01*
X126986256Y-136840405D01*
X127048157Y-136747765D01*
X127097440Y-136500000D01*
X127097440Y-135739992D01*
X127505000Y-135332433D01*
X127505000Y-135585929D01*
X127654958Y-135947958D01*
X127664500Y-135957500D01*
X127664500Y-136038699D01*
X127648328Y-136120000D01*
X127664500Y-136201301D01*
X127664500Y-136201302D01*
X127712396Y-136442093D01*
X127894848Y-136715152D01*
X127963777Y-136761209D01*
X128234117Y-137031550D01*
X127912042Y-137164958D01*
X127634958Y-137442042D01*
X127485000Y-137804071D01*
X127485000Y-138195929D01*
X127634958Y-138557958D01*
X127638590Y-138561590D01*
X127644500Y-138591301D01*
X127644500Y-138591302D01*
X127692396Y-138832093D01*
X127874848Y-139105152D01*
X127943777Y-139151209D01*
X128208791Y-139416223D01*
X128254848Y-139485152D01*
X128527906Y-139667604D01*
X128768697Y-139715500D01*
X128768701Y-139715500D01*
X128849999Y-139731671D01*
X128931297Y-139715500D01*
X129528699Y-139715500D01*
X129610000Y-139731672D01*
X129691301Y-139715500D01*
X129691303Y-139715500D01*
X129932094Y-139667604D01*
X130205152Y-139485152D01*
X130251209Y-139416223D01*
X130326223Y-139341209D01*
X130395152Y-139295152D01*
X130577604Y-139022094D01*
X130592454Y-138947440D01*
X130800000Y-138947440D01*
X131000000Y-138907658D01*
X131200000Y-138947440D01*
X131411327Y-138947440D01*
X131422397Y-139003094D01*
X131604849Y-139276152D01*
X131673775Y-139322207D01*
X131717791Y-139366223D01*
X131763848Y-139435152D01*
X132036906Y-139617604D01*
X132277697Y-139665500D01*
X132277699Y-139665500D01*
X132359000Y-139681672D01*
X132440301Y-139665500D01*
X133128699Y-139665500D01*
X133210000Y-139681672D01*
X133291301Y-139665500D01*
X133291303Y-139665500D01*
X133532094Y-139617604D01*
X133805152Y-139435152D01*
X133851209Y-139366223D01*
X136766226Y-136451207D01*
X136835152Y-136405152D01*
X137017604Y-136132094D01*
X137065500Y-135891303D01*
X137065500Y-135891299D01*
X137081671Y-135810001D01*
X137065500Y-135728703D01*
X137065500Y-131006852D01*
X137215000Y-130645929D01*
X137215000Y-130254071D01*
X137065042Y-129892042D01*
X136787958Y-129614958D01*
X136425929Y-129465000D01*
X136034071Y-129465000D01*
X135751355Y-129582105D01*
X135676250Y-129507000D01*
X134627000Y-129507000D01*
X134627000Y-129527000D01*
X134373000Y-129527000D01*
X134373000Y-129507000D01*
X133323750Y-129507000D01*
X133165000Y-129665750D01*
X133165000Y-129907567D01*
X132607433Y-129350000D01*
X139902560Y-129350000D01*
X139902560Y-133250000D01*
X139951843Y-133497765D01*
X140092191Y-133707809D01*
X140302235Y-133848157D01*
X140550000Y-133897440D01*
X142350000Y-133897440D01*
X142597765Y-133848157D01*
X142807809Y-133707809D01*
X142948157Y-133497765D01*
X142997440Y-133250000D01*
X142997440Y-129350000D01*
X147002560Y-129350000D01*
X147002560Y-133250000D01*
X147051843Y-133497765D01*
X147192191Y-133707809D01*
X147402235Y-133848157D01*
X147650000Y-133897440D01*
X149450000Y-133897440D01*
X149697765Y-133848157D01*
X149907809Y-133707809D01*
X150048157Y-133497765D01*
X150097440Y-133250000D01*
X150097440Y-129350000D01*
X150048157Y-129102235D01*
X149907809Y-128892191D01*
X149697765Y-128751843D01*
X149450000Y-128702560D01*
X147650000Y-128702560D01*
X147402235Y-128751843D01*
X147192191Y-128892191D01*
X147051843Y-129102235D01*
X147002560Y-129350000D01*
X142997440Y-129350000D01*
X142948157Y-129102235D01*
X142807809Y-128892191D01*
X142597765Y-128751843D01*
X142350000Y-128702560D01*
X140550000Y-128702560D01*
X140302235Y-128751843D01*
X140092191Y-128892191D01*
X139951843Y-129102235D01*
X139902560Y-129350000D01*
X132607433Y-129350000D01*
X132000500Y-128743068D01*
X132000500Y-128668697D01*
X132145000Y-128697440D01*
X132745000Y-128697440D01*
X132992765Y-128648157D01*
X133202809Y-128507809D01*
X133229068Y-128468510D01*
X133247097Y-128495492D01*
X133165000Y-128693691D01*
X133165000Y-129094250D01*
X133323750Y-129253000D01*
X134373000Y-129253000D01*
X134373000Y-129233000D01*
X134627000Y-129233000D01*
X134627000Y-129253000D01*
X135676250Y-129253000D01*
X135835000Y-129094250D01*
X135835000Y-128693691D01*
X135752903Y-128495492D01*
X135798157Y-128427765D01*
X135847440Y-128180000D01*
X135847440Y-127060000D01*
X135798157Y-126812235D01*
X135657809Y-126602191D01*
X135447765Y-126461843D01*
X135325500Y-126437523D01*
X135325500Y-126318499D01*
X135427765Y-126298157D01*
X135495492Y-126252903D01*
X135693691Y-126335000D01*
X136094250Y-126335000D01*
X136253000Y-126176250D01*
X136253000Y-125127000D01*
X136507000Y-125127000D01*
X136507000Y-126176250D01*
X136665750Y-126335000D01*
X137066309Y-126335000D01*
X137299698Y-126238327D01*
X137478327Y-126059699D01*
X137575000Y-125826310D01*
X137575000Y-125285750D01*
X137416250Y-125127000D01*
X136507000Y-125127000D01*
X136253000Y-125127000D01*
X136233000Y-125127000D01*
X136233000Y-124873000D01*
X136253000Y-124873000D01*
X136253000Y-123823750D01*
X136507000Y-123823750D01*
X136507000Y-124873000D01*
X137416250Y-124873000D01*
X137575000Y-124714250D01*
X137575000Y-124285750D01*
X142465000Y-124285750D01*
X142465000Y-126876310D01*
X142561673Y-127109699D01*
X142740302Y-127288327D01*
X142973691Y-127385000D01*
X143464250Y-127385000D01*
X143623000Y-127226250D01*
X143623000Y-124127000D01*
X142623750Y-124127000D01*
X142465000Y-124285750D01*
X137575000Y-124285750D01*
X137575000Y-124173690D01*
X137478327Y-123940301D01*
X137299698Y-123761673D01*
X137066309Y-123665000D01*
X136665750Y-123665000D01*
X136507000Y-123823750D01*
X136253000Y-123823750D01*
X136094250Y-123665000D01*
X135693691Y-123665000D01*
X135690532Y-123666309D01*
X135780841Y-123576000D01*
X139669937Y-123576000D01*
X139770000Y-123595904D01*
X139870063Y-123576000D01*
X139870065Y-123576000D01*
X140166423Y-123517051D01*
X140502495Y-123292495D01*
X140559180Y-123207660D01*
X142465000Y-121301841D01*
X142465000Y-123714250D01*
X142623750Y-123873000D01*
X143623000Y-123873000D01*
X143623000Y-123853000D01*
X143877000Y-123853000D01*
X143877000Y-123873000D01*
X143897000Y-123873000D01*
X143897000Y-124127000D01*
X143877000Y-124127000D01*
X143877000Y-127226250D01*
X144035750Y-127385000D01*
X144526309Y-127385000D01*
X144759698Y-127288327D01*
X144938327Y-127109699D01*
X144996279Y-126969791D01*
X145001843Y-126997765D01*
X145142191Y-127207809D01*
X145352235Y-127348157D01*
X145600000Y-127397440D01*
X146900000Y-127397440D01*
X147147765Y-127348157D01*
X147357809Y-127207809D01*
X147498157Y-126997765D01*
X147547440Y-126750000D01*
X147547440Y-121250000D01*
X147498157Y-121002235D01*
X147357809Y-120792191D01*
X147266000Y-120730846D01*
X147266000Y-120588063D01*
X147285904Y-120487999D01*
X147266000Y-120387935D01*
X147207051Y-120091577D01*
X147204258Y-120087396D01*
X147164507Y-120027906D01*
X146982495Y-119755505D01*
X146897660Y-119698820D01*
X146331180Y-119132340D01*
X146274495Y-119047505D01*
X145938423Y-118822949D01*
X145642065Y-118764000D01*
X145642063Y-118764000D01*
X145542000Y-118744096D01*
X145441937Y-118764000D01*
X142650064Y-118764000D01*
X142550000Y-118744096D01*
X142449936Y-118764000D01*
X142449935Y-118764000D01*
X142153577Y-118822949D01*
X141817505Y-119047505D01*
X141760822Y-119132337D01*
X139349160Y-121544000D01*
X135460063Y-121544000D01*
X135359999Y-121524096D01*
X135259936Y-121544000D01*
X135259935Y-121544000D01*
X134963577Y-121602949D01*
X134627505Y-121827505D01*
X134570822Y-121912337D01*
X134073022Y-122410138D01*
X133837505Y-122567505D01*
X133780822Y-122652337D01*
X133392440Y-123040719D01*
X133392440Y-121950000D01*
X133343157Y-121702235D01*
X133202809Y-121492191D01*
X132992765Y-121351843D01*
X132745000Y-121302560D01*
X132145000Y-121302560D01*
X131897235Y-121351843D01*
X131810000Y-121410132D01*
X131722765Y-121351843D01*
X131475000Y-121302560D01*
X130875000Y-121302560D01*
X130627235Y-121351843D01*
X130540000Y-121410132D01*
X130452765Y-121351843D01*
X130205000Y-121302560D01*
X129605000Y-121302560D01*
X129357235Y-121351843D01*
X129270000Y-121410132D01*
X129182765Y-121351843D01*
X128935000Y-121302560D01*
X128335000Y-121302560D01*
X128087235Y-121351843D01*
X128000000Y-121410132D01*
X127912765Y-121351843D01*
X127665000Y-121302560D01*
X127065000Y-121302560D01*
X126817235Y-121351843D01*
X126730000Y-121410132D01*
X126642765Y-121351843D01*
X126395000Y-121302560D01*
X125795000Y-121302560D01*
X125650500Y-121331303D01*
X125650500Y-120946303D01*
X125666672Y-120865000D01*
X125635425Y-120707907D01*
X125602604Y-120542906D01*
X125420152Y-120269848D01*
X125351226Y-120223793D01*
X123824872Y-118697440D01*
X123855000Y-118697440D01*
X124102765Y-118648157D01*
X124190000Y-118589868D01*
X124277235Y-118648157D01*
X124525000Y-118697440D01*
X125125000Y-118697440D01*
X125372765Y-118648157D01*
X125460000Y-118589868D01*
X125547235Y-118648157D01*
X125795000Y-118697440D01*
X126395000Y-118697440D01*
X126642765Y-118648157D01*
X126730000Y-118589868D01*
X126817235Y-118648157D01*
X127065000Y-118697440D01*
X127665000Y-118697440D01*
X127912765Y-118648157D01*
X128000000Y-118589868D01*
X128087235Y-118648157D01*
X128335000Y-118697440D01*
X128935000Y-118697440D01*
X129182765Y-118648157D01*
X129270000Y-118589868D01*
X129357235Y-118648157D01*
X129605000Y-118697440D01*
X130205000Y-118697440D01*
X130452765Y-118648157D01*
X130540000Y-118589868D01*
X130627235Y-118648157D01*
X130875000Y-118697440D01*
X131475000Y-118697440D01*
X131722765Y-118648157D01*
X131801972Y-118595232D01*
X132018690Y-118685000D01*
X132159250Y-118685000D01*
X132318000Y-118526250D01*
X132318000Y-117427000D01*
X132572000Y-117427000D01*
X132572000Y-118526250D01*
X132730750Y-118685000D01*
X132871310Y-118685000D01*
X133104699Y-118588327D01*
X133283327Y-118409698D01*
X133380000Y-118176309D01*
X133380000Y-117585750D01*
X133221250Y-117427000D01*
X132572000Y-117427000D01*
X132318000Y-117427000D01*
X132298000Y-117427000D01*
X132298000Y-117173000D01*
X132318000Y-117173000D01*
X132318000Y-117153000D01*
X132572000Y-117153000D01*
X132572000Y-117173000D01*
X133221250Y-117173000D01*
X133380000Y-117014250D01*
X133380000Y-116423691D01*
X133297699Y-116225000D01*
X133565929Y-116225000D01*
X133927958Y-116075042D01*
X134205042Y-115797958D01*
X134355000Y-115435929D01*
X134355000Y-115044071D01*
X134205042Y-114682042D01*
X134195500Y-114672500D01*
X134195500Y-113401301D01*
X134211672Y-113320000D01*
X134187470Y-113198328D01*
X134147604Y-112997906D01*
X133965152Y-112724848D01*
X133896223Y-112678791D01*
X133651209Y-112433777D01*
X133605152Y-112364848D01*
X133332094Y-112182396D01*
X133097440Y-112135721D01*
X133097440Y-111700000D01*
X133048157Y-111452235D01*
X133025500Y-111418327D01*
X133025500Y-109061297D01*
X133041671Y-108979999D01*
X133025500Y-108898701D01*
X133025500Y-108898697D01*
X132977604Y-108657906D01*
X132909733Y-108556331D01*
X132841206Y-108453772D01*
X132841205Y-108453771D01*
X132795152Y-108384848D01*
X132726228Y-108338795D01*
X132252933Y-107865500D01*
X141192500Y-107865500D01*
X141202042Y-107875042D01*
X141564071Y-108025000D01*
X141955929Y-108025000D01*
X142317958Y-107875042D01*
X142595042Y-107597958D01*
X142745000Y-107235929D01*
X142745000Y-106844071D01*
X142595042Y-106482042D01*
X142317958Y-106204958D01*
X141956970Y-106055431D01*
X153765000Y-106055431D01*
X153765000Y-106944569D01*
X154105259Y-107766026D01*
X154733974Y-108394741D01*
X155555431Y-108735000D01*
X156444569Y-108735000D01*
X157266026Y-108394741D01*
X157894741Y-107766026D01*
X158235000Y-106944569D01*
X158235000Y-106055431D01*
X157894741Y-105233974D01*
X157266026Y-104605259D01*
X156444569Y-104265000D01*
X155555431Y-104265000D01*
X154733974Y-104605259D01*
X154105259Y-105233974D01*
X153765000Y-106055431D01*
X141956970Y-106055431D01*
X141955929Y-106055000D01*
X141564071Y-106055000D01*
X141202042Y-106204958D01*
X141192500Y-106214500D01*
X108681301Y-106214500D01*
X108600000Y-106198328D01*
X108518698Y-106214500D01*
X108518697Y-106214500D01*
X108277906Y-106262396D01*
X108004848Y-106444848D01*
X107958793Y-106513774D01*
X105788067Y-108684501D01*
X96671296Y-108684501D01*
X96589998Y-108668330D01*
X96508700Y-108684501D01*
X96508696Y-108684501D01*
X96267905Y-108732397D01*
X96054485Y-108875000D01*
X96044071Y-108875000D01*
X95814142Y-108970240D01*
X95535929Y-108855000D01*
X95144071Y-108855000D01*
X94782042Y-109004958D01*
X94772500Y-109014500D01*
X91681933Y-109014500D01*
X91102432Y-108435000D01*
X92414250Y-108435000D01*
X92573000Y-108276250D01*
X92573000Y-107127000D01*
X92827000Y-107127000D01*
X92827000Y-108276250D01*
X92985750Y-108435000D01*
X94576309Y-108435000D01*
X94809698Y-108338327D01*
X94988327Y-108159699D01*
X95085000Y-107926310D01*
X95085000Y-107285750D01*
X94926250Y-107127000D01*
X92827000Y-107127000D01*
X92573000Y-107127000D01*
X92553000Y-107127000D01*
X92553000Y-106873000D01*
X92573000Y-106873000D01*
X92573000Y-105723750D01*
X92827000Y-105723750D01*
X92827000Y-106873000D01*
X94926250Y-106873000D01*
X95085000Y-106714250D01*
X95085000Y-106073690D01*
X94988327Y-105840301D01*
X94809698Y-105661673D01*
X94576309Y-105565000D01*
X92985750Y-105565000D01*
X92827000Y-105723750D01*
X92573000Y-105723750D01*
X92414250Y-105565000D01*
X90823691Y-105565000D01*
X90728507Y-105604427D01*
X90595152Y-105404848D01*
X90526226Y-105358793D01*
X89521209Y-104353777D01*
X89475152Y-104284848D01*
X89202094Y-104102396D01*
X88961303Y-104054500D01*
X88961301Y-104054500D01*
X88880000Y-104038328D01*
X88798699Y-104054500D01*
X84387500Y-104054500D01*
X84377958Y-104044958D01*
X84015929Y-103895000D01*
X83624071Y-103895000D01*
X83262042Y-104044958D01*
X82984958Y-104322042D01*
X82835000Y-104684071D01*
X82835000Y-105075929D01*
X82984958Y-105437958D01*
X83262042Y-105715042D01*
X83624071Y-105865000D01*
X84015929Y-105865000D01*
X84377958Y-105715042D01*
X84387500Y-105705500D01*
X85147103Y-105705500D01*
X85092191Y-105742191D01*
X84951843Y-105952235D01*
X84945525Y-105984000D01*
X84888063Y-105984000D01*
X84787999Y-105964096D01*
X84687935Y-105984000D01*
X84391577Y-106042949D01*
X84391576Y-106042950D01*
X84391575Y-106042950D01*
X84373541Y-106055000D01*
X84055505Y-106267505D01*
X83998822Y-106352337D01*
X82507160Y-107844000D01*
X77247440Y-107844000D01*
X77247440Y-107827440D01*
X78150000Y-107827440D01*
X78397765Y-107778157D01*
X78607809Y-107637809D01*
X78748157Y-107427765D01*
X78797440Y-107180000D01*
X78797440Y-106380000D01*
X78748157Y-106132235D01*
X78607809Y-105922191D01*
X78397765Y-105781843D01*
X78150000Y-105732560D01*
X77150000Y-105732560D01*
X76902235Y-105781843D01*
X76692191Y-105922191D01*
X76616280Y-106035798D01*
X76600000Y-106032560D01*
X76524218Y-106032560D01*
X76585000Y-105885820D01*
X76585000Y-105454180D01*
X76419818Y-105055397D01*
X76114603Y-104750182D01*
X75715820Y-104585000D01*
X75284180Y-104585000D01*
X74885397Y-104750182D01*
X74580182Y-105055397D01*
X74415000Y-105454180D01*
X74415000Y-105885820D01*
X74475782Y-106032560D01*
X74400000Y-106032560D01*
X74152235Y-106081843D01*
X73942191Y-106222191D01*
X73801843Y-106432235D01*
X73752560Y-106680000D01*
X73752560Y-107236632D01*
X73734001Y-107329935D01*
X73734000Y-108259936D01*
X73714096Y-108360000D01*
X73734000Y-108460063D01*
X73734000Y-108460064D01*
X73792949Y-108756422D01*
X74017505Y-109092495D01*
X74102340Y-109149180D01*
X74460820Y-109507660D01*
X74517505Y-109592495D01*
X74853577Y-109817051D01*
X75149935Y-109876000D01*
X75149936Y-109876000D01*
X75250000Y-109895904D01*
X75350064Y-109876000D01*
X76277159Y-109876000D01*
X74792609Y-111360551D01*
X74647506Y-111457506D01*
X74422950Y-111793577D01*
X74344096Y-112190000D01*
X74374000Y-112340337D01*
X74374001Y-127859932D01*
X74354096Y-127960000D01*
X74432950Y-128356423D01*
X74596584Y-128601318D01*
X74657506Y-128692495D01*
X74742338Y-128749178D01*
X77660822Y-131667663D01*
X77717505Y-131752495D01*
X78053577Y-131977051D01*
X78349935Y-132036000D01*
X78349936Y-132036000D01*
X78450000Y-132055904D01*
X78550064Y-132036000D01*
X82119937Y-132036000D01*
X82220000Y-132055904D01*
X82320063Y-132036000D01*
X82320065Y-132036000D01*
X82616423Y-131977051D01*
X82952495Y-131752495D01*
X83009180Y-131667661D01*
X83891090Y-130785750D01*
X84425000Y-130785750D01*
X84425000Y-131326310D01*
X84521673Y-131559699D01*
X84700302Y-131738327D01*
X84933691Y-131835000D01*
X85334250Y-131835000D01*
X85493000Y-131676250D01*
X85493000Y-130627000D01*
X84583750Y-130627000D01*
X84425000Y-130785750D01*
X83891090Y-130785750D01*
X84443795Y-130233045D01*
X84583750Y-130373000D01*
X85493000Y-130373000D01*
X85493000Y-130353000D01*
X85747000Y-130353000D01*
X85747000Y-130373000D01*
X85767000Y-130373000D01*
X85767000Y-130627000D01*
X85747000Y-130627000D01*
X85747000Y-131676250D01*
X85905750Y-131835000D01*
X86306309Y-131835000D01*
X86504508Y-131752903D01*
X86572235Y-131798157D01*
X86820000Y-131847440D01*
X87644929Y-131847440D01*
X80464251Y-139028119D01*
X80400630Y-139070629D01*
X80358119Y-139134251D01*
X80358118Y-139134252D01*
X80232213Y-139322683D01*
X80173073Y-139620000D01*
X80188001Y-139695048D01*
X80188000Y-143694957D01*
X80173073Y-143770000D01*
X80188000Y-143845043D01*
X80188000Y-143845047D01*
X80232212Y-144067316D01*
X80400629Y-144319371D01*
X80464254Y-144361884D01*
X80768116Y-144665746D01*
X80810629Y-144729371D01*
X81062683Y-144897788D01*
X81284952Y-144942000D01*
X81284953Y-144942000D01*
X81360000Y-144956928D01*
X81435047Y-144942000D01*
X82814957Y-144942000D01*
X82890000Y-144956927D01*
X82965043Y-144942000D01*
X82965048Y-144942000D01*
X83187317Y-144897788D01*
X83439371Y-144729371D01*
X83481883Y-144665747D01*
X86135631Y-142012000D01*
X86619838Y-142012000D01*
X86646843Y-142147765D01*
X86787191Y-142357809D01*
X86997235Y-142498157D01*
X87245000Y-142547440D01*
X88795000Y-142547440D01*
X89042765Y-142498157D01*
X89252809Y-142357809D01*
X89393157Y-142147765D01*
X89407531Y-142075500D01*
X94592469Y-142075500D01*
X94606843Y-142147765D01*
X94747191Y-142357809D01*
X94957235Y-142498157D01*
X95205000Y-142547440D01*
X96593623Y-142547440D01*
X96622396Y-142692093D01*
X96804848Y-142965152D01*
X96873777Y-143011209D01*
X98438793Y-144576226D01*
X98484848Y-144645152D01*
X98553773Y-144691206D01*
X98692502Y-144783902D01*
X98646843Y-144852235D01*
X98645797Y-144857494D01*
X98325929Y-144725000D01*
X97934071Y-144725000D01*
X97572042Y-144874958D01*
X97390000Y-145057000D01*
X97390000Y-144973690D01*
X97293327Y-144740301D01*
X97114698Y-144561673D01*
X96881309Y-144465000D01*
X96265750Y-144465000D01*
X96107000Y-144623750D01*
X96107000Y-145623000D01*
X96127000Y-145623000D01*
X96127000Y-145877000D01*
X96107000Y-145877000D01*
X96107000Y-145897000D01*
X95853000Y-145897000D01*
X95853000Y-145877000D01*
X94728750Y-145877000D01*
X94570000Y-146035750D01*
X94570000Y-146526310D01*
X94666673Y-146759699D01*
X94671974Y-146765000D01*
X89328026Y-146765000D01*
X89333327Y-146759699D01*
X89430000Y-146526310D01*
X89430000Y-146035750D01*
X89271250Y-145877000D01*
X88147000Y-145877000D01*
X88147000Y-145897000D01*
X87893000Y-145897000D01*
X87893000Y-145877000D01*
X86768750Y-145877000D01*
X86610000Y-146035750D01*
X86610000Y-146526310D01*
X86706673Y-146759699D01*
X86711974Y-146765000D01*
X63042702Y-146765000D01*
X62480082Y-146699405D01*
X61988056Y-146520809D01*
X61550311Y-146233810D01*
X61190330Y-145853807D01*
X60927424Y-145401180D01*
X60772780Y-144890584D01*
X60735000Y-144467269D01*
X60735000Y-143055431D01*
X61765000Y-143055431D01*
X61765000Y-143944569D01*
X62105259Y-144766026D01*
X62733974Y-145394741D01*
X63555431Y-145735000D01*
X64444569Y-145735000D01*
X65266026Y-145394741D01*
X65687077Y-144973690D01*
X86610000Y-144973690D01*
X86610000Y-145464250D01*
X86768750Y-145623000D01*
X87893000Y-145623000D01*
X87893000Y-144623750D01*
X88147000Y-144623750D01*
X88147000Y-145623000D01*
X89271250Y-145623000D01*
X89430000Y-145464250D01*
X89430000Y-144973690D01*
X94570000Y-144973690D01*
X94570000Y-145464250D01*
X94728750Y-145623000D01*
X95853000Y-145623000D01*
X95853000Y-144623750D01*
X95694250Y-144465000D01*
X95078691Y-144465000D01*
X94845302Y-144561673D01*
X94666673Y-144740301D01*
X94570000Y-144973690D01*
X89430000Y-144973690D01*
X89333327Y-144740301D01*
X89154698Y-144561673D01*
X88921309Y-144465000D01*
X88305750Y-144465000D01*
X88147000Y-144623750D01*
X87893000Y-144623750D01*
X87734250Y-144465000D01*
X87118691Y-144465000D01*
X86885302Y-144561673D01*
X86706673Y-144740301D01*
X86610000Y-144973690D01*
X65687077Y-144973690D01*
X65894741Y-144766026D01*
X66235000Y-143944569D01*
X66235000Y-143055431D01*
X65894741Y-142233974D01*
X65266026Y-141605259D01*
X64708283Y-141374234D01*
X67665000Y-141374234D01*
X67665000Y-141825766D01*
X67837793Y-142242926D01*
X68157074Y-142562207D01*
X68574234Y-142735000D01*
X69025766Y-142735000D01*
X69110000Y-142700109D01*
X69110000Y-143076309D01*
X69206673Y-143309698D01*
X69385301Y-143488327D01*
X69618690Y-143585000D01*
X71214250Y-143585000D01*
X71373000Y-143426250D01*
X71373000Y-141807000D01*
X71627000Y-141807000D01*
X71627000Y-143426250D01*
X71785750Y-143585000D01*
X73381310Y-143585000D01*
X73614699Y-143488327D01*
X73793327Y-143309698D01*
X73890000Y-143076309D01*
X73890000Y-141965750D01*
X73731250Y-141807000D01*
X71627000Y-141807000D01*
X71373000Y-141807000D01*
X71353000Y-141807000D01*
X71353000Y-141553000D01*
X71373000Y-141553000D01*
X71373000Y-139933750D01*
X71627000Y-139933750D01*
X71627000Y-141553000D01*
X73731250Y-141553000D01*
X73890000Y-141394250D01*
X73890000Y-140283691D01*
X73793327Y-140050302D01*
X73614699Y-139871673D01*
X73381310Y-139775000D01*
X71785750Y-139775000D01*
X71627000Y-139933750D01*
X71373000Y-139933750D01*
X71214250Y-139775000D01*
X69618690Y-139775000D01*
X69385301Y-139871673D01*
X69206673Y-140050302D01*
X69110000Y-140283691D01*
X69110000Y-140499891D01*
X69025766Y-140465000D01*
X68574234Y-140465000D01*
X68157074Y-140637793D01*
X67837793Y-140957074D01*
X67665000Y-141374234D01*
X64708283Y-141374234D01*
X64444569Y-141265000D01*
X63555431Y-141265000D01*
X62733974Y-141605259D01*
X62105259Y-142233974D01*
X61765000Y-143055431D01*
X60735000Y-143055431D01*
X60735000Y-111050000D01*
X69097560Y-111050000D01*
X69097560Y-113590000D01*
X69146843Y-113837765D01*
X69287191Y-114047809D01*
X69497235Y-114188157D01*
X69745000Y-114237440D01*
X73255000Y-114237440D01*
X73502765Y-114188157D01*
X73712809Y-114047809D01*
X73853157Y-113837765D01*
X73902440Y-113590000D01*
X73902440Y-111050000D01*
X73853157Y-110802235D01*
X73712809Y-110592191D01*
X73502765Y-110451843D01*
X73255000Y-110402560D01*
X72516000Y-110402560D01*
X72516000Y-109972351D01*
X72707051Y-109686423D01*
X72766000Y-109390065D01*
X72766000Y-109390064D01*
X72785904Y-109290001D01*
X72766000Y-109189937D01*
X72766000Y-107329935D01*
X72747440Y-107236627D01*
X72747440Y-106741903D01*
X73114603Y-106589818D01*
X73419818Y-106284603D01*
X73585000Y-105885820D01*
X73585000Y-105454180D01*
X73419818Y-105055397D01*
X73114603Y-104750182D01*
X72715820Y-104585000D01*
X72284180Y-104585000D01*
X71885397Y-104750182D01*
X71580182Y-105055397D01*
X71415000Y-105454180D01*
X71415000Y-105885820D01*
X71475782Y-106032560D01*
X71400000Y-106032560D01*
X71383720Y-106035798D01*
X71307809Y-105922191D01*
X71097765Y-105781843D01*
X70850000Y-105732560D01*
X69850000Y-105732560D01*
X69602235Y-105781843D01*
X69392191Y-105922191D01*
X69251843Y-106132235D01*
X69202560Y-106380000D01*
X69202560Y-107180000D01*
X69251843Y-107427765D01*
X69392191Y-107637809D01*
X69602235Y-107778157D01*
X69850000Y-107827440D01*
X70734001Y-107827440D01*
X70734000Y-108857650D01*
X70710823Y-108892337D01*
X70542950Y-109143577D01*
X70464096Y-109540000D01*
X70484001Y-109640068D01*
X70484001Y-110402560D01*
X69745000Y-110402560D01*
X69497235Y-110451843D01*
X69287191Y-110592191D01*
X69146843Y-110802235D01*
X69097560Y-111050000D01*
X60735000Y-111050000D01*
X60735000Y-106055431D01*
X61765000Y-106055431D01*
X61765000Y-106944569D01*
X62105259Y-107766026D01*
X62733974Y-108394741D01*
X63555431Y-108735000D01*
X64444569Y-108735000D01*
X65266026Y-108394741D01*
X65894741Y-107766026D01*
X66235000Y-106944569D01*
X66235000Y-106055431D01*
X65894741Y-105233974D01*
X65266026Y-104605259D01*
X64444569Y-104265000D01*
X63555431Y-104265000D01*
X62733974Y-104605259D01*
X62105259Y-105233974D01*
X61765000Y-106055431D01*
X60735000Y-106055431D01*
X60735000Y-105542702D01*
X60800594Y-104980082D01*
X60979191Y-104488056D01*
X61187718Y-104170000D01*
X69202560Y-104170000D01*
X69202560Y-104970000D01*
X69251843Y-105217765D01*
X69392191Y-105427809D01*
X69602235Y-105568157D01*
X69850000Y-105617440D01*
X70850000Y-105617440D01*
X71097765Y-105568157D01*
X71307809Y-105427809D01*
X71448157Y-105217765D01*
X71497440Y-104970000D01*
X71497440Y-104170000D01*
X76502560Y-104170000D01*
X76502560Y-104970000D01*
X76551843Y-105217765D01*
X76692191Y-105427809D01*
X76902235Y-105568157D01*
X77150000Y-105617440D01*
X78150000Y-105617440D01*
X78397765Y-105568157D01*
X78607809Y-105427809D01*
X78748157Y-105217765D01*
X78797440Y-104970000D01*
X78797440Y-104170000D01*
X78748157Y-103922235D01*
X78607809Y-103712191D01*
X78397765Y-103571843D01*
X78150000Y-103522560D01*
X77150000Y-103522560D01*
X76902235Y-103571843D01*
X76692191Y-103712191D01*
X76551843Y-103922235D01*
X76502560Y-104170000D01*
X71497440Y-104170000D01*
X71448157Y-103922235D01*
X71307809Y-103712191D01*
X71097765Y-103571843D01*
X70850000Y-103522560D01*
X69850000Y-103522560D01*
X69602235Y-103571843D01*
X69392191Y-103712191D01*
X69251843Y-103922235D01*
X69202560Y-104170000D01*
X61187718Y-104170000D01*
X61266192Y-104050308D01*
X61646190Y-103690332D01*
X62098821Y-103427424D01*
X62609416Y-103272780D01*
X63032732Y-103235000D01*
X156957298Y-103235000D01*
X157519918Y-103300594D01*
X157519918Y-103300594D01*
G37*
X157519918Y-103300594D02*
X158011944Y-103479191D01*
X158449692Y-103766192D01*
X158809668Y-104146190D01*
X159072576Y-104598821D01*
X159227220Y-105109416D01*
X159265000Y-105532732D01*
X159265001Y-144457290D01*
X159199405Y-145019918D01*
X159020809Y-145511944D01*
X158733810Y-145949689D01*
X158353807Y-146309670D01*
X157901180Y-146572576D01*
X157390584Y-146727220D01*
X156967269Y-146765000D01*
X133288026Y-146765000D01*
X133293327Y-146759699D01*
X133390000Y-146526310D01*
X133390000Y-146035750D01*
X133231250Y-145877000D01*
X132107000Y-145877000D01*
X132107000Y-145897000D01*
X131853000Y-145897000D01*
X131853000Y-145877000D01*
X130728750Y-145877000D01*
X130570000Y-146035750D01*
X130570000Y-146526310D01*
X130666673Y-146759699D01*
X130671974Y-146765000D01*
X125328026Y-146765000D01*
X125333327Y-146759699D01*
X125430000Y-146526310D01*
X125430000Y-146035750D01*
X125271250Y-145877000D01*
X124147000Y-145877000D01*
X124147000Y-145897000D01*
X123893000Y-145897000D01*
X123893000Y-145877000D01*
X122768750Y-145877000D01*
X122610000Y-146035750D01*
X122610000Y-146526310D01*
X122706673Y-146759699D01*
X122711974Y-146765000D01*
X121288026Y-146765000D01*
X121293327Y-146759699D01*
X121390000Y-146526310D01*
X121390000Y-146035750D01*
X121231250Y-145877000D01*
X120107000Y-145877000D01*
X120107000Y-145897000D01*
X119853000Y-145897000D01*
X119853000Y-145877000D01*
X118728750Y-145877000D01*
X118570000Y-146035750D01*
X118570000Y-146526310D01*
X118666673Y-146759699D01*
X118671974Y-146765000D01*
X113328026Y-146765000D01*
X113333327Y-146759699D01*
X113430000Y-146526310D01*
X113430000Y-146035750D01*
X113271250Y-145877000D01*
X112147000Y-145877000D01*
X112147000Y-145897000D01*
X111893000Y-145897000D01*
X111893000Y-145877000D01*
X110768750Y-145877000D01*
X110610000Y-146035750D01*
X110610000Y-146526310D01*
X110706673Y-146759699D01*
X110711974Y-146765000D01*
X109274822Y-146765000D01*
X109353157Y-146647765D01*
X109402440Y-146400000D01*
X109402440Y-145100000D01*
X109357785Y-144875500D01*
X110650672Y-144875500D01*
X110610000Y-144973690D01*
X110610000Y-145464250D01*
X110768750Y-145623000D01*
X111893000Y-145623000D01*
X111893000Y-145603000D01*
X112147000Y-145603000D01*
X112147000Y-145623000D01*
X113271250Y-145623000D01*
X113430000Y-145464250D01*
X113430000Y-144973690D01*
X113389328Y-144875500D01*
X118610672Y-144875500D01*
X118570000Y-144973690D01*
X118570000Y-145464250D01*
X118728750Y-145623000D01*
X119853000Y-145623000D01*
X119853000Y-145603000D01*
X120107000Y-145603000D01*
X120107000Y-145623000D01*
X121231250Y-145623000D01*
X121390000Y-145464250D01*
X121390000Y-144973690D01*
X121349328Y-144875500D01*
X122650672Y-144875500D01*
X122610000Y-144973690D01*
X122610000Y-145464250D01*
X122768750Y-145623000D01*
X123893000Y-145623000D01*
X123893000Y-145603000D01*
X124147000Y-145603000D01*
X124147000Y-145623000D01*
X125271250Y-145623000D01*
X125430000Y-145464250D01*
X125430000Y-144973690D01*
X130570000Y-144973690D01*
X130570000Y-145464250D01*
X130728750Y-145623000D01*
X131853000Y-145623000D01*
X131853000Y-144623750D01*
X132107000Y-144623750D01*
X132107000Y-145623000D01*
X133231250Y-145623000D01*
X133390000Y-145464250D01*
X133390000Y-144973690D01*
X133293327Y-144740301D01*
X133114698Y-144561673D01*
X132881309Y-144465000D01*
X132265750Y-144465000D01*
X132107000Y-144623750D01*
X131853000Y-144623750D01*
X131694250Y-144465000D01*
X131078691Y-144465000D01*
X130845302Y-144561673D01*
X130666673Y-144740301D01*
X130570000Y-144973690D01*
X125430000Y-144973690D01*
X125377299Y-144846460D01*
X125472094Y-144827604D01*
X125745152Y-144645152D01*
X125791209Y-144576223D01*
X126781932Y-143585501D01*
X141090803Y-143585501D01*
X141124958Y-143667958D01*
X141402042Y-143945042D01*
X141764071Y-144095000D01*
X142155929Y-144095000D01*
X142517958Y-143945042D01*
X142795042Y-143667958D01*
X142945000Y-143305929D01*
X142945000Y-143055431D01*
X153765000Y-143055431D01*
X153765000Y-143944569D01*
X154105259Y-144766026D01*
X154733974Y-145394741D01*
X155555431Y-145735000D01*
X156444569Y-145735000D01*
X157266026Y-145394741D01*
X157894741Y-144766026D01*
X158235000Y-143944569D01*
X158235000Y-143055431D01*
X157894741Y-142233974D01*
X157266026Y-141605259D01*
X156444569Y-141265000D01*
X155555431Y-141265000D01*
X154733974Y-141605259D01*
X154105259Y-142233974D01*
X153765000Y-143055431D01*
X142945000Y-143055431D01*
X142945000Y-142914071D01*
X142795042Y-142552042D01*
X142517958Y-142274958D01*
X142155929Y-142125000D01*
X142145515Y-142125000D01*
X141932095Y-141982397D01*
X141691304Y-141934501D01*
X141691302Y-141934501D01*
X141610001Y-141918329D01*
X141528700Y-141934501D01*
X133395577Y-141934501D01*
X133402440Y-141900000D01*
X133402440Y-140600000D01*
X133353157Y-140352235D01*
X133212809Y-140142191D01*
X133002765Y-140001843D01*
X132755000Y-139952560D01*
X131205000Y-139952560D01*
X130957235Y-140001843D01*
X130747191Y-140142191D01*
X130606843Y-140352235D01*
X130592469Y-140424500D01*
X125407531Y-140424500D01*
X125393157Y-140352235D01*
X125252809Y-140142191D01*
X125164948Y-140083484D01*
X125926226Y-139322207D01*
X125995152Y-139276152D01*
X126177604Y-139003094D01*
X126188674Y-138947440D01*
X126450000Y-138947440D01*
X126697765Y-138898157D01*
X126907809Y-138757809D01*
X127048157Y-138547765D01*
X127097440Y-138300000D01*
X127097440Y-137500000D01*
X127048157Y-137252235D01*
X127025500Y-137218327D01*
X127025500Y-137200303D01*
X127041672Y-137119000D01*
X127024814Y-137034250D01*
X126986256Y-136840405D01*
X127048157Y-136747765D01*
X127097440Y-136500000D01*
X127097440Y-135739992D01*
X127505000Y-135332433D01*
X127505000Y-135585929D01*
X127654958Y-135947958D01*
X127664500Y-135957500D01*
X127664500Y-136038699D01*
X127648328Y-136120000D01*
X127664500Y-136201301D01*
X127664500Y-136201302D01*
X127712396Y-136442093D01*
X127894848Y-136715152D01*
X127963777Y-136761209D01*
X128234117Y-137031550D01*
X127912042Y-137164958D01*
X127634958Y-137442042D01*
X127485000Y-137804071D01*
X127485000Y-138195929D01*
X127634958Y-138557958D01*
X127638590Y-138561590D01*
X127644500Y-138591301D01*
X127644500Y-138591302D01*
X127692396Y-138832093D01*
X127874848Y-139105152D01*
X127943777Y-139151209D01*
X128208791Y-139416223D01*
X128254848Y-139485152D01*
X128527906Y-139667604D01*
X128768697Y-139715500D01*
X128768701Y-139715500D01*
X128849999Y-139731671D01*
X128931297Y-139715500D01*
X129528699Y-139715500D01*
X129610000Y-139731672D01*
X129691301Y-139715500D01*
X129691303Y-139715500D01*
X129932094Y-139667604D01*
X130205152Y-139485152D01*
X130251209Y-139416223D01*
X130326223Y-139341209D01*
X130395152Y-139295152D01*
X130577604Y-139022094D01*
X130592454Y-138947440D01*
X130800000Y-138947440D01*
X131000000Y-138907658D01*
X131200000Y-138947440D01*
X131411327Y-138947440D01*
X131422397Y-139003094D01*
X131604849Y-139276152D01*
X131673775Y-139322207D01*
X131717791Y-139366223D01*
X131763848Y-139435152D01*
X132036906Y-139617604D01*
X132277697Y-139665500D01*
X132277699Y-139665500D01*
X132359000Y-139681672D01*
X132440301Y-139665500D01*
X133128699Y-139665500D01*
X133210000Y-139681672D01*
X133291301Y-139665500D01*
X133291303Y-139665500D01*
X133532094Y-139617604D01*
X133805152Y-139435152D01*
X133851209Y-139366223D01*
X136766226Y-136451207D01*
X136835152Y-136405152D01*
X137017604Y-136132094D01*
X137065500Y-135891303D01*
X137065500Y-135891299D01*
X137081671Y-135810001D01*
X137065500Y-135728703D01*
X137065500Y-131006852D01*
X137215000Y-130645929D01*
X137215000Y-130254071D01*
X137065042Y-129892042D01*
X136787958Y-129614958D01*
X136425929Y-129465000D01*
X136034071Y-129465000D01*
X135751355Y-129582105D01*
X135676250Y-129507000D01*
X134627000Y-129507000D01*
X134627000Y-129527000D01*
X134373000Y-129527000D01*
X134373000Y-129507000D01*
X133323750Y-129507000D01*
X133165000Y-129665750D01*
X133165000Y-129907567D01*
X132607433Y-129350000D01*
X139902560Y-129350000D01*
X139902560Y-133250000D01*
X139951843Y-133497765D01*
X140092191Y-133707809D01*
X140302235Y-133848157D01*
X140550000Y-133897440D01*
X142350000Y-133897440D01*
X142597765Y-133848157D01*
X142807809Y-133707809D01*
X142948157Y-133497765D01*
X142997440Y-133250000D01*
X142997440Y-129350000D01*
X147002560Y-129350000D01*
X147002560Y-133250000D01*
X147051843Y-133497765D01*
X147192191Y-133707809D01*
X147402235Y-133848157D01*
X147650000Y-133897440D01*
X149450000Y-133897440D01*
X149697765Y-133848157D01*
X149907809Y-133707809D01*
X150048157Y-133497765D01*
X150097440Y-133250000D01*
X150097440Y-129350000D01*
X150048157Y-129102235D01*
X149907809Y-128892191D01*
X149697765Y-128751843D01*
X149450000Y-128702560D01*
X147650000Y-128702560D01*
X147402235Y-128751843D01*
X147192191Y-128892191D01*
X147051843Y-129102235D01*
X147002560Y-129350000D01*
X142997440Y-129350000D01*
X142948157Y-129102235D01*
X142807809Y-128892191D01*
X142597765Y-128751843D01*
X142350000Y-128702560D01*
X140550000Y-128702560D01*
X140302235Y-128751843D01*
X140092191Y-128892191D01*
X139951843Y-129102235D01*
X139902560Y-129350000D01*
X132607433Y-129350000D01*
X132000500Y-128743068D01*
X132000500Y-128668697D01*
X132145000Y-128697440D01*
X132745000Y-128697440D01*
X132992765Y-128648157D01*
X133202809Y-128507809D01*
X133229068Y-128468510D01*
X133247097Y-128495492D01*
X133165000Y-128693691D01*
X133165000Y-129094250D01*
X133323750Y-129253000D01*
X134373000Y-129253000D01*
X134373000Y-129233000D01*
X134627000Y-129233000D01*
X134627000Y-129253000D01*
X135676250Y-129253000D01*
X135835000Y-129094250D01*
X135835000Y-128693691D01*
X135752903Y-128495492D01*
X135798157Y-128427765D01*
X135847440Y-128180000D01*
X135847440Y-127060000D01*
X135798157Y-126812235D01*
X135657809Y-126602191D01*
X135447765Y-126461843D01*
X135325500Y-126437523D01*
X135325500Y-126318499D01*
X135427765Y-126298157D01*
X135495492Y-126252903D01*
X135693691Y-126335000D01*
X136094250Y-126335000D01*
X136253000Y-126176250D01*
X136253000Y-125127000D01*
X136507000Y-125127000D01*
X136507000Y-126176250D01*
X136665750Y-126335000D01*
X137066309Y-126335000D01*
X137299698Y-126238327D01*
X137478327Y-126059699D01*
X137575000Y-125826310D01*
X137575000Y-125285750D01*
X137416250Y-125127000D01*
X136507000Y-125127000D01*
X136253000Y-125127000D01*
X136233000Y-125127000D01*
X136233000Y-124873000D01*
X136253000Y-124873000D01*
X136253000Y-123823750D01*
X136507000Y-123823750D01*
X136507000Y-124873000D01*
X137416250Y-124873000D01*
X137575000Y-124714250D01*
X137575000Y-124285750D01*
X142465000Y-124285750D01*
X142465000Y-126876310D01*
X142561673Y-127109699D01*
X142740302Y-127288327D01*
X142973691Y-127385000D01*
X143464250Y-127385000D01*
X143623000Y-127226250D01*
X143623000Y-124127000D01*
X142623750Y-124127000D01*
X142465000Y-124285750D01*
X137575000Y-124285750D01*
X137575000Y-124173690D01*
X137478327Y-123940301D01*
X137299698Y-123761673D01*
X137066309Y-123665000D01*
X136665750Y-123665000D01*
X136507000Y-123823750D01*
X136253000Y-123823750D01*
X136094250Y-123665000D01*
X135693691Y-123665000D01*
X135690532Y-123666309D01*
X135780841Y-123576000D01*
X139669937Y-123576000D01*
X139770000Y-123595904D01*
X139870063Y-123576000D01*
X139870065Y-123576000D01*
X140166423Y-123517051D01*
X140502495Y-123292495D01*
X140559180Y-123207660D01*
X142465000Y-121301841D01*
X142465000Y-123714250D01*
X142623750Y-123873000D01*
X143623000Y-123873000D01*
X143623000Y-123853000D01*
X143877000Y-123853000D01*
X143877000Y-123873000D01*
X143897000Y-123873000D01*
X143897000Y-124127000D01*
X143877000Y-124127000D01*
X143877000Y-127226250D01*
X144035750Y-127385000D01*
X144526309Y-127385000D01*
X144759698Y-127288327D01*
X144938327Y-127109699D01*
X144996279Y-126969791D01*
X145001843Y-126997765D01*
X145142191Y-127207809D01*
X145352235Y-127348157D01*
X145600000Y-127397440D01*
X146900000Y-127397440D01*
X147147765Y-127348157D01*
X147357809Y-127207809D01*
X147498157Y-126997765D01*
X147547440Y-126750000D01*
X147547440Y-121250000D01*
X147498157Y-121002235D01*
X147357809Y-120792191D01*
X147266000Y-120730846D01*
X147266000Y-120588063D01*
X147285904Y-120487999D01*
X147266000Y-120387935D01*
X147207051Y-120091577D01*
X147204258Y-120087396D01*
X147164507Y-120027906D01*
X146982495Y-119755505D01*
X146897660Y-119698820D01*
X146331180Y-119132340D01*
X146274495Y-119047505D01*
X145938423Y-118822949D01*
X145642065Y-118764000D01*
X145642063Y-118764000D01*
X145542000Y-118744096D01*
X145441937Y-118764000D01*
X142650064Y-118764000D01*
X142550000Y-118744096D01*
X142449936Y-118764000D01*
X142449935Y-118764000D01*
X142153577Y-118822949D01*
X141817505Y-119047505D01*
X141760822Y-119132337D01*
X139349160Y-121544000D01*
X135460063Y-121544000D01*
X135359999Y-121524096D01*
X135259936Y-121544000D01*
X135259935Y-121544000D01*
X134963577Y-121602949D01*
X134627505Y-121827505D01*
X134570822Y-121912337D01*
X134073022Y-122410138D01*
X133837505Y-122567505D01*
X133780822Y-122652337D01*
X133392440Y-123040719D01*
X133392440Y-121950000D01*
X133343157Y-121702235D01*
X133202809Y-121492191D01*
X132992765Y-121351843D01*
X132745000Y-121302560D01*
X132145000Y-121302560D01*
X131897235Y-121351843D01*
X131810000Y-121410132D01*
X131722765Y-121351843D01*
X131475000Y-121302560D01*
X130875000Y-121302560D01*
X130627235Y-121351843D01*
X130540000Y-121410132D01*
X130452765Y-121351843D01*
X130205000Y-121302560D01*
X129605000Y-121302560D01*
X129357235Y-121351843D01*
X129270000Y-121410132D01*
X129182765Y-121351843D01*
X128935000Y-121302560D01*
X128335000Y-121302560D01*
X128087235Y-121351843D01*
X128000000Y-121410132D01*
X127912765Y-121351843D01*
X127665000Y-121302560D01*
X127065000Y-121302560D01*
X126817235Y-121351843D01*
X126730000Y-121410132D01*
X126642765Y-121351843D01*
X126395000Y-121302560D01*
X125795000Y-121302560D01*
X125650500Y-121331303D01*
X125650500Y-120946303D01*
X125666672Y-120865000D01*
X125635425Y-120707907D01*
X125602604Y-120542906D01*
X125420152Y-120269848D01*
X125351226Y-120223793D01*
X123824872Y-118697440D01*
X123855000Y-118697440D01*
X124102765Y-118648157D01*
X124190000Y-118589868D01*
X124277235Y-118648157D01*
X124525000Y-118697440D01*
X125125000Y-118697440D01*
X125372765Y-118648157D01*
X125460000Y-118589868D01*
X125547235Y-118648157D01*
X125795000Y-118697440D01*
X126395000Y-118697440D01*
X126642765Y-118648157D01*
X126730000Y-118589868D01*
X126817235Y-118648157D01*
X127065000Y-118697440D01*
X127665000Y-118697440D01*
X127912765Y-118648157D01*
X128000000Y-118589868D01*
X128087235Y-118648157D01*
X128335000Y-118697440D01*
X128935000Y-118697440D01*
X129182765Y-118648157D01*
X129270000Y-118589868D01*
X129357235Y-118648157D01*
X129605000Y-118697440D01*
X130205000Y-118697440D01*
X130452765Y-118648157D01*
X130540000Y-118589868D01*
X130627235Y-118648157D01*
X130875000Y-118697440D01*
X131475000Y-118697440D01*
X131722765Y-118648157D01*
X131801972Y-118595232D01*
X132018690Y-118685000D01*
X132159250Y-118685000D01*
X132318000Y-118526250D01*
X132318000Y-117427000D01*
X132572000Y-117427000D01*
X132572000Y-118526250D01*
X132730750Y-118685000D01*
X132871310Y-118685000D01*
X133104699Y-118588327D01*
X133283327Y-118409698D01*
X133380000Y-118176309D01*
X133380000Y-117585750D01*
X133221250Y-117427000D01*
X132572000Y-117427000D01*
X132318000Y-117427000D01*
X132298000Y-117427000D01*
X132298000Y-117173000D01*
X132318000Y-117173000D01*
X132318000Y-117153000D01*
X132572000Y-117153000D01*
X132572000Y-117173000D01*
X133221250Y-117173000D01*
X133380000Y-117014250D01*
X133380000Y-116423691D01*
X133297699Y-116225000D01*
X133565929Y-116225000D01*
X133927958Y-116075042D01*
X134205042Y-115797958D01*
X134355000Y-115435929D01*
X134355000Y-115044071D01*
X134205042Y-114682042D01*
X134195500Y-114672500D01*
X134195500Y-113401301D01*
X134211672Y-113320000D01*
X134187470Y-113198328D01*
X134147604Y-112997906D01*
X133965152Y-112724848D01*
X133896223Y-112678791D01*
X133651209Y-112433777D01*
X133605152Y-112364848D01*
X133332094Y-112182396D01*
X133097440Y-112135721D01*
X133097440Y-111700000D01*
X133048157Y-111452235D01*
X133025500Y-111418327D01*
X133025500Y-109061297D01*
X133041671Y-108979999D01*
X133025500Y-108898701D01*
X133025500Y-108898697D01*
X132977604Y-108657906D01*
X132909733Y-108556331D01*
X132841206Y-108453772D01*
X132841205Y-108453771D01*
X132795152Y-108384848D01*
X132726228Y-108338795D01*
X132252933Y-107865500D01*
X141192500Y-107865500D01*
X141202042Y-107875042D01*
X141564071Y-108025000D01*
X141955929Y-108025000D01*
X142317958Y-107875042D01*
X142595042Y-107597958D01*
X142745000Y-107235929D01*
X142745000Y-106844071D01*
X142595042Y-106482042D01*
X142317958Y-106204958D01*
X141956970Y-106055431D01*
X153765000Y-106055431D01*
X153765000Y-106944569D01*
X154105259Y-107766026D01*
X154733974Y-108394741D01*
X155555431Y-108735000D01*
X156444569Y-108735000D01*
X157266026Y-108394741D01*
X157894741Y-107766026D01*
X158235000Y-106944569D01*
X158235000Y-106055431D01*
X157894741Y-105233974D01*
X157266026Y-104605259D01*
X156444569Y-104265000D01*
X155555431Y-104265000D01*
X154733974Y-104605259D01*
X154105259Y-105233974D01*
X153765000Y-106055431D01*
X141956970Y-106055431D01*
X141955929Y-106055000D01*
X141564071Y-106055000D01*
X141202042Y-106204958D01*
X141192500Y-106214500D01*
X108681301Y-106214500D01*
X108600000Y-106198328D01*
X108518698Y-106214500D01*
X108518697Y-106214500D01*
X108277906Y-106262396D01*
X108004848Y-106444848D01*
X107958793Y-106513774D01*
X105788067Y-108684501D01*
X96671296Y-108684501D01*
X96589998Y-108668330D01*
X96508700Y-108684501D01*
X96508696Y-108684501D01*
X96267905Y-108732397D01*
X96054485Y-108875000D01*
X96044071Y-108875000D01*
X95814142Y-108970240D01*
X95535929Y-108855000D01*
X95144071Y-108855000D01*
X94782042Y-109004958D01*
X94772500Y-109014500D01*
X91681933Y-109014500D01*
X91102432Y-108435000D01*
X92414250Y-108435000D01*
X92573000Y-108276250D01*
X92573000Y-107127000D01*
X92827000Y-107127000D01*
X92827000Y-108276250D01*
X92985750Y-108435000D01*
X94576309Y-108435000D01*
X94809698Y-108338327D01*
X94988327Y-108159699D01*
X95085000Y-107926310D01*
X95085000Y-107285750D01*
X94926250Y-107127000D01*
X92827000Y-107127000D01*
X92573000Y-107127000D01*
X92553000Y-107127000D01*
X92553000Y-106873000D01*
X92573000Y-106873000D01*
X92573000Y-105723750D01*
X92827000Y-105723750D01*
X92827000Y-106873000D01*
X94926250Y-106873000D01*
X95085000Y-106714250D01*
X95085000Y-106073690D01*
X94988327Y-105840301D01*
X94809698Y-105661673D01*
X94576309Y-105565000D01*
X92985750Y-105565000D01*
X92827000Y-105723750D01*
X92573000Y-105723750D01*
X92414250Y-105565000D01*
X90823691Y-105565000D01*
X90728507Y-105604427D01*
X90595152Y-105404848D01*
X90526226Y-105358793D01*
X89521209Y-104353777D01*
X89475152Y-104284848D01*
X89202094Y-104102396D01*
X88961303Y-104054500D01*
X88961301Y-104054500D01*
X88880000Y-104038328D01*
X88798699Y-104054500D01*
X84387500Y-104054500D01*
X84377958Y-104044958D01*
X84015929Y-103895000D01*
X83624071Y-103895000D01*
X83262042Y-104044958D01*
X82984958Y-104322042D01*
X82835000Y-104684071D01*
X82835000Y-105075929D01*
X82984958Y-105437958D01*
X83262042Y-105715042D01*
X83624071Y-105865000D01*
X84015929Y-105865000D01*
X84377958Y-105715042D01*
X84387500Y-105705500D01*
X85147103Y-105705500D01*
X85092191Y-105742191D01*
X84951843Y-105952235D01*
X84945525Y-105984000D01*
X84888063Y-105984000D01*
X84787999Y-105964096D01*
X84687935Y-105984000D01*
X84391577Y-106042949D01*
X84391576Y-106042950D01*
X84391575Y-106042950D01*
X84373541Y-106055000D01*
X84055505Y-106267505D01*
X83998822Y-106352337D01*
X82507160Y-107844000D01*
X77247440Y-107844000D01*
X77247440Y-107827440D01*
X78150000Y-107827440D01*
X78397765Y-107778157D01*
X78607809Y-107637809D01*
X78748157Y-107427765D01*
X78797440Y-107180000D01*
X78797440Y-106380000D01*
X78748157Y-106132235D01*
X78607809Y-105922191D01*
X78397765Y-105781843D01*
X78150000Y-105732560D01*
X77150000Y-105732560D01*
X76902235Y-105781843D01*
X76692191Y-105922191D01*
X76616280Y-106035798D01*
X76600000Y-106032560D01*
X76524218Y-106032560D01*
X76585000Y-105885820D01*
X76585000Y-105454180D01*
X76419818Y-105055397D01*
X76114603Y-104750182D01*
X75715820Y-104585000D01*
X75284180Y-104585000D01*
X74885397Y-104750182D01*
X74580182Y-105055397D01*
X74415000Y-105454180D01*
X74415000Y-105885820D01*
X74475782Y-106032560D01*
X74400000Y-106032560D01*
X74152235Y-106081843D01*
X73942191Y-106222191D01*
X73801843Y-106432235D01*
X73752560Y-106680000D01*
X73752560Y-107236632D01*
X73734001Y-107329935D01*
X73734000Y-108259936D01*
X73714096Y-108360000D01*
X73734000Y-108460063D01*
X73734000Y-108460064D01*
X73792949Y-108756422D01*
X74017505Y-109092495D01*
X74102340Y-109149180D01*
X74460820Y-109507660D01*
X74517505Y-109592495D01*
X74853577Y-109817051D01*
X75149935Y-109876000D01*
X75149936Y-109876000D01*
X75250000Y-109895904D01*
X75350064Y-109876000D01*
X76277159Y-109876000D01*
X74792609Y-111360551D01*
X74647506Y-111457506D01*
X74422950Y-111793577D01*
X74344096Y-112190000D01*
X74374000Y-112340337D01*
X74374001Y-127859932D01*
X74354096Y-127960000D01*
X74432950Y-128356423D01*
X74596584Y-128601318D01*
X74657506Y-128692495D01*
X74742338Y-128749178D01*
X77660822Y-131667663D01*
X77717505Y-131752495D01*
X78053577Y-131977051D01*
X78349935Y-132036000D01*
X78349936Y-132036000D01*
X78450000Y-132055904D01*
X78550064Y-132036000D01*
X82119937Y-132036000D01*
X82220000Y-132055904D01*
X82320063Y-132036000D01*
X82320065Y-132036000D01*
X82616423Y-131977051D01*
X82952495Y-131752495D01*
X83009180Y-131667661D01*
X83891090Y-130785750D01*
X84425000Y-130785750D01*
X84425000Y-131326310D01*
X84521673Y-131559699D01*
X84700302Y-131738327D01*
X84933691Y-131835000D01*
X85334250Y-131835000D01*
X85493000Y-131676250D01*
X85493000Y-130627000D01*
X84583750Y-130627000D01*
X84425000Y-130785750D01*
X83891090Y-130785750D01*
X84443795Y-130233045D01*
X84583750Y-130373000D01*
X85493000Y-130373000D01*
X85493000Y-130353000D01*
X85747000Y-130353000D01*
X85747000Y-130373000D01*
X85767000Y-130373000D01*
X85767000Y-130627000D01*
X85747000Y-130627000D01*
X85747000Y-131676250D01*
X85905750Y-131835000D01*
X86306309Y-131835000D01*
X86504508Y-131752903D01*
X86572235Y-131798157D01*
X86820000Y-131847440D01*
X87644929Y-131847440D01*
X80464251Y-139028119D01*
X80400630Y-139070629D01*
X80358119Y-139134251D01*
X80358118Y-139134252D01*
X80232213Y-139322683D01*
X80173073Y-139620000D01*
X80188001Y-139695048D01*
X80188000Y-143694957D01*
X80173073Y-143770000D01*
X80188000Y-143845043D01*
X80188000Y-143845047D01*
X80232212Y-144067316D01*
X80400629Y-144319371D01*
X80464254Y-144361884D01*
X80768116Y-144665746D01*
X80810629Y-144729371D01*
X81062683Y-144897788D01*
X81284952Y-144942000D01*
X81284953Y-144942000D01*
X81360000Y-144956928D01*
X81435047Y-144942000D01*
X82814957Y-144942000D01*
X82890000Y-144956927D01*
X82965043Y-144942000D01*
X82965048Y-144942000D01*
X83187317Y-144897788D01*
X83439371Y-144729371D01*
X83481883Y-144665747D01*
X86135631Y-142012000D01*
X86619838Y-142012000D01*
X86646843Y-142147765D01*
X86787191Y-142357809D01*
X86997235Y-142498157D01*
X87245000Y-142547440D01*
X88795000Y-142547440D01*
X89042765Y-142498157D01*
X89252809Y-142357809D01*
X89393157Y-142147765D01*
X89407531Y-142075500D01*
X94592469Y-142075500D01*
X94606843Y-142147765D01*
X94747191Y-142357809D01*
X94957235Y-142498157D01*
X95205000Y-142547440D01*
X96593623Y-142547440D01*
X96622396Y-142692093D01*
X96804848Y-142965152D01*
X96873777Y-143011209D01*
X98438793Y-144576226D01*
X98484848Y-144645152D01*
X98553773Y-144691206D01*
X98692502Y-144783902D01*
X98646843Y-144852235D01*
X98645797Y-144857494D01*
X98325929Y-144725000D01*
X97934071Y-144725000D01*
X97572042Y-144874958D01*
X97390000Y-145057000D01*
X97390000Y-144973690D01*
X97293327Y-144740301D01*
X97114698Y-144561673D01*
X96881309Y-144465000D01*
X96265750Y-144465000D01*
X96107000Y-144623750D01*
X96107000Y-145623000D01*
X96127000Y-145623000D01*
X96127000Y-145877000D01*
X96107000Y-145877000D01*
X96107000Y-145897000D01*
X95853000Y-145897000D01*
X95853000Y-145877000D01*
X94728750Y-145877000D01*
X94570000Y-146035750D01*
X94570000Y-146526310D01*
X94666673Y-146759699D01*
X94671974Y-146765000D01*
X89328026Y-146765000D01*
X89333327Y-146759699D01*
X89430000Y-146526310D01*
X89430000Y-146035750D01*
X89271250Y-145877000D01*
X88147000Y-145877000D01*
X88147000Y-145897000D01*
X87893000Y-145897000D01*
X87893000Y-145877000D01*
X86768750Y-145877000D01*
X86610000Y-146035750D01*
X86610000Y-146526310D01*
X86706673Y-146759699D01*
X86711974Y-146765000D01*
X63042702Y-146765000D01*
X62480082Y-146699405D01*
X61988056Y-146520809D01*
X61550311Y-146233810D01*
X61190330Y-145853807D01*
X60927424Y-145401180D01*
X60772780Y-144890584D01*
X60735000Y-144467269D01*
X60735000Y-143055431D01*
X61765000Y-143055431D01*
X61765000Y-143944569D01*
X62105259Y-144766026D01*
X62733974Y-145394741D01*
X63555431Y-145735000D01*
X64444569Y-145735000D01*
X65266026Y-145394741D01*
X65687077Y-144973690D01*
X86610000Y-144973690D01*
X86610000Y-145464250D01*
X86768750Y-145623000D01*
X87893000Y-145623000D01*
X87893000Y-144623750D01*
X88147000Y-144623750D01*
X88147000Y-145623000D01*
X89271250Y-145623000D01*
X89430000Y-145464250D01*
X89430000Y-144973690D01*
X94570000Y-144973690D01*
X94570000Y-145464250D01*
X94728750Y-145623000D01*
X95853000Y-145623000D01*
X95853000Y-144623750D01*
X95694250Y-144465000D01*
X95078691Y-144465000D01*
X94845302Y-144561673D01*
X94666673Y-144740301D01*
X94570000Y-144973690D01*
X89430000Y-144973690D01*
X89333327Y-144740301D01*
X89154698Y-144561673D01*
X88921309Y-144465000D01*
X88305750Y-144465000D01*
X88147000Y-144623750D01*
X87893000Y-144623750D01*
X87734250Y-144465000D01*
X87118691Y-144465000D01*
X86885302Y-144561673D01*
X86706673Y-144740301D01*
X86610000Y-144973690D01*
X65687077Y-144973690D01*
X65894741Y-144766026D01*
X66235000Y-143944569D01*
X66235000Y-143055431D01*
X65894741Y-142233974D01*
X65266026Y-141605259D01*
X64708283Y-141374234D01*
X67665000Y-141374234D01*
X67665000Y-141825766D01*
X67837793Y-142242926D01*
X68157074Y-142562207D01*
X68574234Y-142735000D01*
X69025766Y-142735000D01*
X69110000Y-142700109D01*
X69110000Y-143076309D01*
X69206673Y-143309698D01*
X69385301Y-143488327D01*
X69618690Y-143585000D01*
X71214250Y-143585000D01*
X71373000Y-143426250D01*
X71373000Y-141807000D01*
X71627000Y-141807000D01*
X71627000Y-143426250D01*
X71785750Y-143585000D01*
X73381310Y-143585000D01*
X73614699Y-143488327D01*
X73793327Y-143309698D01*
X73890000Y-143076309D01*
X73890000Y-141965750D01*
X73731250Y-141807000D01*
X71627000Y-141807000D01*
X71373000Y-141807000D01*
X71353000Y-141807000D01*
X71353000Y-141553000D01*
X71373000Y-141553000D01*
X71373000Y-139933750D01*
X71627000Y-139933750D01*
X71627000Y-141553000D01*
X73731250Y-141553000D01*
X73890000Y-141394250D01*
X73890000Y-140283691D01*
X73793327Y-140050302D01*
X73614699Y-139871673D01*
X73381310Y-139775000D01*
X71785750Y-139775000D01*
X71627000Y-139933750D01*
X71373000Y-139933750D01*
X71214250Y-139775000D01*
X69618690Y-139775000D01*
X69385301Y-139871673D01*
X69206673Y-140050302D01*
X69110000Y-140283691D01*
X69110000Y-140499891D01*
X69025766Y-140465000D01*
X68574234Y-140465000D01*
X68157074Y-140637793D01*
X67837793Y-140957074D01*
X67665000Y-141374234D01*
X64708283Y-141374234D01*
X64444569Y-141265000D01*
X63555431Y-141265000D01*
X62733974Y-141605259D01*
X62105259Y-142233974D01*
X61765000Y-143055431D01*
X60735000Y-143055431D01*
X60735000Y-111050000D01*
X69097560Y-111050000D01*
X69097560Y-113590000D01*
X69146843Y-113837765D01*
X69287191Y-114047809D01*
X69497235Y-114188157D01*
X69745000Y-114237440D01*
X73255000Y-114237440D01*
X73502765Y-114188157D01*
X73712809Y-114047809D01*
X73853157Y-113837765D01*
X73902440Y-113590000D01*
X73902440Y-111050000D01*
X73853157Y-110802235D01*
X73712809Y-110592191D01*
X73502765Y-110451843D01*
X73255000Y-110402560D01*
X72516000Y-110402560D01*
X72516000Y-109972351D01*
X72707051Y-109686423D01*
X72766000Y-109390065D01*
X72766000Y-109390064D01*
X72785904Y-109290001D01*
X72766000Y-109189937D01*
X72766000Y-107329935D01*
X72747440Y-107236627D01*
X72747440Y-106741903D01*
X73114603Y-106589818D01*
X73419818Y-106284603D01*
X73585000Y-105885820D01*
X73585000Y-105454180D01*
X73419818Y-105055397D01*
X73114603Y-104750182D01*
X72715820Y-104585000D01*
X72284180Y-104585000D01*
X71885397Y-104750182D01*
X71580182Y-105055397D01*
X71415000Y-105454180D01*
X71415000Y-105885820D01*
X71475782Y-106032560D01*
X71400000Y-106032560D01*
X71383720Y-106035798D01*
X71307809Y-105922191D01*
X71097765Y-105781843D01*
X70850000Y-105732560D01*
X69850000Y-105732560D01*
X69602235Y-105781843D01*
X69392191Y-105922191D01*
X69251843Y-106132235D01*
X69202560Y-106380000D01*
X69202560Y-107180000D01*
X69251843Y-107427765D01*
X69392191Y-107637809D01*
X69602235Y-107778157D01*
X69850000Y-107827440D01*
X70734001Y-107827440D01*
X70734000Y-108857650D01*
X70710823Y-108892337D01*
X70542950Y-109143577D01*
X70464096Y-109540000D01*
X70484001Y-109640068D01*
X70484001Y-110402560D01*
X69745000Y-110402560D01*
X69497235Y-110451843D01*
X69287191Y-110592191D01*
X69146843Y-110802235D01*
X69097560Y-111050000D01*
X60735000Y-111050000D01*
X60735000Y-106055431D01*
X61765000Y-106055431D01*
X61765000Y-106944569D01*
X62105259Y-107766026D01*
X62733974Y-108394741D01*
X63555431Y-108735000D01*
X64444569Y-108735000D01*
X65266026Y-108394741D01*
X65894741Y-107766026D01*
X66235000Y-106944569D01*
X66235000Y-106055431D01*
X65894741Y-105233974D01*
X65266026Y-104605259D01*
X64444569Y-104265000D01*
X63555431Y-104265000D01*
X62733974Y-104605259D01*
X62105259Y-105233974D01*
X61765000Y-106055431D01*
X60735000Y-106055431D01*
X60735000Y-105542702D01*
X60800594Y-104980082D01*
X60979191Y-104488056D01*
X61187718Y-104170000D01*
X69202560Y-104170000D01*
X69202560Y-104970000D01*
X69251843Y-105217765D01*
X69392191Y-105427809D01*
X69602235Y-105568157D01*
X69850000Y-105617440D01*
X70850000Y-105617440D01*
X71097765Y-105568157D01*
X71307809Y-105427809D01*
X71448157Y-105217765D01*
X71497440Y-104970000D01*
X71497440Y-104170000D01*
X76502560Y-104170000D01*
X76502560Y-104970000D01*
X76551843Y-105217765D01*
X76692191Y-105427809D01*
X76902235Y-105568157D01*
X77150000Y-105617440D01*
X78150000Y-105617440D01*
X78397765Y-105568157D01*
X78607809Y-105427809D01*
X78748157Y-105217765D01*
X78797440Y-104970000D01*
X78797440Y-104170000D01*
X78748157Y-103922235D01*
X78607809Y-103712191D01*
X78397765Y-103571843D01*
X78150000Y-103522560D01*
X77150000Y-103522560D01*
X76902235Y-103571843D01*
X76692191Y-103712191D01*
X76551843Y-103922235D01*
X76502560Y-104170000D01*
X71497440Y-104170000D01*
X71448157Y-103922235D01*
X71307809Y-103712191D01*
X71097765Y-103571843D01*
X70850000Y-103522560D01*
X69850000Y-103522560D01*
X69602235Y-103571843D01*
X69392191Y-103712191D01*
X69251843Y-103922235D01*
X69202560Y-104170000D01*
X61187718Y-104170000D01*
X61266192Y-104050308D01*
X61646190Y-103690332D01*
X62098821Y-103427424D01*
X62609416Y-103272780D01*
X63032732Y-103235000D01*
X156957298Y-103235000D01*
X157519918Y-103300594D01*
G36*
X91649117Y-131335748D02*
X91691629Y-131399371D01*
X91755251Y-131441882D01*
X91943681Y-131567787D01*
X91943682Y-131567787D01*
X91943683Y-131567788D01*
X92165952Y-131612000D01*
X92165956Y-131612000D01*
X92240999Y-131626927D01*
X92316042Y-131612000D01*
X96485000Y-131612000D01*
X96485000Y-131725929D01*
X96546623Y-131874699D01*
X96305929Y-131775000D01*
X95914071Y-131775000D01*
X95552042Y-131924958D01*
X95274958Y-132202042D01*
X95125000Y-132564071D01*
X95125000Y-132955929D01*
X95274958Y-133317958D01*
X95552042Y-133595042D01*
X95914071Y-133745000D01*
X95927568Y-133745000D01*
X99167567Y-136985000D01*
X98783250Y-136985000D01*
X98624500Y-137143750D01*
X98624500Y-138193000D01*
X99621250Y-138193000D01*
X99780000Y-138034250D01*
X99780000Y-137597433D01*
X101271971Y-139089404D01*
X101318026Y-139158330D01*
X101591084Y-139340782D01*
X101831875Y-139388678D01*
X101831876Y-139388678D01*
X101913177Y-139404850D01*
X101994479Y-139388678D01*
X104485000Y-139388678D01*
X104485000Y-139675929D01*
X104634958Y-140037958D01*
X104912042Y-140315042D01*
X105176296Y-140424500D01*
X101407531Y-140424500D01*
X101393157Y-140352235D01*
X101252809Y-140142191D01*
X101042765Y-140001843D01*
X100795000Y-139952560D01*
X99245000Y-139952560D01*
X98997235Y-140001843D01*
X98787191Y-140142191D01*
X98646843Y-140352235D01*
X98597560Y-140600000D01*
X98597560Y-141900000D01*
X98646843Y-142147765D01*
X98787191Y-142357809D01*
X98997235Y-142498157D01*
X99245000Y-142547440D01*
X100795000Y-142547440D01*
X101042765Y-142498157D01*
X101252809Y-142357809D01*
X101393157Y-142147765D01*
X101407531Y-142075500D01*
X106592469Y-142075500D01*
X106606843Y-142147765D01*
X106747191Y-142357809D01*
X106957235Y-142498157D01*
X107143269Y-142535161D01*
X107138328Y-142560000D01*
X107154500Y-142641301D01*
X107154500Y-142641302D01*
X107202396Y-142882093D01*
X107384848Y-143155152D01*
X107453777Y-143201209D01*
X107477068Y-143224500D01*
X99421933Y-143224500D01*
X98225500Y-142028068D01*
X98225500Y-140401297D01*
X98241671Y-140319999D01*
X98225500Y-140238701D01*
X98225500Y-140238697D01*
X98177604Y-139997906D01*
X97995152Y-139724848D01*
X97926225Y-139678793D01*
X97902433Y-139655000D01*
X98211750Y-139655000D01*
X98370500Y-139496250D01*
X98370500Y-138447000D01*
X98624500Y-138447000D01*
X98624500Y-139496250D01*
X98783250Y-139655000D01*
X99271309Y-139655000D01*
X99504698Y-139558327D01*
X99683327Y-139379699D01*
X99780000Y-139146310D01*
X99780000Y-138605750D01*
X99621250Y-138447000D01*
X98624500Y-138447000D01*
X98370500Y-138447000D01*
X98350500Y-138447000D01*
X98350500Y-138193000D01*
X98370500Y-138193000D01*
X98370500Y-137143750D01*
X98211750Y-136985000D01*
X97723691Y-136985000D01*
X97525492Y-137067097D01*
X97457765Y-137021843D01*
X97210000Y-136972560D01*
X95915000Y-136972560D01*
X95667235Y-137021843D01*
X95457191Y-137162191D01*
X95335759Y-137343925D01*
X95265929Y-137315000D01*
X94874071Y-137315000D01*
X94512042Y-137464958D01*
X94312216Y-137664784D01*
X91485500Y-134838068D01*
X91485500Y-131172131D01*
X91649117Y-131335748D01*
X91649117Y-131335748D01*
G37*
X91649117Y-131335748D02*
X91691629Y-131399371D01*
X91755251Y-131441882D01*
X91943681Y-131567787D01*
X91943682Y-131567787D01*
X91943683Y-131567788D01*
X92165952Y-131612000D01*
X92165956Y-131612000D01*
X92240999Y-131626927D01*
X92316042Y-131612000D01*
X96485000Y-131612000D01*
X96485000Y-131725929D01*
X96546623Y-131874699D01*
X96305929Y-131775000D01*
X95914071Y-131775000D01*
X95552042Y-131924958D01*
X95274958Y-132202042D01*
X95125000Y-132564071D01*
X95125000Y-132955929D01*
X95274958Y-133317958D01*
X95552042Y-133595042D01*
X95914071Y-133745000D01*
X95927568Y-133745000D01*
X99167567Y-136985000D01*
X98783250Y-136985000D01*
X98624500Y-137143750D01*
X98624500Y-138193000D01*
X99621250Y-138193000D01*
X99780000Y-138034250D01*
X99780000Y-137597433D01*
X101271971Y-139089404D01*
X101318026Y-139158330D01*
X101591084Y-139340782D01*
X101831875Y-139388678D01*
X101831876Y-139388678D01*
X101913177Y-139404850D01*
X101994479Y-139388678D01*
X104485000Y-139388678D01*
X104485000Y-139675929D01*
X104634958Y-140037958D01*
X104912042Y-140315042D01*
X105176296Y-140424500D01*
X101407531Y-140424500D01*
X101393157Y-140352235D01*
X101252809Y-140142191D01*
X101042765Y-140001843D01*
X100795000Y-139952560D01*
X99245000Y-139952560D01*
X98997235Y-140001843D01*
X98787191Y-140142191D01*
X98646843Y-140352235D01*
X98597560Y-140600000D01*
X98597560Y-141900000D01*
X98646843Y-142147765D01*
X98787191Y-142357809D01*
X98997235Y-142498157D01*
X99245000Y-142547440D01*
X100795000Y-142547440D01*
X101042765Y-142498157D01*
X101252809Y-142357809D01*
X101393157Y-142147765D01*
X101407531Y-142075500D01*
X106592469Y-142075500D01*
X106606843Y-142147765D01*
X106747191Y-142357809D01*
X106957235Y-142498157D01*
X107143269Y-142535161D01*
X107138328Y-142560000D01*
X107154500Y-142641301D01*
X107154500Y-142641302D01*
X107202396Y-142882093D01*
X107384848Y-143155152D01*
X107453777Y-143201209D01*
X107477068Y-143224500D01*
X99421933Y-143224500D01*
X98225500Y-142028068D01*
X98225500Y-140401297D01*
X98241671Y-140319999D01*
X98225500Y-140238701D01*
X98225500Y-140238697D01*
X98177604Y-139997906D01*
X97995152Y-139724848D01*
X97926225Y-139678793D01*
X97902433Y-139655000D01*
X98211750Y-139655000D01*
X98370500Y-139496250D01*
X98370500Y-138447000D01*
X98624500Y-138447000D01*
X98624500Y-139496250D01*
X98783250Y-139655000D01*
X99271309Y-139655000D01*
X99504698Y-139558327D01*
X99683327Y-139379699D01*
X99780000Y-139146310D01*
X99780000Y-138605750D01*
X99621250Y-138447000D01*
X98624500Y-138447000D01*
X98370500Y-138447000D01*
X98350500Y-138447000D01*
X98350500Y-138193000D01*
X98370500Y-138193000D01*
X98370500Y-137143750D01*
X98211750Y-136985000D01*
X97723691Y-136985000D01*
X97525492Y-137067097D01*
X97457765Y-137021843D01*
X97210000Y-136972560D01*
X95915000Y-136972560D01*
X95667235Y-137021843D01*
X95457191Y-137162191D01*
X95335759Y-137343925D01*
X95265929Y-137315000D01*
X94874071Y-137315000D01*
X94512042Y-137464958D01*
X94312216Y-137664784D01*
X91485500Y-134838068D01*
X91485500Y-131172131D01*
X91649117Y-131335748D01*
G36*
X88524501Y-135388066D02*
X81747568Y-142165000D01*
X81734071Y-142165000D01*
X81712000Y-142174142D01*
X81712000Y-139935630D01*
X88524501Y-133123130D01*
X88524501Y-135388066D01*
X88524501Y-135388066D01*
G37*
X88524501Y-135388066D02*
X81747568Y-142165000D01*
X81734071Y-142165000D01*
X81712000Y-142174142D01*
X81712000Y-139935630D01*
X88524501Y-133123130D01*
X88524501Y-135388066D01*
G36*
X94630058Y-140317491D02*
X94606843Y-140352235D01*
X94592469Y-140424500D01*
X89407531Y-140424500D01*
X89393157Y-140352235D01*
X89252809Y-140142191D01*
X89042765Y-140001843D01*
X88795000Y-139952560D01*
X87245000Y-139952560D01*
X86997235Y-140001843D01*
X86787191Y-140142191D01*
X86646843Y-140352235D01*
X86619838Y-140488000D01*
X85895047Y-140488000D01*
X85820000Y-140473072D01*
X85763028Y-140484405D01*
X89876226Y-136371207D01*
X89945152Y-136325152D01*
X90127604Y-136052094D01*
X90166934Y-135854366D01*
X94630058Y-140317491D01*
X94630058Y-140317491D01*
G37*
X94630058Y-140317491D02*
X94606843Y-140352235D01*
X94592469Y-140424500D01*
X89407531Y-140424500D01*
X89393157Y-140352235D01*
X89252809Y-140142191D01*
X89042765Y-140001843D01*
X88795000Y-139952560D01*
X87245000Y-139952560D01*
X86997235Y-140001843D01*
X86787191Y-140142191D01*
X86646843Y-140352235D01*
X86619838Y-140488000D01*
X85895047Y-140488000D01*
X85820000Y-140473072D01*
X85763028Y-140484405D01*
X89876226Y-136371207D01*
X89945152Y-136325152D01*
X90127604Y-136052094D01*
X90166934Y-135854366D01*
X94630058Y-140317491D01*
G36*
X121273767Y-137506226D02*
X121319822Y-137575152D01*
X121563059Y-137737678D01*
X115579952Y-137737678D01*
X116384441Y-136933190D01*
X116717958Y-136795042D01*
X116995042Y-136517958D01*
X117145000Y-136155929D01*
X117145000Y-135764071D01*
X116995042Y-135402042D01*
X116840315Y-135247315D01*
X117135746Y-134951884D01*
X117199371Y-134909371D01*
X117344349Y-134692396D01*
X117367787Y-134657319D01*
X117367787Y-134657318D01*
X117367788Y-134657317D01*
X117412000Y-134435048D01*
X117412000Y-134435044D01*
X117426927Y-134360001D01*
X117412000Y-134284958D01*
X117412000Y-133811000D01*
X117485042Y-133737958D01*
X117491034Y-133723492D01*
X121273767Y-137506226D01*
X121273767Y-137506226D01*
G37*
X121273767Y-137506226D02*
X121319822Y-137575152D01*
X121563059Y-137737678D01*
X115579952Y-137737678D01*
X116384441Y-136933190D01*
X116717958Y-136795042D01*
X116995042Y-136517958D01*
X117145000Y-136155929D01*
X117145000Y-135764071D01*
X116995042Y-135402042D01*
X116840315Y-135247315D01*
X117135746Y-134951884D01*
X117199371Y-134909371D01*
X117344349Y-134692396D01*
X117367787Y-134657319D01*
X117367787Y-134657318D01*
X117367788Y-134657317D01*
X117412000Y-134435048D01*
X117412000Y-134435044D01*
X117426927Y-134360001D01*
X117412000Y-134284958D01*
X117412000Y-133811000D01*
X117485042Y-133737958D01*
X117491034Y-133723492D01*
X121273767Y-137506226D01*
G36*
X97274071Y-132515000D02*
X97377370Y-132515000D01*
X100034251Y-135171882D01*
X100034254Y-135171884D01*
X101438116Y-136575746D01*
X101480629Y-136639371D01*
X101677071Y-136770629D01*
X101732681Y-136807787D01*
X101732682Y-136807787D01*
X101732683Y-136807788D01*
X101954952Y-136852000D01*
X101954956Y-136852000D01*
X102029999Y-136866927D01*
X102105042Y-136852000D01*
X105265000Y-136852000D01*
X105265000Y-137034250D01*
X105423750Y-137193000D01*
X107348000Y-137193000D01*
X107348000Y-137173000D01*
X107602000Y-137173000D01*
X107602000Y-137193000D01*
X109526250Y-137193000D01*
X109685000Y-137034250D01*
X109685000Y-136852000D01*
X110302560Y-136852000D01*
X110302560Y-137737678D01*
X109685000Y-137737678D01*
X109685000Y-137605750D01*
X109526250Y-137447000D01*
X107602000Y-137447000D01*
X107602000Y-137467000D01*
X107348000Y-137467000D01*
X107348000Y-137447000D01*
X105423750Y-137447000D01*
X105265000Y-137605750D01*
X105265000Y-137737678D01*
X102255111Y-137737678D01*
X97095000Y-132577568D01*
X97095000Y-132564071D01*
X97033377Y-132415301D01*
X97274071Y-132515000D01*
X97274071Y-132515000D01*
G37*
X97274071Y-132515000D02*
X97377370Y-132515000D01*
X100034251Y-135171882D01*
X100034254Y-135171884D01*
X101438116Y-136575746D01*
X101480629Y-136639371D01*
X101677071Y-136770629D01*
X101732681Y-136807787D01*
X101732682Y-136807787D01*
X101732683Y-136807788D01*
X101954952Y-136852000D01*
X101954956Y-136852000D01*
X102029999Y-136866927D01*
X102105042Y-136852000D01*
X105265000Y-136852000D01*
X105265000Y-137034250D01*
X105423750Y-137193000D01*
X107348000Y-137193000D01*
X107348000Y-137173000D01*
X107602000Y-137173000D01*
X107602000Y-137193000D01*
X109526250Y-137193000D01*
X109685000Y-137034250D01*
X109685000Y-136852000D01*
X110302560Y-136852000D01*
X110302560Y-137737678D01*
X109685000Y-137737678D01*
X109685000Y-137605750D01*
X109526250Y-137447000D01*
X107602000Y-137447000D01*
X107602000Y-137467000D01*
X107348000Y-137467000D01*
X107348000Y-137447000D01*
X105423750Y-137447000D01*
X105265000Y-137605750D01*
X105265000Y-137737678D01*
X102255111Y-137737678D01*
X97095000Y-132577568D01*
X97095000Y-132564071D01*
X97033377Y-132415301D01*
X97274071Y-132515000D01*
G36*
X122620000Y-131823691D02*
X122620000Y-132414250D01*
X122778750Y-132573000D01*
X123428000Y-132573000D01*
X123428000Y-132553000D01*
X123682000Y-132553000D01*
X123682000Y-132573000D01*
X123702000Y-132573000D01*
X123702000Y-132827000D01*
X123682000Y-132827000D01*
X123682000Y-133926250D01*
X123721981Y-133966231D01*
X123273777Y-134414435D01*
X123204848Y-134460492D01*
X123022396Y-134733551D01*
X122978865Y-134952396D01*
X122958328Y-135055644D01*
X122974500Y-135136945D01*
X122974500Y-135418327D01*
X122951843Y-135452235D01*
X122902560Y-135700000D01*
X122902560Y-136154500D01*
X122256907Y-136154500D01*
X119088157Y-132985750D01*
X122620000Y-132985750D01*
X122620000Y-133576309D01*
X122716673Y-133809698D01*
X122895301Y-133988327D01*
X123128690Y-134085000D01*
X123269250Y-134085000D01*
X123428000Y-133926250D01*
X123428000Y-132827000D01*
X122778750Y-132827000D01*
X122620000Y-132985750D01*
X119088157Y-132985750D01*
X117714406Y-131612000D01*
X122707685Y-131612000D01*
X122620000Y-131823691D01*
X122620000Y-131823691D01*
G37*
X122620000Y-131823691D02*
X122620000Y-132414250D01*
X122778750Y-132573000D01*
X123428000Y-132573000D01*
X123428000Y-132553000D01*
X123682000Y-132553000D01*
X123682000Y-132573000D01*
X123702000Y-132573000D01*
X123702000Y-132827000D01*
X123682000Y-132827000D01*
X123682000Y-133926250D01*
X123721981Y-133966231D01*
X123273777Y-134414435D01*
X123204848Y-134460492D01*
X123022396Y-134733551D01*
X122978865Y-134952396D01*
X122958328Y-135055644D01*
X122974500Y-135136945D01*
X122974500Y-135418327D01*
X122951843Y-135452235D01*
X122902560Y-135700000D01*
X122902560Y-136154500D01*
X122256907Y-136154500D01*
X119088157Y-132985750D01*
X122620000Y-132985750D01*
X122620000Y-133576309D01*
X122716673Y-133809698D01*
X122895301Y-133988327D01*
X123128690Y-134085000D01*
X123269250Y-134085000D01*
X123428000Y-133926250D01*
X123428000Y-132827000D01*
X122778750Y-132827000D01*
X122620000Y-132985750D01*
X119088157Y-132985750D01*
X117714406Y-131612000D01*
X122707685Y-131612000D01*
X122620000Y-131823691D01*
G36*
X134394071Y-131985000D02*
X134397568Y-131985000D01*
X134564501Y-132151933D01*
X134564500Y-135008067D01*
X133428068Y-136144500D01*
X133097440Y-136144500D01*
X133097440Y-135700000D01*
X133079023Y-135607409D01*
X133896226Y-134790207D01*
X133965152Y-134744152D01*
X134079915Y-134572397D01*
X134147604Y-134471095D01*
X134211672Y-134149000D01*
X134195500Y-134067697D01*
X134195500Y-131902749D01*
X134394071Y-131985000D01*
X134394071Y-131985000D01*
G37*
X134394071Y-131985000D02*
X134397568Y-131985000D01*
X134564501Y-132151933D01*
X134564500Y-135008067D01*
X133428068Y-136144500D01*
X133097440Y-136144500D01*
X133097440Y-135700000D01*
X133079023Y-135607409D01*
X133896226Y-134790207D01*
X133965152Y-134744152D01*
X134079915Y-134572397D01*
X134147604Y-134471095D01*
X134211672Y-134149000D01*
X134195500Y-134067697D01*
X134195500Y-131902749D01*
X134394071Y-131985000D01*
G36*
X102705000Y-131815929D02*
X102854958Y-132177958D01*
X102954308Y-132277308D01*
X102972212Y-132367317D01*
X103140630Y-132619371D01*
X103204251Y-132661881D01*
X103964685Y-133422315D01*
X103694958Y-133692042D01*
X103545000Y-134054071D01*
X103545000Y-134445929D01*
X103694958Y-134807958D01*
X103972042Y-135085042D01*
X104334071Y-135235000D01*
X104437369Y-135235000D01*
X104468118Y-135265749D01*
X104509713Y-135328000D01*
X102345630Y-135328000D01*
X101111884Y-134094254D01*
X101111882Y-134094251D01*
X98629630Y-131612000D01*
X102705000Y-131612000D01*
X102705000Y-131815929D01*
X102705000Y-131815929D01*
G37*
X102705000Y-131815929D02*
X102854958Y-132177958D01*
X102954308Y-132277308D01*
X102972212Y-132367317D01*
X103140630Y-132619371D01*
X103204251Y-132661881D01*
X103964685Y-133422315D01*
X103694958Y-133692042D01*
X103545000Y-134054071D01*
X103545000Y-134445929D01*
X103694958Y-134807958D01*
X103972042Y-135085042D01*
X104334071Y-135235000D01*
X104437369Y-135235000D01*
X104468118Y-135265749D01*
X104509713Y-135328000D01*
X102345630Y-135328000D01*
X101111884Y-134094254D01*
X101111882Y-134094251D01*
X98629630Y-131612000D01*
X102705000Y-131612000D01*
X102705000Y-131815929D01*
G36*
X130579848Y-129680152D02*
X130648777Y-129726209D01*
X132225127Y-131302560D01*
X132145000Y-131302560D01*
X131897235Y-131351843D01*
X131810000Y-131410132D01*
X131722765Y-131351843D01*
X131475000Y-131302560D01*
X130875000Y-131302560D01*
X130627235Y-131351843D01*
X130540000Y-131410132D01*
X130452765Y-131351843D01*
X130205000Y-131302560D01*
X129605000Y-131302560D01*
X129357235Y-131351843D01*
X129270000Y-131410132D01*
X129182765Y-131351843D01*
X128935000Y-131302560D01*
X128825070Y-131302560D01*
X130526828Y-129600802D01*
X130579848Y-129680152D01*
X130579848Y-129680152D01*
G37*
X130579848Y-129680152D02*
X130648777Y-129726209D01*
X132225127Y-131302560D01*
X132145000Y-131302560D01*
X131897235Y-131351843D01*
X131810000Y-131410132D01*
X131722765Y-131351843D01*
X131475000Y-131302560D01*
X130875000Y-131302560D01*
X130627235Y-131351843D01*
X130540000Y-131410132D01*
X130452765Y-131351843D01*
X130205000Y-131302560D01*
X129605000Y-131302560D01*
X129357235Y-131351843D01*
X129270000Y-131410132D01*
X129182765Y-131351843D01*
X128935000Y-131302560D01*
X128825070Y-131302560D01*
X130526828Y-129600802D01*
X130579848Y-129680152D01*
G36*
X81405000Y-127472433D02*
X81405000Y-127485929D01*
X81554958Y-127847958D01*
X81832042Y-128125042D01*
X82194071Y-128275000D01*
X82585929Y-128275000D01*
X82947958Y-128125042D01*
X83106851Y-127966149D01*
X83104096Y-127980000D01*
X83124001Y-128080068D01*
X83124000Y-128679159D01*
X81799160Y-130004000D01*
X79319000Y-130004000D01*
X79565042Y-129757958D01*
X79715000Y-129395929D01*
X79715000Y-129004071D01*
X79565042Y-128642042D01*
X79287958Y-128364958D01*
X78925929Y-128215000D01*
X78912433Y-128215000D01*
X78135500Y-127438068D01*
X78135500Y-124202932D01*
X81405000Y-127472433D01*
X81405000Y-127472433D01*
G37*
X81405000Y-127472433D02*
X81405000Y-127485929D01*
X81554958Y-127847958D01*
X81832042Y-128125042D01*
X82194071Y-128275000D01*
X82585929Y-128275000D01*
X82947958Y-128125042D01*
X83106851Y-127966149D01*
X83104096Y-127980000D01*
X83124001Y-128080068D01*
X83124000Y-128679159D01*
X81799160Y-130004000D01*
X79319000Y-130004000D01*
X79565042Y-129757958D01*
X79715000Y-129395929D01*
X79715000Y-129004071D01*
X79565042Y-128642042D01*
X79287958Y-128364958D01*
X78925929Y-128215000D01*
X78912433Y-128215000D01*
X78135500Y-127438068D01*
X78135500Y-124202932D01*
X81405000Y-127472433D01*
G36*
X110908000Y-120195631D02*
X110908001Y-121875658D01*
X110870629Y-121900629D01*
X110702212Y-122152684D01*
X110658000Y-122374953D01*
X110658000Y-122374957D01*
X110643073Y-122450000D01*
X110658000Y-122525044D01*
X110658001Y-123484952D01*
X110643073Y-123560000D01*
X110702213Y-123857317D01*
X110821541Y-124035904D01*
X110870630Y-124109371D01*
X110934251Y-124151881D01*
X111277560Y-124495190D01*
X111277560Y-124665000D01*
X111326843Y-124912765D01*
X111385132Y-125000000D01*
X111326843Y-125087235D01*
X111277560Y-125335000D01*
X111277560Y-125935000D01*
X111326843Y-126182765D01*
X111379768Y-126261972D01*
X111290000Y-126478690D01*
X111290000Y-126619250D01*
X111448750Y-126778000D01*
X112573000Y-126778000D01*
X112573000Y-126758000D01*
X112827000Y-126758000D01*
X112827000Y-126778000D01*
X113951250Y-126778000D01*
X114110000Y-126619250D01*
X114110000Y-126563608D01*
X114234071Y-126615000D01*
X114625929Y-126615000D01*
X114987958Y-126465042D01*
X115265042Y-126187958D01*
X115415000Y-125825929D01*
X115415000Y-125434071D01*
X115265042Y-125072042D01*
X114987958Y-124794958D01*
X114625929Y-124645000D01*
X114234071Y-124645000D01*
X114116752Y-124693595D01*
X114122440Y-124665000D01*
X114122440Y-124065000D01*
X114081067Y-123857000D01*
X115268789Y-123857000D01*
X115286843Y-123947765D01*
X115427191Y-124157809D01*
X115637235Y-124298157D01*
X115770501Y-124324665D01*
X115770500Y-127321869D01*
X115647369Y-127445000D01*
X115544071Y-127445000D01*
X115182042Y-127594958D01*
X114904958Y-127872042D01*
X114755000Y-128234071D01*
X114755000Y-128388000D01*
X113585042Y-128388000D01*
X113509999Y-128373073D01*
X113434956Y-128388000D01*
X113434952Y-128388000D01*
X113212683Y-128432212D01*
X113212682Y-128432213D01*
X113212681Y-128432213D01*
X113024251Y-128558118D01*
X112960629Y-128600629D01*
X112918118Y-128664251D01*
X112075000Y-129507370D01*
X112075000Y-129285750D01*
X111916250Y-129127000D01*
X111007000Y-129127000D01*
X111007000Y-129147000D01*
X110753000Y-129147000D01*
X110753000Y-129127000D01*
X110733000Y-129127000D01*
X110733000Y-128873000D01*
X110753000Y-128873000D01*
X110753000Y-127823750D01*
X111007000Y-127823750D01*
X111007000Y-128873000D01*
X111916250Y-128873000D01*
X112075000Y-128714250D01*
X112075000Y-128173690D01*
X111978327Y-127940301D01*
X111878025Y-127840000D01*
X112414250Y-127840000D01*
X112573000Y-127681250D01*
X112573000Y-127032000D01*
X112827000Y-127032000D01*
X112827000Y-127681250D01*
X112985750Y-127840000D01*
X113601309Y-127840000D01*
X113834698Y-127743327D01*
X114013327Y-127564699D01*
X114110000Y-127331310D01*
X114110000Y-127190750D01*
X113951250Y-127032000D01*
X112827000Y-127032000D01*
X112573000Y-127032000D01*
X111448750Y-127032000D01*
X111290000Y-127190750D01*
X111290000Y-127331310D01*
X111386673Y-127564699D01*
X111486975Y-127665000D01*
X111165750Y-127665000D01*
X111007000Y-127823750D01*
X110753000Y-127823750D01*
X110594250Y-127665000D01*
X110193691Y-127665000D01*
X110105000Y-127701737D01*
X110105000Y-127594071D01*
X109955042Y-127232042D01*
X109945500Y-127222500D01*
X109945500Y-123801297D01*
X109961671Y-123719999D01*
X109945500Y-123638701D01*
X109945500Y-123638697D01*
X109897604Y-123397906D01*
X109769042Y-123205500D01*
X109761206Y-123193772D01*
X109761205Y-123193771D01*
X109715152Y-123124848D01*
X109646228Y-123078794D01*
X109136208Y-122568776D01*
X109090152Y-122499848D01*
X108843440Y-122335000D01*
X109094250Y-122335000D01*
X109253000Y-122176250D01*
X109253000Y-121127000D01*
X109507000Y-121127000D01*
X109507000Y-122176250D01*
X109665750Y-122335000D01*
X110066309Y-122335000D01*
X110299698Y-122238327D01*
X110478327Y-122059699D01*
X110575000Y-121826310D01*
X110575000Y-121285750D01*
X110416250Y-121127000D01*
X109507000Y-121127000D01*
X109253000Y-121127000D01*
X109233000Y-121127000D01*
X109233000Y-120873000D01*
X109253000Y-120873000D01*
X109253000Y-120853000D01*
X109507000Y-120853000D01*
X109507000Y-120873000D01*
X110416250Y-120873000D01*
X110575000Y-120714250D01*
X110575000Y-120173690D01*
X110478327Y-119940301D01*
X110330025Y-119792000D01*
X110504370Y-119792000D01*
X110908000Y-120195631D01*
X110908000Y-120195631D01*
G37*
X110908000Y-120195631D02*
X110908001Y-121875658D01*
X110870629Y-121900629D01*
X110702212Y-122152684D01*
X110658000Y-122374953D01*
X110658000Y-122374957D01*
X110643073Y-122450000D01*
X110658000Y-122525044D01*
X110658001Y-123484952D01*
X110643073Y-123560000D01*
X110702213Y-123857317D01*
X110821541Y-124035904D01*
X110870630Y-124109371D01*
X110934251Y-124151881D01*
X111277560Y-124495190D01*
X111277560Y-124665000D01*
X111326843Y-124912765D01*
X111385132Y-125000000D01*
X111326843Y-125087235D01*
X111277560Y-125335000D01*
X111277560Y-125935000D01*
X111326843Y-126182765D01*
X111379768Y-126261972D01*
X111290000Y-126478690D01*
X111290000Y-126619250D01*
X111448750Y-126778000D01*
X112573000Y-126778000D01*
X112573000Y-126758000D01*
X112827000Y-126758000D01*
X112827000Y-126778000D01*
X113951250Y-126778000D01*
X114110000Y-126619250D01*
X114110000Y-126563608D01*
X114234071Y-126615000D01*
X114625929Y-126615000D01*
X114987958Y-126465042D01*
X115265042Y-126187958D01*
X115415000Y-125825929D01*
X115415000Y-125434071D01*
X115265042Y-125072042D01*
X114987958Y-124794958D01*
X114625929Y-124645000D01*
X114234071Y-124645000D01*
X114116752Y-124693595D01*
X114122440Y-124665000D01*
X114122440Y-124065000D01*
X114081067Y-123857000D01*
X115268789Y-123857000D01*
X115286843Y-123947765D01*
X115427191Y-124157809D01*
X115637235Y-124298157D01*
X115770501Y-124324665D01*
X115770500Y-127321869D01*
X115647369Y-127445000D01*
X115544071Y-127445000D01*
X115182042Y-127594958D01*
X114904958Y-127872042D01*
X114755000Y-128234071D01*
X114755000Y-128388000D01*
X113585042Y-128388000D01*
X113509999Y-128373073D01*
X113434956Y-128388000D01*
X113434952Y-128388000D01*
X113212683Y-128432212D01*
X113212682Y-128432213D01*
X113212681Y-128432213D01*
X113024251Y-128558118D01*
X112960629Y-128600629D01*
X112918118Y-128664251D01*
X112075000Y-129507370D01*
X112075000Y-129285750D01*
X111916250Y-129127000D01*
X111007000Y-129127000D01*
X111007000Y-129147000D01*
X110753000Y-129147000D01*
X110753000Y-129127000D01*
X110733000Y-129127000D01*
X110733000Y-128873000D01*
X110753000Y-128873000D01*
X110753000Y-127823750D01*
X111007000Y-127823750D01*
X111007000Y-128873000D01*
X111916250Y-128873000D01*
X112075000Y-128714250D01*
X112075000Y-128173690D01*
X111978327Y-127940301D01*
X111878025Y-127840000D01*
X112414250Y-127840000D01*
X112573000Y-127681250D01*
X112573000Y-127032000D01*
X112827000Y-127032000D01*
X112827000Y-127681250D01*
X112985750Y-127840000D01*
X113601309Y-127840000D01*
X113834698Y-127743327D01*
X114013327Y-127564699D01*
X114110000Y-127331310D01*
X114110000Y-127190750D01*
X113951250Y-127032000D01*
X112827000Y-127032000D01*
X112573000Y-127032000D01*
X111448750Y-127032000D01*
X111290000Y-127190750D01*
X111290000Y-127331310D01*
X111386673Y-127564699D01*
X111486975Y-127665000D01*
X111165750Y-127665000D01*
X111007000Y-127823750D01*
X110753000Y-127823750D01*
X110594250Y-127665000D01*
X110193691Y-127665000D01*
X110105000Y-127701737D01*
X110105000Y-127594071D01*
X109955042Y-127232042D01*
X109945500Y-127222500D01*
X109945500Y-123801297D01*
X109961671Y-123719999D01*
X109945500Y-123638701D01*
X109945500Y-123638697D01*
X109897604Y-123397906D01*
X109769042Y-123205500D01*
X109761206Y-123193772D01*
X109761205Y-123193771D01*
X109715152Y-123124848D01*
X109646228Y-123078794D01*
X109136208Y-122568776D01*
X109090152Y-122499848D01*
X108843440Y-122335000D01*
X109094250Y-122335000D01*
X109253000Y-122176250D01*
X109253000Y-121127000D01*
X109507000Y-121127000D01*
X109507000Y-122176250D01*
X109665750Y-122335000D01*
X110066309Y-122335000D01*
X110299698Y-122238327D01*
X110478327Y-122059699D01*
X110575000Y-121826310D01*
X110575000Y-121285750D01*
X110416250Y-121127000D01*
X109507000Y-121127000D01*
X109253000Y-121127000D01*
X109233000Y-121127000D01*
X109233000Y-120873000D01*
X109253000Y-120873000D01*
X109253000Y-120853000D01*
X109507000Y-120853000D01*
X109507000Y-120873000D01*
X110416250Y-120873000D01*
X110575000Y-120714250D01*
X110575000Y-120173690D01*
X110478327Y-119940301D01*
X110330025Y-119792000D01*
X110504370Y-119792000D01*
X110908000Y-120195631D01*
G36*
X117572235Y-124298157D02*
X117820000Y-124347440D01*
X118378100Y-124347440D01*
X119062484Y-125031825D01*
X119087793Y-125092926D01*
X119407074Y-125412207D01*
X119824234Y-125585000D01*
X120275766Y-125585000D01*
X120692926Y-125412207D01*
X120738000Y-125367133D01*
X120738000Y-126758957D01*
X120723073Y-126834000D01*
X120738000Y-126909043D01*
X120738000Y-126909047D01*
X120782212Y-127131316D01*
X120950629Y-127383371D01*
X121014253Y-127425883D01*
X121976369Y-128388000D01*
X116859631Y-128388000D01*
X117018250Y-128229381D01*
X117081871Y-128186871D01*
X117127889Y-128118000D01*
X117250287Y-127934819D01*
X117250287Y-127934818D01*
X117250288Y-127934817D01*
X117294500Y-127712548D01*
X117294500Y-127712544D01*
X117309427Y-127637501D01*
X117294500Y-127562458D01*
X117294500Y-124324665D01*
X117427765Y-124298157D01*
X117500000Y-124249891D01*
X117572235Y-124298157D01*
X117572235Y-124298157D01*
G37*
X117572235Y-124298157D02*
X117820000Y-124347440D01*
X118378100Y-124347440D01*
X119062484Y-125031825D01*
X119087793Y-125092926D01*
X119407074Y-125412207D01*
X119824234Y-125585000D01*
X120275766Y-125585000D01*
X120692926Y-125412207D01*
X120738000Y-125367133D01*
X120738000Y-126758957D01*
X120723073Y-126834000D01*
X120738000Y-126909043D01*
X120738000Y-126909047D01*
X120782212Y-127131316D01*
X120950629Y-127383371D01*
X121014253Y-127425883D01*
X121976369Y-128388000D01*
X116859631Y-128388000D01*
X117018250Y-128229381D01*
X117081871Y-128186871D01*
X117127889Y-128118000D01*
X117250287Y-127934819D01*
X117250287Y-127934818D01*
X117250288Y-127934817D01*
X117294500Y-127712548D01*
X117294500Y-127712544D01*
X117309427Y-127637501D01*
X117294500Y-127562458D01*
X117294500Y-124324665D01*
X117427765Y-124298157D01*
X117500000Y-124249891D01*
X117572235Y-124298157D01*
G36*
X100080332Y-128118000D02*
X97392440Y-128118000D01*
X97392440Y-126950000D01*
X97387666Y-126926000D01*
X101272332Y-126926000D01*
X100080332Y-128118000D01*
X100080332Y-128118000D01*
G37*
X100080332Y-128118000D02*
X97392440Y-128118000D01*
X97392440Y-126950000D01*
X97387666Y-126926000D01*
X101272332Y-126926000D01*
X100080332Y-128118000D01*
G36*
X79964958Y-114637958D02*
X80242042Y-114915042D01*
X80604071Y-115065000D01*
X80995929Y-115065000D01*
X81357958Y-114915042D01*
X81407500Y-114865500D01*
X86325000Y-114865500D01*
X86325000Y-114945929D01*
X86474958Y-115307958D01*
X86752042Y-115585042D01*
X87114071Y-115735000D01*
X87505929Y-115735000D01*
X87595000Y-115698105D01*
X87595000Y-116025929D01*
X87606031Y-116052560D01*
X87550000Y-116052560D01*
X87302235Y-116101843D01*
X87092191Y-116242191D01*
X86951843Y-116452235D01*
X86902560Y-116700000D01*
X86902560Y-117500000D01*
X86951843Y-117747765D01*
X87092191Y-117957809D01*
X87109137Y-117969132D01*
X87137655Y-118011812D01*
X87092191Y-118042191D01*
X86951843Y-118252235D01*
X86902560Y-118500000D01*
X86902560Y-119300000D01*
X86920977Y-119392590D01*
X85883777Y-120429791D01*
X85814848Y-120475848D01*
X85632396Y-120748907D01*
X85592030Y-120951843D01*
X85568328Y-121071000D01*
X85584500Y-121152302D01*
X85584501Y-122356902D01*
X85555766Y-122345000D01*
X85104234Y-122345000D01*
X84816942Y-122464000D01*
X84722957Y-122464000D01*
X84622893Y-122444096D01*
X84522829Y-122464000D01*
X84226471Y-122522949D01*
X84226470Y-122522950D01*
X84226469Y-122522950D01*
X84198450Y-122541672D01*
X83890399Y-122747505D01*
X83833714Y-122832340D01*
X83492340Y-123173714D01*
X83407505Y-123230399D01*
X83182949Y-123566472D01*
X83131264Y-123826310D01*
X83104096Y-123962894D01*
X83124000Y-124062958D01*
X83124001Y-126631001D01*
X82947958Y-126454958D01*
X82585929Y-126305000D01*
X82572433Y-126305000D01*
X79305500Y-123038068D01*
X79305500Y-115130052D01*
X79915938Y-114519614D01*
X79964958Y-114637958D01*
X79964958Y-114637958D01*
G37*
X79964958Y-114637958D02*
X80242042Y-114915042D01*
X80604071Y-115065000D01*
X80995929Y-115065000D01*
X81357958Y-114915042D01*
X81407500Y-114865500D01*
X86325000Y-114865500D01*
X86325000Y-114945929D01*
X86474958Y-115307958D01*
X86752042Y-115585042D01*
X87114071Y-115735000D01*
X87505929Y-115735000D01*
X87595000Y-115698105D01*
X87595000Y-116025929D01*
X87606031Y-116052560D01*
X87550000Y-116052560D01*
X87302235Y-116101843D01*
X87092191Y-116242191D01*
X86951843Y-116452235D01*
X86902560Y-116700000D01*
X86902560Y-117500000D01*
X86951843Y-117747765D01*
X87092191Y-117957809D01*
X87109137Y-117969132D01*
X87137655Y-118011812D01*
X87092191Y-118042191D01*
X86951843Y-118252235D01*
X86902560Y-118500000D01*
X86902560Y-119300000D01*
X86920977Y-119392590D01*
X85883777Y-120429791D01*
X85814848Y-120475848D01*
X85632396Y-120748907D01*
X85592030Y-120951843D01*
X85568328Y-121071000D01*
X85584500Y-121152302D01*
X85584501Y-122356902D01*
X85555766Y-122345000D01*
X85104234Y-122345000D01*
X84816942Y-122464000D01*
X84722957Y-122464000D01*
X84622893Y-122444096D01*
X84522829Y-122464000D01*
X84226471Y-122522949D01*
X84226470Y-122522950D01*
X84226469Y-122522950D01*
X84198450Y-122541672D01*
X83890399Y-122747505D01*
X83833714Y-122832340D01*
X83492340Y-123173714D01*
X83407505Y-123230399D01*
X83182949Y-123566472D01*
X83131264Y-123826310D01*
X83104096Y-123962894D01*
X83124000Y-124062958D01*
X83124001Y-126631001D01*
X82947958Y-126454958D01*
X82585929Y-126305000D01*
X82572433Y-126305000D01*
X79305500Y-123038068D01*
X79305500Y-115130052D01*
X79915938Y-114519614D01*
X79964958Y-114637958D01*
G36*
X87999500Y-126256933D02*
X87999500Y-126331303D01*
X87855000Y-126302560D01*
X87255000Y-126302560D01*
X87007235Y-126351843D01*
X86835000Y-126466928D01*
X86835000Y-126405750D01*
X86676250Y-126247000D01*
X85627000Y-126247000D01*
X85627000Y-126267000D01*
X85373000Y-126267000D01*
X85373000Y-126247000D01*
X85353000Y-126247000D01*
X85353000Y-125993000D01*
X85373000Y-125993000D01*
X85373000Y-125083750D01*
X85627000Y-125083750D01*
X85627000Y-125993000D01*
X86676250Y-125993000D01*
X86835000Y-125834250D01*
X86835000Y-125433691D01*
X86738327Y-125200302D01*
X86559699Y-125021673D01*
X86326310Y-124925000D01*
X85785750Y-124925000D01*
X85627000Y-125083750D01*
X85373000Y-125083750D01*
X85214250Y-124925000D01*
X85156000Y-124925000D01*
X85156000Y-124615000D01*
X85555766Y-124615000D01*
X85972926Y-124442207D01*
X86078850Y-124336283D01*
X87999500Y-126256933D01*
X87999500Y-126256933D01*
G37*
X87999500Y-126256933D02*
X87999500Y-126331303D01*
X87855000Y-126302560D01*
X87255000Y-126302560D01*
X87007235Y-126351843D01*
X86835000Y-126466928D01*
X86835000Y-126405750D01*
X86676250Y-126247000D01*
X85627000Y-126247000D01*
X85627000Y-126267000D01*
X85373000Y-126267000D01*
X85373000Y-126247000D01*
X85353000Y-126247000D01*
X85353000Y-125993000D01*
X85373000Y-125993000D01*
X85373000Y-125083750D01*
X85627000Y-125083750D01*
X85627000Y-125993000D01*
X86676250Y-125993000D01*
X86835000Y-125834250D01*
X86835000Y-125433691D01*
X86738327Y-125200302D01*
X86559699Y-125021673D01*
X86326310Y-124925000D01*
X85785750Y-124925000D01*
X85627000Y-125083750D01*
X85373000Y-125083750D01*
X85214250Y-124925000D01*
X85156000Y-124925000D01*
X85156000Y-124615000D01*
X85555766Y-124615000D01*
X85972926Y-124442207D01*
X86078850Y-124336283D01*
X87999500Y-126256933D01*
G36*
X90817235Y-123648157D02*
X91056765Y-123695802D01*
X90363773Y-124388795D01*
X90357568Y-124395000D01*
X90344071Y-124395000D01*
X89982042Y-124544958D01*
X89704958Y-124822042D01*
X89555000Y-125184071D01*
X89555000Y-125521661D01*
X89501834Y-125442094D01*
X89420152Y-125319848D01*
X89351226Y-125273793D01*
X87774872Y-123697440D01*
X87855000Y-123697440D01*
X88102765Y-123648157D01*
X88190000Y-123589868D01*
X88277235Y-123648157D01*
X88525000Y-123697440D01*
X89125000Y-123697440D01*
X89372765Y-123648157D01*
X89460000Y-123589868D01*
X89547235Y-123648157D01*
X89795000Y-123697440D01*
X90395000Y-123697440D01*
X90642765Y-123648157D01*
X90730000Y-123589868D01*
X90817235Y-123648157D01*
X90817235Y-123648157D01*
G37*
X90817235Y-123648157D02*
X91056765Y-123695802D01*
X90363773Y-124388795D01*
X90357568Y-124395000D01*
X90344071Y-124395000D01*
X89982042Y-124544958D01*
X89704958Y-124822042D01*
X89555000Y-125184071D01*
X89555000Y-125521661D01*
X89501834Y-125442094D01*
X89420152Y-125319848D01*
X89351226Y-125273793D01*
X87774872Y-123697440D01*
X87855000Y-123697440D01*
X88102765Y-123648157D01*
X88190000Y-123589868D01*
X88277235Y-123648157D01*
X88525000Y-123697440D01*
X89125000Y-123697440D01*
X89372765Y-123648157D01*
X89460000Y-123589868D01*
X89547235Y-123648157D01*
X89795000Y-123697440D01*
X90395000Y-123697440D01*
X90642765Y-123648157D01*
X90730000Y-123589868D01*
X90817235Y-123648157D01*
G36*
X102247000Y-122873000D02*
X102267000Y-122873000D01*
X102267000Y-123127000D01*
X102247000Y-123127000D01*
X102247000Y-124176250D01*
X102405750Y-124335000D01*
X102570159Y-124335000D01*
X102011160Y-124894000D01*
X99540708Y-124894000D01*
X100925000Y-123509708D01*
X100925000Y-123826310D01*
X101021673Y-124059699D01*
X101200302Y-124238327D01*
X101433691Y-124335000D01*
X101834250Y-124335000D01*
X101993000Y-124176250D01*
X101993000Y-123127000D01*
X101973000Y-123127000D01*
X101973000Y-122873000D01*
X101993000Y-122873000D01*
X101993000Y-122853000D01*
X102247000Y-122853000D01*
X102247000Y-122873000D01*
X102247000Y-122873000D01*
G37*
X102247000Y-122873000D02*
X102267000Y-122873000D01*
X102267000Y-123127000D01*
X102247000Y-123127000D01*
X102247000Y-124176250D01*
X102405750Y-124335000D01*
X102570159Y-124335000D01*
X102011160Y-124894000D01*
X99540708Y-124894000D01*
X100925000Y-123509708D01*
X100925000Y-123826310D01*
X101021673Y-124059699D01*
X101200302Y-124238327D01*
X101433691Y-124335000D01*
X101834250Y-124335000D01*
X101993000Y-124176250D01*
X101993000Y-123127000D01*
X101973000Y-123127000D01*
X101973000Y-122873000D01*
X101993000Y-122873000D01*
X101993000Y-122853000D01*
X102247000Y-122853000D01*
X102247000Y-122873000D01*
G36*
X98734501Y-120430333D02*
X97380000Y-121784835D01*
X97380000Y-121423691D01*
X97283327Y-121190302D01*
X97104699Y-121011673D01*
X96871310Y-120915000D01*
X96730750Y-120915000D01*
X96572000Y-121073750D01*
X96572000Y-122173000D01*
X96592000Y-122173000D01*
X96592000Y-122427000D01*
X96572000Y-122427000D01*
X96572000Y-122447000D01*
X96318000Y-122447000D01*
X96318000Y-122427000D01*
X96298000Y-122427000D01*
X96298000Y-122173000D01*
X96318000Y-122173000D01*
X96318000Y-121073750D01*
X96159250Y-120915000D01*
X96142432Y-120915000D01*
X96726226Y-120331207D01*
X96795152Y-120285152D01*
X96977604Y-120012094D01*
X97025500Y-119771303D01*
X97025500Y-119771302D01*
X97041672Y-119690000D01*
X97025500Y-119608699D01*
X97025500Y-119581673D01*
X97048157Y-119547765D01*
X97097440Y-119300000D01*
X97097440Y-118775500D01*
X97678699Y-118775500D01*
X97760000Y-118791672D01*
X97775000Y-118788688D01*
X97790000Y-118791672D01*
X97871301Y-118775500D01*
X97871303Y-118775500D01*
X98112094Y-118727604D01*
X98385152Y-118545152D01*
X98431209Y-118476223D01*
X98734500Y-118172932D01*
X98734501Y-120430333D01*
X98734501Y-120430333D01*
G37*
X98734501Y-120430333D02*
X97380000Y-121784835D01*
X97380000Y-121423691D01*
X97283327Y-121190302D01*
X97104699Y-121011673D01*
X96871310Y-120915000D01*
X96730750Y-120915000D01*
X96572000Y-121073750D01*
X96572000Y-122173000D01*
X96592000Y-122173000D01*
X96592000Y-122427000D01*
X96572000Y-122427000D01*
X96572000Y-122447000D01*
X96318000Y-122447000D01*
X96318000Y-122427000D01*
X96298000Y-122427000D01*
X96298000Y-122173000D01*
X96318000Y-122173000D01*
X96318000Y-121073750D01*
X96159250Y-120915000D01*
X96142432Y-120915000D01*
X96726226Y-120331207D01*
X96795152Y-120285152D01*
X96977604Y-120012094D01*
X97025500Y-119771303D01*
X97025500Y-119771302D01*
X97041672Y-119690000D01*
X97025500Y-119608699D01*
X97025500Y-119581673D01*
X97048157Y-119547765D01*
X97097440Y-119300000D01*
X97097440Y-118775500D01*
X97678699Y-118775500D01*
X97760000Y-118791672D01*
X97775000Y-118788688D01*
X97790000Y-118791672D01*
X97871301Y-118775500D01*
X97871303Y-118775500D01*
X98112094Y-118727604D01*
X98385152Y-118545152D01*
X98431209Y-118476223D01*
X98734500Y-118172932D01*
X98734501Y-120430333D01*
G36*
X123092191Y-112957809D02*
X123155334Y-113000000D01*
X123092191Y-113042191D01*
X122951843Y-113252235D01*
X122902560Y-113500000D01*
X122902560Y-114300000D01*
X122924129Y-114408438D01*
X121963777Y-115368791D01*
X121894848Y-115414848D01*
X121712396Y-115687907D01*
X121665898Y-115921672D01*
X121648328Y-116010000D01*
X121664500Y-116091302D01*
X121664501Y-118448694D01*
X121648328Y-118530000D01*
X121699021Y-118784848D01*
X121712397Y-118852094D01*
X121894849Y-119125152D01*
X121963775Y-119171207D01*
X122217568Y-119425000D01*
X121785750Y-119425000D01*
X121627000Y-119583750D01*
X121627000Y-120493000D01*
X122676250Y-120493000D01*
X122835000Y-120334250D01*
X122835000Y-120042432D01*
X123999500Y-121206933D01*
X123999500Y-121331303D01*
X123855000Y-121302560D01*
X123255000Y-121302560D01*
X123007235Y-121351843D01*
X122797191Y-121492191D01*
X122770932Y-121531490D01*
X122752903Y-121504508D01*
X122835000Y-121306309D01*
X122835000Y-120905750D01*
X122676250Y-120747000D01*
X121627000Y-120747000D01*
X121627000Y-120767000D01*
X121373000Y-120767000D01*
X121373000Y-120747000D01*
X120323750Y-120747000D01*
X120165000Y-120905750D01*
X120165000Y-120958568D01*
X119705500Y-120499068D01*
X119705500Y-120286307D01*
X119897809Y-120157809D01*
X120038157Y-119947765D01*
X120040956Y-119933691D01*
X120165000Y-119933691D01*
X120165000Y-120334250D01*
X120323750Y-120493000D01*
X121373000Y-120493000D01*
X121373000Y-119583750D01*
X121214250Y-119425000D01*
X120673690Y-119425000D01*
X120440301Y-119521673D01*
X120261673Y-119700302D01*
X120165000Y-119933691D01*
X120040956Y-119933691D01*
X120087440Y-119700000D01*
X120087440Y-118300000D01*
X120038157Y-118052235D01*
X119897809Y-117842191D01*
X119687765Y-117701843D01*
X119440000Y-117652560D01*
X118320000Y-117652560D01*
X118072235Y-117701843D01*
X118004508Y-117747097D01*
X117806309Y-117665000D01*
X117405750Y-117665000D01*
X117247000Y-117823750D01*
X117247000Y-118873000D01*
X117267000Y-118873000D01*
X117267000Y-119127000D01*
X117247000Y-119127000D01*
X117247000Y-120176250D01*
X117405750Y-120335000D01*
X117806309Y-120335000D01*
X118004508Y-120252903D01*
X118054500Y-120286307D01*
X118054500Y-120499068D01*
X117941275Y-120612293D01*
X117903216Y-120637724D01*
X117686545Y-120492949D01*
X117390187Y-120434000D01*
X117390185Y-120434000D01*
X117290122Y-120414096D01*
X117190059Y-120434000D01*
X115690064Y-120434000D01*
X115590000Y-120414096D01*
X115489936Y-120434000D01*
X115489935Y-120434000D01*
X115193577Y-120492949D01*
X114857505Y-120717505D01*
X114800822Y-120802337D01*
X114384367Y-121218793D01*
X114097074Y-121337793D01*
X113777793Y-121657074D01*
X113605000Y-122074234D01*
X113605000Y-122173418D01*
X113475000Y-122147560D01*
X112436496Y-122147560D01*
X112432000Y-122124958D01*
X112432000Y-119955047D01*
X112446928Y-119880000D01*
X112432000Y-119804952D01*
X112387788Y-119582683D01*
X112219371Y-119330629D01*
X112155750Y-119288119D01*
X112153381Y-119285750D01*
X115925000Y-119285750D01*
X115925000Y-119826310D01*
X116021673Y-120059699D01*
X116200302Y-120238327D01*
X116433691Y-120335000D01*
X116834250Y-120335000D01*
X116993000Y-120176250D01*
X116993000Y-119127000D01*
X116083750Y-119127000D01*
X115925000Y-119285750D01*
X112153381Y-119285750D01*
X111411883Y-118544253D01*
X111369371Y-118480629D01*
X111117317Y-118312212D01*
X110895048Y-118268000D01*
X110895043Y-118268000D01*
X110820000Y-118253073D01*
X110744957Y-118268000D01*
X104402121Y-118268000D01*
X104327078Y-118253073D01*
X104252035Y-118268000D01*
X104252030Y-118268000D01*
X104029761Y-118312212D01*
X103777707Y-118480629D01*
X103735196Y-118544251D01*
X101015500Y-121263947D01*
X101015500Y-118173690D01*
X115925000Y-118173690D01*
X115925000Y-118714250D01*
X116083750Y-118873000D01*
X116993000Y-118873000D01*
X116993000Y-117823750D01*
X116834250Y-117665000D01*
X116433691Y-117665000D01*
X116200302Y-117761673D01*
X116021673Y-117940301D01*
X115925000Y-118173690D01*
X101015500Y-118173690D01*
X101015500Y-115711297D01*
X101031671Y-115629999D01*
X101015500Y-115548701D01*
X101015500Y-115548697D01*
X100967604Y-115307906D01*
X100785152Y-115034848D01*
X100716226Y-114988793D01*
X98652932Y-112925500D01*
X123070603Y-112925500D01*
X123092191Y-112957809D01*
X123092191Y-112957809D01*
G37*
X123092191Y-112957809D02*
X123155334Y-113000000D01*
X123092191Y-113042191D01*
X122951843Y-113252235D01*
X122902560Y-113500000D01*
X122902560Y-114300000D01*
X122924129Y-114408438D01*
X121963777Y-115368791D01*
X121894848Y-115414848D01*
X121712396Y-115687907D01*
X121665898Y-115921672D01*
X121648328Y-116010000D01*
X121664500Y-116091302D01*
X121664501Y-118448694D01*
X121648328Y-118530000D01*
X121699021Y-118784848D01*
X121712397Y-118852094D01*
X121894849Y-119125152D01*
X121963775Y-119171207D01*
X122217568Y-119425000D01*
X121785750Y-119425000D01*
X121627000Y-119583750D01*
X121627000Y-120493000D01*
X122676250Y-120493000D01*
X122835000Y-120334250D01*
X122835000Y-120042432D01*
X123999500Y-121206933D01*
X123999500Y-121331303D01*
X123855000Y-121302560D01*
X123255000Y-121302560D01*
X123007235Y-121351843D01*
X122797191Y-121492191D01*
X122770932Y-121531490D01*
X122752903Y-121504508D01*
X122835000Y-121306309D01*
X122835000Y-120905750D01*
X122676250Y-120747000D01*
X121627000Y-120747000D01*
X121627000Y-120767000D01*
X121373000Y-120767000D01*
X121373000Y-120747000D01*
X120323750Y-120747000D01*
X120165000Y-120905750D01*
X120165000Y-120958568D01*
X119705500Y-120499068D01*
X119705500Y-120286307D01*
X119897809Y-120157809D01*
X120038157Y-119947765D01*
X120040956Y-119933691D01*
X120165000Y-119933691D01*
X120165000Y-120334250D01*
X120323750Y-120493000D01*
X121373000Y-120493000D01*
X121373000Y-119583750D01*
X121214250Y-119425000D01*
X120673690Y-119425000D01*
X120440301Y-119521673D01*
X120261673Y-119700302D01*
X120165000Y-119933691D01*
X120040956Y-119933691D01*
X120087440Y-119700000D01*
X120087440Y-118300000D01*
X120038157Y-118052235D01*
X119897809Y-117842191D01*
X119687765Y-117701843D01*
X119440000Y-117652560D01*
X118320000Y-117652560D01*
X118072235Y-117701843D01*
X118004508Y-117747097D01*
X117806309Y-117665000D01*
X117405750Y-117665000D01*
X117247000Y-117823750D01*
X117247000Y-118873000D01*
X117267000Y-118873000D01*
X117267000Y-119127000D01*
X117247000Y-119127000D01*
X117247000Y-120176250D01*
X117405750Y-120335000D01*
X117806309Y-120335000D01*
X118004508Y-120252903D01*
X118054500Y-120286307D01*
X118054500Y-120499068D01*
X117941275Y-120612293D01*
X117903216Y-120637724D01*
X117686545Y-120492949D01*
X117390187Y-120434000D01*
X117390185Y-120434000D01*
X117290122Y-120414096D01*
X117190059Y-120434000D01*
X115690064Y-120434000D01*
X115590000Y-120414096D01*
X115489936Y-120434000D01*
X115489935Y-120434000D01*
X115193577Y-120492949D01*
X114857505Y-120717505D01*
X114800822Y-120802337D01*
X114384367Y-121218793D01*
X114097074Y-121337793D01*
X113777793Y-121657074D01*
X113605000Y-122074234D01*
X113605000Y-122173418D01*
X113475000Y-122147560D01*
X112436496Y-122147560D01*
X112432000Y-122124958D01*
X112432000Y-119955047D01*
X112446928Y-119880000D01*
X112432000Y-119804952D01*
X112387788Y-119582683D01*
X112219371Y-119330629D01*
X112155750Y-119288119D01*
X112153381Y-119285750D01*
X115925000Y-119285750D01*
X115925000Y-119826310D01*
X116021673Y-120059699D01*
X116200302Y-120238327D01*
X116433691Y-120335000D01*
X116834250Y-120335000D01*
X116993000Y-120176250D01*
X116993000Y-119127000D01*
X116083750Y-119127000D01*
X115925000Y-119285750D01*
X112153381Y-119285750D01*
X111411883Y-118544253D01*
X111369371Y-118480629D01*
X111117317Y-118312212D01*
X110895048Y-118268000D01*
X110895043Y-118268000D01*
X110820000Y-118253073D01*
X110744957Y-118268000D01*
X104402121Y-118268000D01*
X104327078Y-118253073D01*
X104252035Y-118268000D01*
X104252030Y-118268000D01*
X104029761Y-118312212D01*
X103777707Y-118480629D01*
X103735196Y-118544251D01*
X101015500Y-121263947D01*
X101015500Y-118173690D01*
X115925000Y-118173690D01*
X115925000Y-118714250D01*
X116083750Y-118873000D01*
X116993000Y-118873000D01*
X116993000Y-117823750D01*
X116834250Y-117665000D01*
X116433691Y-117665000D01*
X116200302Y-117761673D01*
X116021673Y-117940301D01*
X115925000Y-118173690D01*
X101015500Y-118173690D01*
X101015500Y-115711297D01*
X101031671Y-115629999D01*
X101015500Y-115548701D01*
X101015500Y-115548697D01*
X100967604Y-115307906D01*
X100785152Y-115034848D01*
X100716226Y-114988793D01*
X98652932Y-112925500D01*
X123070603Y-112925500D01*
X123092191Y-112957809D01*
G36*
X104513777Y-120388791D02*
X104444848Y-120434848D01*
X104262396Y-120707907D01*
X104219750Y-120922303D01*
X104198328Y-121030000D01*
X104214500Y-121111301D01*
X104214500Y-121358067D01*
X103920007Y-121652560D01*
X103320000Y-121652560D01*
X103072235Y-121701843D01*
X103004508Y-121747097D01*
X102806309Y-121665000D01*
X102769709Y-121665000D01*
X104642709Y-119792000D01*
X105110568Y-119792000D01*
X104513777Y-120388791D01*
X104513777Y-120388791D01*
G37*
X104513777Y-120388791D02*
X104444848Y-120434848D01*
X104262396Y-120707907D01*
X104219750Y-120922303D01*
X104198328Y-121030000D01*
X104214500Y-121111301D01*
X104214500Y-121358067D01*
X103920007Y-121652560D01*
X103320000Y-121652560D01*
X103072235Y-121701843D01*
X103004508Y-121747097D01*
X102806309Y-121665000D01*
X102769709Y-121665000D01*
X104642709Y-119792000D01*
X105110568Y-119792000D01*
X104513777Y-120388791D01*
G36*
X92902560Y-119110007D02*
X92228068Y-119784500D01*
X92005297Y-119784500D01*
X91923999Y-119768329D01*
X91842701Y-119784500D01*
X91842697Y-119784500D01*
X91601906Y-119832396D01*
X91590023Y-119840336D01*
X91397772Y-119968794D01*
X91397771Y-119968795D01*
X91328848Y-120014848D01*
X91282794Y-120083772D01*
X90920500Y-120446067D01*
X90920500Y-120437556D01*
X90977604Y-120352094D01*
X91025500Y-120111303D01*
X91025500Y-120111298D01*
X91041671Y-120030001D01*
X91025500Y-119948703D01*
X91025500Y-119581673D01*
X91048157Y-119547765D01*
X91097440Y-119300000D01*
X91097440Y-118775500D01*
X92902560Y-118775500D01*
X92902560Y-119110007D01*
X92902560Y-119110007D01*
G37*
X92902560Y-119110007D02*
X92228068Y-119784500D01*
X92005297Y-119784500D01*
X91923999Y-119768329D01*
X91842701Y-119784500D01*
X91842697Y-119784500D01*
X91601906Y-119832396D01*
X91590023Y-119840336D01*
X91397772Y-119968794D01*
X91397771Y-119968795D01*
X91328848Y-120014848D01*
X91282794Y-120083772D01*
X90920500Y-120446067D01*
X90920500Y-120437556D01*
X90977604Y-120352094D01*
X91025500Y-120111303D01*
X91025500Y-120111298D01*
X91041671Y-120030001D01*
X91025500Y-119948703D01*
X91025500Y-119581673D01*
X91048157Y-119547765D01*
X91097440Y-119300000D01*
X91097440Y-118775500D01*
X92902560Y-118775500D01*
X92902560Y-119110007D01*
G36*
X93273777Y-114338940D02*
X93204848Y-114384997D01*
X93022396Y-114658056D01*
X92983740Y-114852396D01*
X92958328Y-114980149D01*
X92974500Y-115061451D01*
X92974501Y-116237694D01*
X92974500Y-116237698D01*
X92974500Y-116418327D01*
X92951843Y-116452235D01*
X92902560Y-116700000D01*
X92902560Y-117124500D01*
X91097440Y-117124500D01*
X91097440Y-116700000D01*
X91048157Y-116452235D01*
X91025500Y-116418327D01*
X91025500Y-114961297D01*
X91041671Y-114879999D01*
X91025500Y-114798701D01*
X91025500Y-114798697D01*
X90977604Y-114557906D01*
X90875407Y-114404958D01*
X90841206Y-114353772D01*
X90841205Y-114353771D01*
X90795152Y-114284848D01*
X90726228Y-114238795D01*
X90001209Y-113513776D01*
X89955152Y-113444848D01*
X89682094Y-113262396D01*
X89441303Y-113214500D01*
X89441301Y-113214500D01*
X89360000Y-113198328D01*
X89278699Y-113214500D01*
X81284426Y-113214500D01*
X81239615Y-113195938D01*
X81510053Y-112925500D01*
X94687216Y-112925500D01*
X93273777Y-114338940D01*
X93273777Y-114338940D01*
G37*
X93273777Y-114338940D02*
X93204848Y-114384997D01*
X93022396Y-114658056D01*
X92983740Y-114852396D01*
X92958328Y-114980149D01*
X92974500Y-115061451D01*
X92974501Y-116237694D01*
X92974500Y-116237698D01*
X92974500Y-116418327D01*
X92951843Y-116452235D01*
X92902560Y-116700000D01*
X92902560Y-117124500D01*
X91097440Y-117124500D01*
X91097440Y-116700000D01*
X91048157Y-116452235D01*
X91025500Y-116418327D01*
X91025500Y-114961297D01*
X91041671Y-114879999D01*
X91025500Y-114798701D01*
X91025500Y-114798697D01*
X90977604Y-114557906D01*
X90875407Y-114404958D01*
X90841206Y-114353772D01*
X90841205Y-114353771D01*
X90795152Y-114284848D01*
X90726228Y-114238795D01*
X90001209Y-113513776D01*
X89955152Y-113444848D01*
X89682094Y-113262396D01*
X89441303Y-113214500D01*
X89441301Y-113214500D01*
X89360000Y-113198328D01*
X89278699Y-113214500D01*
X81284426Y-113214500D01*
X81239615Y-113195938D01*
X81510053Y-112925500D01*
X94687216Y-112925500D01*
X93273777Y-114338940D01*
M02*
