G04 #@! TF.GenerationSoftware,KiCad,Pcbnew,(5.0.0-rc2-dev-482-gf81c77cd4)*
G04 #@! TF.CreationDate,2018-05-10T20:02:33+02:00*
G04 #@! TF.ProjectId,score_board,73636F72655F626F6172642E6B696361,1*
G04 #@! TF.SameCoordinates,Original*
G04 #@! TF.FileFunction,Soldermask,Bot*
G04 #@! TF.FilePolarity,Negative*
%FSLAX46Y46*%
G04 Gerber Fmt 4.6, Leading zero omitted, Abs format (unit mm)*
G04 Created by KiCad (PCBNEW (5.0.0-rc2-dev-482-gf81c77cd4)) date Thu May 10 20:02:33 2018*
%MOMM*%
%LPD*%
G01*
G04 APERTURE LIST*
%ADD10R,3.500000X1.600000*%
%ADD11R,3.150000X1.000000*%
%ADD12R,1.400000X1.120000*%
%ADD13R,1.120000X1.400000*%
%ADD14C,0.900000*%
%ADD15R,0.700000X1.500000*%
%ADD16R,1.000000X0.800000*%
%ADD17R,1.550000X1.300000*%
%ADD18R,1.300000X5.500000*%
%ADD19R,1.800000X3.900000*%
%ADD20R,0.500000X0.800000*%
%ADD21R,0.400000X0.800000*%
%ADD22R,0.600000X1.500000*%
%ADD23R,1.295000X1.400000*%
%ADD24R,1.550000X0.600000*%
%ADD25C,3.200000*%
%ADD26R,3.510000X2.540000*%
G04 APERTURE END LIST*
D10*
X87300000Y-107000000D03*
X92700000Y-107000000D03*
D11*
X112525000Y-132240000D03*
X107475000Y-132240000D03*
X112525000Y-134780000D03*
X107475000Y-134780000D03*
X112525000Y-137320000D03*
X107475000Y-137320000D03*
D12*
X134500000Y-127620000D03*
X134500000Y-129380000D03*
D13*
X136380000Y-125000000D03*
X134620000Y-125000000D03*
X118880000Y-119000000D03*
X117120000Y-119000000D03*
X102120000Y-123000000D03*
X103880000Y-123000000D03*
X109120000Y-129000000D03*
X110880000Y-129000000D03*
D12*
X121500000Y-120620000D03*
X121500000Y-122380000D03*
X85500000Y-127880000D03*
X85500000Y-126120000D03*
D13*
X85620000Y-130500000D03*
X87380000Y-130500000D03*
D14*
X72500000Y-105670000D03*
X75500000Y-105670000D03*
D15*
X71750000Y-107430000D03*
X74750000Y-107430000D03*
X76250000Y-107430000D03*
D16*
X70350000Y-104570000D03*
X77650000Y-104570000D03*
X77650000Y-106780000D03*
X70350000Y-106780000D03*
D17*
X124020000Y-145750000D03*
X124020000Y-141250000D03*
X131980000Y-141250000D03*
X131980000Y-145750000D03*
X107980000Y-145750000D03*
X107980000Y-141250000D03*
X100020000Y-141250000D03*
X100020000Y-145750000D03*
X112020000Y-145750000D03*
X112020000Y-141250000D03*
X119980000Y-141250000D03*
X119980000Y-145750000D03*
X95980000Y-145750000D03*
X95980000Y-141250000D03*
X88020000Y-141250000D03*
X88020000Y-145750000D03*
D18*
X143750000Y-124000000D03*
X146250000Y-124000000D03*
D19*
X141450000Y-131300000D03*
X148550000Y-131300000D03*
D20*
X126200000Y-137900000D03*
D21*
X125400000Y-137900000D03*
D20*
X123800000Y-137900000D03*
D21*
X124600000Y-137900000D03*
D20*
X126200000Y-136100000D03*
D21*
X124600000Y-136100000D03*
X125400000Y-136100000D03*
D20*
X123800000Y-136100000D03*
X126200000Y-113900000D03*
D21*
X124600000Y-113900000D03*
X125400000Y-113900000D03*
D20*
X123800000Y-113900000D03*
D21*
X125400000Y-112100000D03*
D20*
X126200000Y-112100000D03*
D21*
X124600000Y-112100000D03*
D20*
X123800000Y-112100000D03*
X129800000Y-112100000D03*
D21*
X130600000Y-112100000D03*
D20*
X132200000Y-112100000D03*
D21*
X131400000Y-112100000D03*
D20*
X129800000Y-113900000D03*
D21*
X131400000Y-113900000D03*
X130600000Y-113900000D03*
D20*
X132200000Y-113900000D03*
X90200000Y-118900000D03*
D21*
X88600000Y-118900000D03*
X89400000Y-118900000D03*
D20*
X87800000Y-118900000D03*
D21*
X89400000Y-117100000D03*
D20*
X90200000Y-117100000D03*
D21*
X88600000Y-117100000D03*
D20*
X87800000Y-117100000D03*
X93800000Y-117100000D03*
D21*
X94600000Y-117100000D03*
D20*
X96200000Y-117100000D03*
D21*
X95400000Y-117100000D03*
D20*
X93800000Y-118900000D03*
D21*
X95400000Y-118900000D03*
X94600000Y-118900000D03*
D20*
X96200000Y-118900000D03*
X129800000Y-136100000D03*
D21*
X131400000Y-136100000D03*
X130600000Y-136100000D03*
D20*
X132200000Y-136100000D03*
D21*
X130600000Y-137900000D03*
D20*
X129800000Y-137900000D03*
D21*
X131400000Y-137900000D03*
D20*
X132200000Y-137900000D03*
D22*
X87555000Y-127700000D03*
X88825000Y-127700000D03*
X90095000Y-127700000D03*
X91365000Y-127700000D03*
X92635000Y-127700000D03*
X93905000Y-127700000D03*
X95175000Y-127700000D03*
X96445000Y-127700000D03*
X96445000Y-122300000D03*
X95175000Y-122300000D03*
X93905000Y-122300000D03*
X92635000Y-122300000D03*
X91365000Y-122300000D03*
X90095000Y-122300000D03*
X88825000Y-122300000D03*
X87555000Y-122300000D03*
X123555000Y-117300000D03*
X124825000Y-117300000D03*
X126095000Y-117300000D03*
X127365000Y-117300000D03*
X128635000Y-117300000D03*
X129905000Y-117300000D03*
X131175000Y-117300000D03*
X132445000Y-117300000D03*
X132445000Y-122700000D03*
X131175000Y-122700000D03*
X129905000Y-122700000D03*
X128635000Y-122700000D03*
X127365000Y-122700000D03*
X126095000Y-122700000D03*
X124825000Y-122700000D03*
X123555000Y-122700000D03*
D23*
X118467500Y-123000000D03*
X116532500Y-123000000D03*
X98497500Y-138320000D03*
X96562500Y-138320000D03*
D13*
X109380000Y-121000000D03*
X107620000Y-121000000D03*
D22*
X132445000Y-132700000D03*
X131175000Y-132700000D03*
X129905000Y-132700000D03*
X128635000Y-132700000D03*
X127365000Y-132700000D03*
X126095000Y-132700000D03*
X124825000Y-132700000D03*
X123555000Y-132700000D03*
X123555000Y-127300000D03*
X124825000Y-127300000D03*
X126095000Y-127300000D03*
X127365000Y-127300000D03*
X128635000Y-127300000D03*
X129905000Y-127300000D03*
X131175000Y-127300000D03*
X132445000Y-127300000D03*
D24*
X112700000Y-123095000D03*
X112700000Y-124365000D03*
X112700000Y-125635000D03*
X112700000Y-126905000D03*
X107300000Y-126905000D03*
X107300000Y-125635000D03*
X107300000Y-124365000D03*
X107300000Y-123095000D03*
D25*
X64000000Y-143500000D03*
X156000000Y-143500000D03*
X156000000Y-106500000D03*
X64000000Y-106500000D03*
D26*
X71500000Y-112320000D03*
X71500000Y-141680000D03*
M02*
