G04 #@! TF.GenerationSoftware,KiCad,Pcbnew,(5.0.0-rc2-dev-482-gf81c77cd4)*
G04 #@! TF.CreationDate,2018-05-10T20:02:33+02:00*
G04 #@! TF.ProjectId,score_board,73636F72655F626F6172642E6B696361,1*
G04 #@! TF.SameCoordinates,Original*
G04 #@! TF.FileFunction,Copper,L1,Top,Signal*
G04 #@! TF.FilePolarity,Positive*
%FSLAX46Y46*%
G04 Gerber Fmt 4.6, Leading zero omitted, Abs format (unit mm)*
G04 Created by KiCad (PCBNEW (5.0.0-rc2-dev-482-gf81c77cd4)) date Thu May 10 20:02:33 2018*
%MOMM*%
%LPD*%
G01*
G04 APERTURE LIST*
%ADD10R,1.620000X1.670000*%
%ADD11R,1.670000X1.620000*%
%ADD12R,0.500000X0.800000*%
%ADD13R,0.300000X0.800000*%
%ADD14C,1.000000*%
%ADD15C,0.700000*%
%ADD16C,0.381000*%
%ADD17C,0.762000*%
%ADD18C,0.254000*%
G04 APERTURE END LIST*
D10*
X141430000Y-145000000D03*
X138570000Y-145000000D03*
X78570000Y-145000000D03*
X81430000Y-145000000D03*
X81430000Y-105000000D03*
X78570000Y-105000000D03*
X138570000Y-105000000D03*
X141430000Y-105000000D03*
D11*
X87250000Y-132280000D03*
X87250000Y-129420000D03*
X100250000Y-129420000D03*
X100250000Y-132280000D03*
X106750000Y-132280000D03*
X106750000Y-129420000D03*
X113250000Y-129420000D03*
X113250000Y-132280000D03*
X119750000Y-132280000D03*
X119750000Y-129420000D03*
X126250000Y-129420000D03*
X126250000Y-132280000D03*
X132750000Y-132280000D03*
X132750000Y-129420000D03*
X139250000Y-129420000D03*
X139250000Y-132280000D03*
X80750000Y-132280000D03*
X80750000Y-129420000D03*
X93750000Y-129420000D03*
X93750000Y-132280000D03*
X139250000Y-117720000D03*
X139250000Y-120580000D03*
X126250000Y-120580000D03*
X126250000Y-117720000D03*
X119750000Y-117720000D03*
X119750000Y-120580000D03*
X106750000Y-120580000D03*
X106750000Y-117720000D03*
X100250000Y-117720000D03*
X100250000Y-120580000D03*
X93750000Y-120580000D03*
X93750000Y-117720000D03*
X87250000Y-120580000D03*
X87250000Y-117720000D03*
X132750000Y-120580000D03*
X132750000Y-117720000D03*
X80750000Y-120580000D03*
X80750000Y-117720000D03*
X113250000Y-120580000D03*
X113250000Y-117720000D03*
D12*
X109100000Y-125850000D03*
D13*
X110000000Y-125850000D03*
D12*
X110900000Y-125850000D03*
X110900000Y-124150000D03*
D13*
X110000000Y-124150000D03*
D12*
X109100000Y-124150000D03*
D14*
X105100000Y-123030000D03*
X132760000Y-125110000D03*
X120050000Y-124450000D03*
X114740000Y-122300000D03*
X95960000Y-125930000D03*
X85330000Y-123480000D03*
X130460000Y-124450000D03*
D15*
X109120000Y-127790000D03*
X109550000Y-132280000D03*
D14*
X74400000Y-141600000D03*
X71600000Y-143800000D03*
X68800000Y-141600000D03*
X71600000Y-139400000D03*
X110220000Y-127160000D03*
X100760000Y-124550000D03*
X103570000Y-121160000D03*
X121900000Y-133160000D03*
X122670000Y-134510000D03*
X137950000Y-124960000D03*
X141100000Y-119570000D03*
X134840000Y-120490000D03*
X128240000Y-120540000D03*
X121520000Y-119100000D03*
X115680000Y-118980000D03*
X115110000Y-120330000D03*
X109840000Y-117990000D03*
X110810000Y-120990000D03*
X102270000Y-119680000D03*
X97200000Y-120570000D03*
X97870000Y-119420000D03*
X91170000Y-119990000D03*
X89300000Y-124770000D03*
X87290000Y-125840000D03*
X85530000Y-124810000D03*
X93740000Y-136910000D03*
X98540000Y-139850000D03*
X98430000Y-136750000D03*
X91510000Y-133140000D03*
X83920000Y-132450000D03*
X77650000Y-132520000D03*
X102000000Y-132440000D03*
X103560000Y-137290000D03*
X143760000Y-128020000D03*
X141550000Y-124020000D03*
X141420000Y-125710000D03*
X141860000Y-127450000D03*
X137250000Y-132430000D03*
X134240000Y-134410000D03*
X129680000Y-130830000D03*
X109820000Y-137310000D03*
X82670000Y-120630000D03*
X84130000Y-120570000D03*
X136400000Y-144910000D03*
X77710000Y-142490000D03*
X136510000Y-105040000D03*
X133940000Y-145690000D03*
X121950000Y-145800000D03*
X110120000Y-145760000D03*
X87890000Y-143650000D03*
X93940000Y-145740000D03*
X117480000Y-125920000D03*
X120160000Y-127250000D03*
X101830000Y-113760000D03*
X120750000Y-113270000D03*
X99490000Y-127180000D03*
X90110000Y-138030000D03*
X87370000Y-134580000D03*
X105810000Y-142610000D03*
X119050000Y-136480000D03*
X134320000Y-141080000D03*
X86020000Y-136850000D03*
X83960000Y-115570000D03*
X82600000Y-124980000D03*
X110180000Y-113380000D03*
X151790000Y-110320000D03*
X152950000Y-137640000D03*
X95800000Y-107930000D03*
X95800000Y-106440000D03*
X95800000Y-105010000D03*
X68110000Y-106700000D03*
X92030000Y-113590000D03*
X79470000Y-126450000D03*
X82590000Y-106900000D03*
D15*
X134590000Y-131000000D03*
X128490000Y-135390000D03*
X128470000Y-138000000D03*
X114990000Y-131780000D03*
X108520000Y-139789998D03*
X105470000Y-139480000D03*
X96110000Y-132760000D03*
X136230000Y-130450000D03*
X98130000Y-145710000D03*
X95070000Y-138300000D03*
X116160000Y-135960000D03*
X115740000Y-128430000D03*
X116130000Y-142200000D03*
X121620000Y-141310000D03*
X110480000Y-141280000D03*
X114430000Y-125630000D03*
X107250000Y-128000000D03*
X104530000Y-134250000D03*
X104540000Y-129240000D03*
X116650000Y-133180000D03*
X125940000Y-125420000D03*
X97470000Y-131530000D03*
X97299998Y-130170000D03*
X105550000Y-124360000D03*
X103690000Y-131620000D03*
X103730000Y-130000000D03*
X105560000Y-126450000D03*
X98570000Y-117170000D03*
X80800000Y-114080000D03*
X87310000Y-114750000D03*
X88580000Y-115830000D03*
X78730000Y-129200000D03*
X125420000Y-109810000D03*
X133370000Y-115240000D03*
X129820000Y-110490000D03*
X130600000Y-109670000D03*
X113750000Y-110130000D03*
X107410000Y-110140000D03*
X82390000Y-127290000D03*
X96240000Y-109860000D03*
X141760000Y-107040000D03*
X96200941Y-114769945D03*
X95340000Y-109840000D03*
X83820000Y-104880000D03*
X95350000Y-115210000D03*
X89790000Y-129650000D03*
X81930000Y-143150000D03*
X90540000Y-125380000D03*
X141960000Y-143110000D03*
X90660000Y-130470000D03*
X91840000Y-125730000D03*
D16*
X110610000Y-123030000D02*
X105100000Y-123030000D01*
X110900000Y-124150000D02*
X110900000Y-123320000D01*
X110900000Y-123320000D02*
X110610000Y-123030000D01*
D17*
X132760000Y-125110000D02*
X132100000Y-124450000D01*
X105830000Y-122300000D02*
X105100000Y-123030000D01*
X114740000Y-122300000D02*
X105830000Y-122300000D01*
X95252894Y-125930000D02*
X92542894Y-123220000D01*
X95960000Y-125930000D02*
X95252894Y-125930000D01*
X92542894Y-123220000D02*
X85590000Y-123220000D01*
X85590000Y-123220000D02*
X85330000Y-123480000D01*
X132100000Y-124450000D02*
X130460000Y-124450000D01*
X130460000Y-124450000D02*
X120050000Y-124450000D01*
D16*
X109120000Y-127790000D02*
X109120000Y-131850000D01*
X109120000Y-131850000D02*
X109200001Y-131930001D01*
X109200001Y-131930001D02*
X109550000Y-132280000D01*
X110900000Y-125850000D02*
X110900000Y-126480000D01*
X110900000Y-126480000D02*
X110220000Y-127160000D01*
X134590000Y-131000000D02*
X134590000Y-129840000D01*
X134170000Y-129420000D02*
X132750000Y-129420000D01*
X134590000Y-129840000D02*
X134170000Y-129420000D01*
X128490000Y-131635000D02*
X128490000Y-134895026D01*
X126250000Y-129420000D02*
X126275000Y-129420000D01*
X126275000Y-129420000D02*
X128490000Y-131635000D01*
X128490000Y-134895026D02*
X128490000Y-135390000D01*
X128100000Y-138000000D02*
X128470000Y-138000000D01*
X119750000Y-129420000D02*
X119750000Y-129650000D01*
X119750000Y-129650000D02*
X128100000Y-138000000D01*
X114990000Y-131135000D02*
X114990000Y-131285026D01*
X113250000Y-129420000D02*
X113275000Y-129420000D01*
X113275000Y-129420000D02*
X114990000Y-131135000D01*
X114990000Y-131285026D02*
X114990000Y-131780000D01*
X108520000Y-131165000D02*
X108520000Y-139295024D01*
X108520000Y-139295024D02*
X108520000Y-139789998D01*
X106775000Y-129420000D02*
X108520000Y-131165000D01*
X106750000Y-129420000D02*
X106775000Y-129420000D01*
X105120001Y-139130001D02*
X105120001Y-135930001D01*
X105470000Y-139480000D02*
X105120001Y-139130001D01*
X105120001Y-135930001D02*
X102880000Y-133690000D01*
X102880000Y-133690000D02*
X102880000Y-130610000D01*
X101690000Y-129420000D02*
X100250000Y-129420000D01*
X102880000Y-130610000D02*
X101690000Y-129420000D01*
X96110000Y-132760000D02*
X96110000Y-130230000D01*
X95300000Y-129420000D02*
X93750000Y-129420000D01*
X96110000Y-130230000D02*
X95300000Y-129420000D01*
X137260000Y-129420000D02*
X139250000Y-129420000D01*
X136230000Y-130450000D02*
X137260000Y-129420000D01*
D18*
X98130000Y-145710000D02*
X95070000Y-142650000D01*
X95070000Y-142650000D02*
X95070000Y-138300000D01*
X116160000Y-135465026D02*
X115760000Y-135065026D01*
X116160000Y-135960000D02*
X116160000Y-135465026D01*
X115760000Y-135065026D02*
X115760000Y-128450000D01*
X115760000Y-128450000D02*
X115740000Y-128430000D01*
X116160000Y-135960000D02*
X116160000Y-142170000D01*
X116160000Y-142170000D02*
X116130000Y-142200000D01*
X114160000Y-125630000D02*
X114430000Y-125630000D01*
X111430000Y-128360000D02*
X114160000Y-125630000D01*
X110480000Y-141280000D02*
X111430000Y-140330000D01*
X111430000Y-140330000D02*
X111430000Y-128360000D01*
X109100000Y-126000000D02*
X107250000Y-127850000D01*
X107250000Y-127850000D02*
X107250000Y-128000000D01*
X109100000Y-125850000D02*
X109100000Y-126000000D01*
X104530000Y-129250000D02*
X104540000Y-129240000D01*
X104530000Y-134250000D02*
X104530000Y-129250000D01*
X97470000Y-130340002D02*
X97299998Y-130170000D01*
X97470000Y-131530000D02*
X97470000Y-130340002D01*
X120000000Y-125420000D02*
X125940000Y-125420000D01*
X116650000Y-133180000D02*
X116650000Y-128770000D01*
X116650000Y-128770000D02*
X120000000Y-125420000D01*
X109824000Y-125020000D02*
X110000000Y-125196000D01*
X108250000Y-125020000D02*
X109824000Y-125020000D01*
X107590000Y-124360000D02*
X108250000Y-125020000D01*
X110000000Y-125196000D02*
X110000000Y-125850000D01*
X105550000Y-124360000D02*
X107590000Y-124360000D01*
X103690000Y-131620000D02*
X103690000Y-130040000D01*
X103690000Y-130040000D02*
X103730000Y-130000000D01*
X105560000Y-124370000D02*
X105550000Y-124360000D01*
X105560000Y-126450000D02*
X105560000Y-124370000D01*
D16*
X99700000Y-117170000D02*
X100250000Y-117720000D01*
X98570000Y-117170000D02*
X99700000Y-117170000D01*
X80800000Y-117670000D02*
X80750000Y-117720000D01*
X80800000Y-114080000D02*
X80800000Y-117670000D01*
X87310000Y-117660000D02*
X87250000Y-117720000D01*
X87310000Y-114750000D02*
X87310000Y-117660000D01*
X93750000Y-116529000D02*
X93750000Y-117720000D01*
X93051000Y-115830000D02*
X93750000Y-116529000D01*
X88580000Y-115830000D02*
X93051000Y-115830000D01*
X80530000Y-129200000D02*
X80750000Y-129420000D01*
X78730000Y-129200000D02*
X80530000Y-129200000D01*
X125420000Y-109810000D02*
X126550000Y-108680000D01*
X139250000Y-110970000D02*
X136960000Y-108680000D01*
X139250000Y-117720000D02*
X139250000Y-110970000D01*
X126550000Y-108680000D02*
X136960000Y-108680000D01*
X132750000Y-117720000D02*
X132750000Y-115860000D01*
X132750000Y-115860000D02*
X133370000Y-115240000D01*
X129820000Y-116250000D02*
X129820000Y-110490000D01*
X126250000Y-117720000D02*
X128350000Y-117720000D01*
X128350000Y-117720000D02*
X129820000Y-116250000D01*
X119750000Y-116529000D02*
X119750000Y-117720000D01*
X130600000Y-109670000D02*
X126609000Y-109670000D01*
X126609000Y-109670000D02*
X119750000Y-116529000D01*
X113750000Y-110130000D02*
X113240000Y-110640000D01*
X113250000Y-110650000D02*
X113250000Y-117720000D01*
X113240000Y-110640000D02*
X113250000Y-110650000D01*
X106750000Y-110800000D02*
X107060001Y-110489999D01*
X106750000Y-117720000D02*
X106750000Y-110800000D01*
X107060001Y-110489999D02*
X107410000Y-110140000D01*
X84520000Y-129420000D02*
X82739999Y-127639999D01*
X82739999Y-127639999D02*
X82390000Y-127290000D01*
X87250000Y-129420000D02*
X84520000Y-129420000D01*
X141760000Y-105330000D02*
X141430000Y-105000000D01*
X141760000Y-107040000D02*
X141760000Y-105330000D01*
X96240000Y-109860000D02*
X96240000Y-114730886D01*
X96240000Y-114730886D02*
X96200941Y-114769945D01*
X81550000Y-104880000D02*
X81430000Y-105000000D01*
X83820000Y-104880000D02*
X81550000Y-104880000D01*
X95340000Y-109840000D02*
X95340000Y-115200000D01*
X95340000Y-115200000D02*
X95350000Y-115210000D01*
X81930000Y-144500000D02*
X81430000Y-145000000D01*
X81930000Y-143150000D02*
X81930000Y-144500000D01*
X90190001Y-125729999D02*
X90540000Y-125380000D01*
X89790000Y-129650000D02*
X89790000Y-126130000D01*
X89790000Y-126130000D02*
X90190001Y-125729999D01*
X141430000Y-145000000D02*
X141430000Y-143640000D01*
X141430000Y-143640000D02*
X141960000Y-143110000D01*
X90660000Y-130470000D02*
X91840000Y-129290000D01*
X91840000Y-129290000D02*
X91840000Y-125730000D01*
D18*
G36*
X157519918Y-103300594D02*
X158011944Y-103479191D01*
X158449692Y-103766192D01*
X158809668Y-104146190D01*
X159072576Y-104598821D01*
X159227220Y-105109416D01*
X159265000Y-105532732D01*
X159265001Y-144457290D01*
X159199405Y-145019918D01*
X159020809Y-145511944D01*
X158733810Y-145949689D01*
X158353807Y-146309670D01*
X157901180Y-146572576D01*
X157390584Y-146727220D01*
X156967269Y-146765000D01*
X63042702Y-146765000D01*
X62480082Y-146699405D01*
X61988056Y-146520809D01*
X61550311Y-146233810D01*
X61190330Y-145853807D01*
X60927424Y-145401180D01*
X60772780Y-144890584D01*
X60735000Y-144467269D01*
X60735000Y-143055431D01*
X61765000Y-143055431D01*
X61765000Y-143944569D01*
X62105259Y-144766026D01*
X62733974Y-145394741D01*
X63555431Y-145735000D01*
X64444569Y-145735000D01*
X65266026Y-145394741D01*
X65375017Y-145285750D01*
X77125000Y-145285750D01*
X77125000Y-145961310D01*
X77221673Y-146194699D01*
X77400302Y-146373327D01*
X77633691Y-146470000D01*
X78284250Y-146470000D01*
X78443000Y-146311250D01*
X78443000Y-145127000D01*
X77283750Y-145127000D01*
X77125000Y-145285750D01*
X65375017Y-145285750D01*
X65894741Y-144766026D01*
X66196013Y-144038690D01*
X77125000Y-144038690D01*
X77125000Y-144714250D01*
X77283750Y-144873000D01*
X78443000Y-144873000D01*
X78443000Y-143688750D01*
X78697000Y-143688750D01*
X78697000Y-144873000D01*
X78717000Y-144873000D01*
X78717000Y-145127000D01*
X78697000Y-145127000D01*
X78697000Y-146311250D01*
X78855750Y-146470000D01*
X79506309Y-146470000D01*
X79739698Y-146373327D01*
X79918327Y-146194699D01*
X80003302Y-145989552D01*
X80021843Y-146082765D01*
X80162191Y-146292809D01*
X80372235Y-146433157D01*
X80620000Y-146482440D01*
X82240000Y-146482440D01*
X82487765Y-146433157D01*
X82697809Y-146292809D01*
X82838157Y-146082765D01*
X82887440Y-145835000D01*
X82887440Y-144165000D01*
X82838157Y-143917235D01*
X82755500Y-143793531D01*
X82755500Y-143717500D01*
X82765042Y-143707958D01*
X82915000Y-143345929D01*
X82915000Y-142954071D01*
X82765042Y-142592042D01*
X82487958Y-142314958D01*
X82125929Y-142165000D01*
X81734071Y-142165000D01*
X81372042Y-142314958D01*
X81094958Y-142592042D01*
X80945000Y-142954071D01*
X80945000Y-143345929D01*
X81016092Y-143517560D01*
X80620000Y-143517560D01*
X80372235Y-143566843D01*
X80162191Y-143707191D01*
X80021843Y-143917235D01*
X80003302Y-144010448D01*
X79918327Y-143805301D01*
X79739698Y-143626673D01*
X79506309Y-143530000D01*
X78855750Y-143530000D01*
X78697000Y-143688750D01*
X78443000Y-143688750D01*
X78284250Y-143530000D01*
X77633691Y-143530000D01*
X77400302Y-143626673D01*
X77221673Y-143805301D01*
X77125000Y-144038690D01*
X66196013Y-144038690D01*
X66235000Y-143944569D01*
X66235000Y-143055431D01*
X65894741Y-142233974D01*
X65266026Y-141605259D01*
X64708283Y-141374234D01*
X67665000Y-141374234D01*
X67665000Y-141825766D01*
X67837793Y-142242926D01*
X68157074Y-142562207D01*
X68574234Y-142735000D01*
X69025766Y-142735000D01*
X69442926Y-142562207D01*
X69762207Y-142242926D01*
X69935000Y-141825766D01*
X69935000Y-141374234D01*
X69762207Y-140957074D01*
X69442926Y-140637793D01*
X69025766Y-140465000D01*
X68574234Y-140465000D01*
X68157074Y-140637793D01*
X67837793Y-140957074D01*
X67665000Y-141374234D01*
X64708283Y-141374234D01*
X64444569Y-141265000D01*
X63555431Y-141265000D01*
X62733974Y-141605259D01*
X62105259Y-142233974D01*
X61765000Y-143055431D01*
X60735000Y-143055431D01*
X60735000Y-138104071D01*
X94085000Y-138104071D01*
X94085000Y-138495929D01*
X94234958Y-138857958D01*
X94308001Y-138931001D01*
X94308000Y-142574957D01*
X94293073Y-142650000D01*
X94308000Y-142725043D01*
X94308000Y-142725047D01*
X94352212Y-142947316D01*
X94520629Y-143199371D01*
X94584253Y-143241883D01*
X97145000Y-145802631D01*
X97145000Y-145905929D01*
X97294958Y-146267958D01*
X97572042Y-146545042D01*
X97934071Y-146695000D01*
X98325929Y-146695000D01*
X98687958Y-146545042D01*
X98965042Y-146267958D01*
X99115000Y-145905929D01*
X99115000Y-145514071D01*
X99020426Y-145285750D01*
X137125000Y-145285750D01*
X137125000Y-145961310D01*
X137221673Y-146194699D01*
X137400302Y-146373327D01*
X137633691Y-146470000D01*
X138284250Y-146470000D01*
X138443000Y-146311250D01*
X138443000Y-145127000D01*
X137283750Y-145127000D01*
X137125000Y-145285750D01*
X99020426Y-145285750D01*
X98965042Y-145152042D01*
X98687958Y-144874958D01*
X98325929Y-144725000D01*
X98222631Y-144725000D01*
X97536321Y-144038690D01*
X137125000Y-144038690D01*
X137125000Y-144714250D01*
X137283750Y-144873000D01*
X138443000Y-144873000D01*
X138443000Y-143688750D01*
X138697000Y-143688750D01*
X138697000Y-144873000D01*
X138717000Y-144873000D01*
X138717000Y-145127000D01*
X138697000Y-145127000D01*
X138697000Y-146311250D01*
X138855750Y-146470000D01*
X139506309Y-146470000D01*
X139739698Y-146373327D01*
X139918327Y-146194699D01*
X140003302Y-145989552D01*
X140021843Y-146082765D01*
X140162191Y-146292809D01*
X140372235Y-146433157D01*
X140620000Y-146482440D01*
X142240000Y-146482440D01*
X142487765Y-146433157D01*
X142697809Y-146292809D01*
X142838157Y-146082765D01*
X142887440Y-145835000D01*
X142887440Y-144165000D01*
X142838157Y-143917235D01*
X142721041Y-143741959D01*
X142795042Y-143667958D01*
X142945000Y-143305929D01*
X142945000Y-143055431D01*
X153765000Y-143055431D01*
X153765000Y-143944569D01*
X154105259Y-144766026D01*
X154733974Y-145394741D01*
X155555431Y-145735000D01*
X156444569Y-145735000D01*
X157266026Y-145394741D01*
X157894741Y-144766026D01*
X158235000Y-143944569D01*
X158235000Y-143055431D01*
X157894741Y-142233974D01*
X157266026Y-141605259D01*
X156444569Y-141265000D01*
X155555431Y-141265000D01*
X154733974Y-141605259D01*
X154105259Y-142233974D01*
X153765000Y-143055431D01*
X142945000Y-143055431D01*
X142945000Y-142914071D01*
X142795042Y-142552042D01*
X142517958Y-142274958D01*
X142155929Y-142125000D01*
X141764071Y-142125000D01*
X141402042Y-142274958D01*
X141124958Y-142552042D01*
X140975000Y-142914071D01*
X140975000Y-142927568D01*
X140903774Y-142998793D01*
X140834849Y-143044848D01*
X140788794Y-143113774D01*
X140652397Y-143317906D01*
X140612382Y-143519075D01*
X140372235Y-143566843D01*
X140162191Y-143707191D01*
X140021843Y-143917235D01*
X140003302Y-144010448D01*
X139918327Y-143805301D01*
X139739698Y-143626673D01*
X139506309Y-143530000D01*
X138855750Y-143530000D01*
X138697000Y-143688750D01*
X138443000Y-143688750D01*
X138284250Y-143530000D01*
X137633691Y-143530000D01*
X137400302Y-143626673D01*
X137221673Y-143805301D01*
X137125000Y-144038690D01*
X97536321Y-144038690D01*
X95832000Y-142334370D01*
X95832000Y-141084071D01*
X109495000Y-141084071D01*
X109495000Y-141475929D01*
X109644958Y-141837958D01*
X109922042Y-142115042D01*
X110284071Y-142265000D01*
X110675929Y-142265000D01*
X111037958Y-142115042D01*
X111315042Y-141837958D01*
X111465000Y-141475929D01*
X111465000Y-141372630D01*
X111915750Y-140921881D01*
X111979371Y-140879371D01*
X112147788Y-140627317D01*
X112192000Y-140405048D01*
X112192000Y-140405047D01*
X112206928Y-140330000D01*
X112192000Y-140254953D01*
X112192000Y-133684950D01*
X112288690Y-133725000D01*
X112964250Y-133725000D01*
X113123000Y-133566250D01*
X113123000Y-132407000D01*
X113103000Y-132407000D01*
X113103000Y-132153000D01*
X113123000Y-132153000D01*
X113123000Y-132133000D01*
X113377000Y-132133000D01*
X113377000Y-132153000D01*
X113397000Y-132153000D01*
X113397000Y-132407000D01*
X113377000Y-132407000D01*
X113377000Y-133566250D01*
X113535750Y-133725000D01*
X114211310Y-133725000D01*
X114444699Y-133628327D01*
X114623327Y-133449698D01*
X114720000Y-133216309D01*
X114720000Y-132734319D01*
X114794071Y-132765000D01*
X114998000Y-132765000D01*
X114998000Y-134989983D01*
X114983073Y-135065026D01*
X114998000Y-135140069D01*
X114998000Y-135140073D01*
X115042212Y-135362342D01*
X115210629Y-135614397D01*
X115231281Y-135628196D01*
X115175000Y-135764071D01*
X115175000Y-136155929D01*
X115324958Y-136517958D01*
X115398000Y-136591000D01*
X115398001Y-141538999D01*
X115294958Y-141642042D01*
X115145000Y-142004071D01*
X115145000Y-142395929D01*
X115294958Y-142757958D01*
X115572042Y-143035042D01*
X115934071Y-143185000D01*
X116325929Y-143185000D01*
X116687958Y-143035042D01*
X116965042Y-142757958D01*
X117115000Y-142395929D01*
X117115000Y-142004071D01*
X116965042Y-141642042D01*
X116922000Y-141599000D01*
X116922000Y-141114071D01*
X120635000Y-141114071D01*
X120635000Y-141505929D01*
X120784958Y-141867958D01*
X121062042Y-142145042D01*
X121424071Y-142295000D01*
X121815929Y-142295000D01*
X122177958Y-142145042D01*
X122455042Y-141867958D01*
X122605000Y-141505929D01*
X122605000Y-141114071D01*
X122455042Y-140752042D01*
X122177958Y-140474958D01*
X121815929Y-140325000D01*
X121424071Y-140325000D01*
X121062042Y-140474958D01*
X120784958Y-140752042D01*
X120635000Y-141114071D01*
X116922000Y-141114071D01*
X116922000Y-136591000D01*
X116995042Y-136517958D01*
X117145000Y-136155929D01*
X117145000Y-135764071D01*
X116995042Y-135402042D01*
X116906859Y-135313859D01*
X116877788Y-135167709D01*
X116709371Y-134915655D01*
X116645746Y-134873142D01*
X116522000Y-134749396D01*
X116522000Y-134165000D01*
X116845929Y-134165000D01*
X117207958Y-134015042D01*
X117485042Y-133737958D01*
X117635000Y-133375929D01*
X117635000Y-132984071D01*
X117485042Y-132622042D01*
X117428750Y-132565750D01*
X118280000Y-132565750D01*
X118280000Y-133216309D01*
X118376673Y-133449698D01*
X118555301Y-133628327D01*
X118788690Y-133725000D01*
X119464250Y-133725000D01*
X119623000Y-133566250D01*
X119623000Y-132407000D01*
X118438750Y-132407000D01*
X118280000Y-132565750D01*
X117428750Y-132565750D01*
X117412000Y-132549000D01*
X117412000Y-129085630D01*
X117887630Y-128610000D01*
X118267560Y-128610000D01*
X118267560Y-130230000D01*
X118316843Y-130477765D01*
X118457191Y-130687809D01*
X118667235Y-130828157D01*
X118760448Y-130846698D01*
X118555301Y-130931673D01*
X118376673Y-131110302D01*
X118280000Y-131343691D01*
X118280000Y-131994250D01*
X118438750Y-132153000D01*
X119623000Y-132153000D01*
X119623000Y-132133000D01*
X119877000Y-132133000D01*
X119877000Y-132153000D01*
X119897000Y-132153000D01*
X119897000Y-132407000D01*
X119877000Y-132407000D01*
X119877000Y-133566250D01*
X120035750Y-133725000D01*
X120711310Y-133725000D01*
X120944699Y-133628327D01*
X121123327Y-133449698D01*
X121220000Y-133216309D01*
X121220000Y-132565750D01*
X121061252Y-132407002D01*
X121220000Y-132407002D01*
X121220000Y-132287432D01*
X127458793Y-138526226D01*
X127504848Y-138595152D01*
X127777906Y-138777604D01*
X127873648Y-138796648D01*
X127912042Y-138835042D01*
X128274071Y-138985000D01*
X128665929Y-138985000D01*
X129027958Y-138835042D01*
X129305042Y-138557958D01*
X129455000Y-138195929D01*
X129455000Y-137804071D01*
X129305042Y-137442042D01*
X129027958Y-137164958D01*
X128665929Y-137015000D01*
X128282433Y-137015000D01*
X123833183Y-132565750D01*
X124780000Y-132565750D01*
X124780000Y-133216309D01*
X124876673Y-133449698D01*
X125055301Y-133628327D01*
X125288690Y-133725000D01*
X125964250Y-133725000D01*
X126123000Y-133566250D01*
X126123000Y-132407000D01*
X124938750Y-132407000D01*
X124780000Y-132565750D01*
X123833183Y-132565750D01*
X121232440Y-129965008D01*
X121232440Y-128610000D01*
X124767560Y-128610000D01*
X124767560Y-130230000D01*
X124816843Y-130477765D01*
X124957191Y-130687809D01*
X125167235Y-130828157D01*
X125260448Y-130846698D01*
X125055301Y-130931673D01*
X124876673Y-131110302D01*
X124780000Y-131343691D01*
X124780000Y-131994250D01*
X124938750Y-132153000D01*
X126123000Y-132153000D01*
X126123000Y-132133000D01*
X126377000Y-132133000D01*
X126377000Y-132153000D01*
X126397000Y-132153000D01*
X126397000Y-132407000D01*
X126377000Y-132407000D01*
X126377000Y-133566250D01*
X126535750Y-133725000D01*
X127211310Y-133725000D01*
X127444699Y-133628327D01*
X127623327Y-133449698D01*
X127664501Y-133350296D01*
X127664501Y-134813719D01*
X127664500Y-134813724D01*
X127664500Y-134822500D01*
X127654958Y-134832042D01*
X127505000Y-135194071D01*
X127505000Y-135585929D01*
X127654958Y-135947958D01*
X127932042Y-136225042D01*
X128294071Y-136375000D01*
X128685929Y-136375000D01*
X129047958Y-136225042D01*
X129325042Y-135947958D01*
X129475000Y-135585929D01*
X129475000Y-135194071D01*
X129325042Y-134832042D01*
X129315500Y-134822500D01*
X129315500Y-132565750D01*
X131280000Y-132565750D01*
X131280000Y-133216309D01*
X131376673Y-133449698D01*
X131555301Y-133628327D01*
X131788690Y-133725000D01*
X132464250Y-133725000D01*
X132623000Y-133566250D01*
X132623000Y-132407000D01*
X132877000Y-132407000D01*
X132877000Y-133566250D01*
X133035750Y-133725000D01*
X133711310Y-133725000D01*
X133944699Y-133628327D01*
X134123327Y-133449698D01*
X134220000Y-133216309D01*
X134220000Y-132565750D01*
X137780000Y-132565750D01*
X137780000Y-133216309D01*
X137876673Y-133449698D01*
X138055301Y-133628327D01*
X138288690Y-133725000D01*
X138964250Y-133725000D01*
X139123000Y-133566250D01*
X139123000Y-132407000D01*
X139377000Y-132407000D01*
X139377000Y-133566250D01*
X139535750Y-133725000D01*
X140211310Y-133725000D01*
X140444699Y-133628327D01*
X140623327Y-133449698D01*
X140720000Y-133216309D01*
X140720000Y-132565750D01*
X140561250Y-132407000D01*
X139377000Y-132407000D01*
X139123000Y-132407000D01*
X137938750Y-132407000D01*
X137780000Y-132565750D01*
X134220000Y-132565750D01*
X134061250Y-132407000D01*
X132877000Y-132407000D01*
X132623000Y-132407000D01*
X131438750Y-132407000D01*
X131280000Y-132565750D01*
X129315500Y-132565750D01*
X129315500Y-131716301D01*
X129331672Y-131634999D01*
X129302252Y-131487094D01*
X129267604Y-131312906D01*
X129085152Y-131039848D01*
X129016226Y-130993793D01*
X127732440Y-129710008D01*
X127732440Y-128610000D01*
X131267560Y-128610000D01*
X131267560Y-130230000D01*
X131316843Y-130477765D01*
X131457191Y-130687809D01*
X131667235Y-130828157D01*
X131760448Y-130846698D01*
X131555301Y-130931673D01*
X131376673Y-131110302D01*
X131280000Y-131343691D01*
X131280000Y-131994250D01*
X131438750Y-132153000D01*
X132623000Y-132153000D01*
X132623000Y-132133000D01*
X132877000Y-132133000D01*
X132877000Y-132153000D01*
X134061250Y-132153000D01*
X134220000Y-131994250D01*
X134220000Y-131912897D01*
X134394071Y-131985000D01*
X134785929Y-131985000D01*
X135147958Y-131835042D01*
X135425042Y-131557958D01*
X135575000Y-131195929D01*
X135575000Y-131188000D01*
X135672042Y-131285042D01*
X136034071Y-131435000D01*
X136425929Y-131435000D01*
X136787958Y-131285042D01*
X137065042Y-131007958D01*
X137215000Y-130645929D01*
X137215000Y-130632432D01*
X137601933Y-130245500D01*
X137770643Y-130245500D01*
X137816843Y-130477765D01*
X137957191Y-130687809D01*
X138167235Y-130828157D01*
X138260448Y-130846698D01*
X138055301Y-130931673D01*
X137876673Y-131110302D01*
X137780000Y-131343691D01*
X137780000Y-131994250D01*
X137938750Y-132153000D01*
X139123000Y-132153000D01*
X139123000Y-132133000D01*
X139377000Y-132133000D01*
X139377000Y-132153000D01*
X140561250Y-132153000D01*
X140720000Y-131994250D01*
X140720000Y-131343691D01*
X140623327Y-131110302D01*
X140444699Y-130931673D01*
X140239552Y-130846698D01*
X140332765Y-130828157D01*
X140542809Y-130687809D01*
X140683157Y-130477765D01*
X140732440Y-130230000D01*
X140732440Y-128610000D01*
X140683157Y-128362235D01*
X140542809Y-128152191D01*
X140332765Y-128011843D01*
X140085000Y-127962560D01*
X138415000Y-127962560D01*
X138167235Y-128011843D01*
X137957191Y-128152191D01*
X137816843Y-128362235D01*
X137770643Y-128594500D01*
X137341301Y-128594500D01*
X137260000Y-128578328D01*
X137178698Y-128594500D01*
X137178697Y-128594500D01*
X136937906Y-128642396D01*
X136664848Y-128824848D01*
X136618794Y-128893773D01*
X136047568Y-129465000D01*
X136034071Y-129465000D01*
X135672042Y-129614958D01*
X135427866Y-129859134D01*
X135431672Y-129840000D01*
X135367604Y-129517906D01*
X135332253Y-129465000D01*
X135185152Y-129244848D01*
X135116223Y-129198791D01*
X134811209Y-128893777D01*
X134765152Y-128824848D01*
X134492094Y-128642396D01*
X134251303Y-128594500D01*
X134251301Y-128594500D01*
X134228453Y-128589955D01*
X134183157Y-128362235D01*
X134042809Y-128152191D01*
X133832765Y-128011843D01*
X133585000Y-127962560D01*
X131915000Y-127962560D01*
X131667235Y-128011843D01*
X131457191Y-128152191D01*
X131316843Y-128362235D01*
X131267560Y-128610000D01*
X127732440Y-128610000D01*
X127683157Y-128362235D01*
X127542809Y-128152191D01*
X127332765Y-128011843D01*
X127085000Y-127962560D01*
X125415000Y-127962560D01*
X125167235Y-128011843D01*
X124957191Y-128152191D01*
X124816843Y-128362235D01*
X124767560Y-128610000D01*
X121232440Y-128610000D01*
X121183157Y-128362235D01*
X121042809Y-128152191D01*
X120832765Y-128011843D01*
X120585000Y-127962560D01*
X118915000Y-127962560D01*
X118667235Y-128011843D01*
X118457191Y-128152191D01*
X118316843Y-128362235D01*
X118267560Y-128610000D01*
X117887630Y-128610000D01*
X120315631Y-126182000D01*
X125309000Y-126182000D01*
X125382042Y-126255042D01*
X125744071Y-126405000D01*
X126135929Y-126405000D01*
X126497958Y-126255042D01*
X126775042Y-125977958D01*
X126925000Y-125615929D01*
X126925000Y-125466000D01*
X129946942Y-125466000D01*
X130234234Y-125585000D01*
X130685766Y-125585000D01*
X130973058Y-125466000D01*
X131678945Y-125466000D01*
X131797793Y-125752926D01*
X132117074Y-126072207D01*
X132534234Y-126245000D01*
X132985766Y-126245000D01*
X133402926Y-126072207D01*
X133722207Y-125752926D01*
X133895000Y-125335766D01*
X133895000Y-124884234D01*
X133722207Y-124467074D01*
X133402926Y-124147793D01*
X133115633Y-124028793D01*
X132889179Y-123802339D01*
X132832495Y-123717505D01*
X132496423Y-123492949D01*
X132200065Y-123434000D01*
X132200063Y-123434000D01*
X132100000Y-123414096D01*
X131999937Y-123434000D01*
X130973058Y-123434000D01*
X130685766Y-123315000D01*
X130234234Y-123315000D01*
X129946942Y-123434000D01*
X120563058Y-123434000D01*
X120275766Y-123315000D01*
X119824234Y-123315000D01*
X119407074Y-123487793D01*
X119087793Y-123807074D01*
X118915000Y-124224234D01*
X118915000Y-124675766D01*
X119087793Y-125092926D01*
X119168618Y-125173751D01*
X116522685Y-127819685D01*
X116297958Y-127594958D01*
X115935929Y-127445000D01*
X115544071Y-127445000D01*
X115182042Y-127594958D01*
X114904958Y-127872042D01*
X114755000Y-128234071D01*
X114755000Y-128625929D01*
X114904958Y-128987958D01*
X114998001Y-129081001D01*
X114998001Y-129975568D01*
X114732440Y-129710007D01*
X114732440Y-128610000D01*
X114683157Y-128362235D01*
X114542809Y-128152191D01*
X114332765Y-128011843D01*
X114085000Y-127962560D01*
X112905070Y-127962560D01*
X114252631Y-126615000D01*
X114625929Y-126615000D01*
X114987958Y-126465042D01*
X115265042Y-126187958D01*
X115415000Y-125825929D01*
X115415000Y-125434071D01*
X115265042Y-125072042D01*
X114987958Y-124794958D01*
X114625929Y-124645000D01*
X114234071Y-124645000D01*
X113872042Y-124794958D01*
X113594958Y-125072042D01*
X113562877Y-125149492D01*
X110944251Y-127768119D01*
X110880630Y-127810629D01*
X110838119Y-127874251D01*
X110838118Y-127874252D01*
X110712213Y-128062683D01*
X110653073Y-128360000D01*
X110668001Y-128435048D01*
X110668000Y-140014369D01*
X110387370Y-140295000D01*
X110284071Y-140295000D01*
X109922042Y-140444958D01*
X109644958Y-140722042D01*
X109495000Y-141084071D01*
X95832000Y-141084071D01*
X95832000Y-138931000D01*
X95905042Y-138857958D01*
X96055000Y-138495929D01*
X96055000Y-138104071D01*
X95905042Y-137742042D01*
X95627958Y-137464958D01*
X95265929Y-137315000D01*
X94874071Y-137315000D01*
X94512042Y-137464958D01*
X94234958Y-137742042D01*
X94085000Y-138104071D01*
X60735000Y-138104071D01*
X60735000Y-132565750D01*
X79280000Y-132565750D01*
X79280000Y-133216309D01*
X79376673Y-133449698D01*
X79555301Y-133628327D01*
X79788690Y-133725000D01*
X80464250Y-133725000D01*
X80623000Y-133566250D01*
X80623000Y-132407000D01*
X80877000Y-132407000D01*
X80877000Y-133566250D01*
X81035750Y-133725000D01*
X81711310Y-133725000D01*
X81944699Y-133628327D01*
X82123327Y-133449698D01*
X82220000Y-133216309D01*
X82220000Y-132565750D01*
X85780000Y-132565750D01*
X85780000Y-133216309D01*
X85876673Y-133449698D01*
X86055301Y-133628327D01*
X86288690Y-133725000D01*
X86964250Y-133725000D01*
X87123000Y-133566250D01*
X87123000Y-132407000D01*
X87377000Y-132407000D01*
X87377000Y-133566250D01*
X87535750Y-133725000D01*
X88211310Y-133725000D01*
X88444699Y-133628327D01*
X88623327Y-133449698D01*
X88720000Y-133216309D01*
X88720000Y-132565750D01*
X92280000Y-132565750D01*
X92280000Y-133216309D01*
X92376673Y-133449698D01*
X92555301Y-133628327D01*
X92788690Y-133725000D01*
X93464250Y-133725000D01*
X93623000Y-133566250D01*
X93623000Y-132407000D01*
X92438750Y-132407000D01*
X92280000Y-132565750D01*
X88720000Y-132565750D01*
X88561250Y-132407000D01*
X87377000Y-132407000D01*
X87123000Y-132407000D01*
X85938750Y-132407000D01*
X85780000Y-132565750D01*
X82220000Y-132565750D01*
X82061250Y-132407000D01*
X80877000Y-132407000D01*
X80623000Y-132407000D01*
X79438750Y-132407000D01*
X79280000Y-132565750D01*
X60735000Y-132565750D01*
X60735000Y-129004071D01*
X77745000Y-129004071D01*
X77745000Y-129395929D01*
X77894958Y-129757958D01*
X78172042Y-130035042D01*
X78534071Y-130185000D01*
X78925929Y-130185000D01*
X79267560Y-130043491D01*
X79267560Y-130230000D01*
X79316843Y-130477765D01*
X79457191Y-130687809D01*
X79667235Y-130828157D01*
X79760448Y-130846698D01*
X79555301Y-130931673D01*
X79376673Y-131110302D01*
X79280000Y-131343691D01*
X79280000Y-131994250D01*
X79438750Y-132153000D01*
X80623000Y-132153000D01*
X80623000Y-132133000D01*
X80877000Y-132133000D01*
X80877000Y-132153000D01*
X82061250Y-132153000D01*
X82220000Y-131994250D01*
X82220000Y-131343691D01*
X82123327Y-131110302D01*
X81944699Y-130931673D01*
X81739552Y-130846698D01*
X81832765Y-130828157D01*
X82042809Y-130687809D01*
X82183157Y-130477765D01*
X82232440Y-130230000D01*
X82232440Y-128610000D01*
X82183157Y-128362235D01*
X82098385Y-128235365D01*
X82194071Y-128275000D01*
X82207568Y-128275000D01*
X83878793Y-129946226D01*
X83924848Y-130015152D01*
X84197906Y-130197604D01*
X84436948Y-130245152D01*
X84520000Y-130261672D01*
X84601303Y-130245500D01*
X85770643Y-130245500D01*
X85816843Y-130477765D01*
X85957191Y-130687809D01*
X86167235Y-130828157D01*
X86260448Y-130846698D01*
X86055301Y-130931673D01*
X85876673Y-131110302D01*
X85780000Y-131343691D01*
X85780000Y-131994250D01*
X85938750Y-132153000D01*
X87123000Y-132153000D01*
X87123000Y-132133000D01*
X87377000Y-132133000D01*
X87377000Y-132153000D01*
X88561250Y-132153000D01*
X88720000Y-131994250D01*
X88720000Y-131343691D01*
X88623327Y-131110302D01*
X88444699Y-130931673D01*
X88239552Y-130846698D01*
X88332765Y-130828157D01*
X88542809Y-130687809D01*
X88683157Y-130477765D01*
X88732440Y-130230000D01*
X88732440Y-129454071D01*
X88805000Y-129454071D01*
X88805000Y-129845929D01*
X88954958Y-130207958D01*
X89232042Y-130485042D01*
X89594071Y-130635000D01*
X89675000Y-130635000D01*
X89675000Y-130665929D01*
X89824958Y-131027958D01*
X90102042Y-131305042D01*
X90464071Y-131455000D01*
X90855929Y-131455000D01*
X91217958Y-131305042D01*
X91495042Y-131027958D01*
X91645000Y-130665929D01*
X91645000Y-130652432D01*
X92267560Y-130029873D01*
X92267560Y-130230000D01*
X92316843Y-130477765D01*
X92457191Y-130687809D01*
X92667235Y-130828157D01*
X92760448Y-130846698D01*
X92555301Y-130931673D01*
X92376673Y-131110302D01*
X92280000Y-131343691D01*
X92280000Y-131994250D01*
X92438750Y-132153000D01*
X93623000Y-132153000D01*
X93623000Y-132133000D01*
X93877000Y-132133000D01*
X93877000Y-132153000D01*
X95061250Y-132153000D01*
X95220000Y-131994250D01*
X95220000Y-131343691D01*
X95123327Y-131110302D01*
X94944699Y-130931673D01*
X94739552Y-130846698D01*
X94832765Y-130828157D01*
X95042809Y-130687809D01*
X95183157Y-130477765D01*
X95184347Y-130471780D01*
X95284501Y-130571934D01*
X95284500Y-132192500D01*
X95274958Y-132202042D01*
X95152333Y-132498083D01*
X95061250Y-132407000D01*
X93877000Y-132407000D01*
X93877000Y-133566250D01*
X94035750Y-133725000D01*
X94711310Y-133725000D01*
X94944699Y-133628327D01*
X95123327Y-133449698D01*
X95220000Y-133216309D01*
X95220000Y-133185278D01*
X95274958Y-133317958D01*
X95552042Y-133595042D01*
X95914071Y-133745000D01*
X96305929Y-133745000D01*
X96667958Y-133595042D01*
X96945042Y-133317958D01*
X97095000Y-132955929D01*
X97095000Y-132565750D01*
X98780000Y-132565750D01*
X98780000Y-133216309D01*
X98876673Y-133449698D01*
X99055301Y-133628327D01*
X99288690Y-133725000D01*
X99964250Y-133725000D01*
X100123000Y-133566250D01*
X100123000Y-132407000D01*
X100377000Y-132407000D01*
X100377000Y-133566250D01*
X100535750Y-133725000D01*
X101211310Y-133725000D01*
X101444699Y-133628327D01*
X101623327Y-133449698D01*
X101720000Y-133216309D01*
X101720000Y-132565750D01*
X101561250Y-132407000D01*
X100377000Y-132407000D01*
X100123000Y-132407000D01*
X98938750Y-132407000D01*
X98780000Y-132565750D01*
X97095000Y-132565750D01*
X97095000Y-132564071D01*
X97033377Y-132415301D01*
X97274071Y-132515000D01*
X97665929Y-132515000D01*
X98027958Y-132365042D01*
X98305042Y-132087958D01*
X98455000Y-131725929D01*
X98455000Y-131334071D01*
X98305042Y-130972042D01*
X98232000Y-130899000D01*
X98232000Y-130493877D01*
X98284998Y-130365929D01*
X98284998Y-129974071D01*
X98135040Y-129612042D01*
X97857956Y-129334958D01*
X97495927Y-129185000D01*
X97104069Y-129185000D01*
X96742040Y-129334958D01*
X96562215Y-129514783D01*
X95941209Y-128893777D01*
X95895152Y-128824848D01*
X95622094Y-128642396D01*
X95459228Y-128610000D01*
X98767560Y-128610000D01*
X98767560Y-130230000D01*
X98816843Y-130477765D01*
X98957191Y-130687809D01*
X99167235Y-130828157D01*
X99260448Y-130846698D01*
X99055301Y-130931673D01*
X98876673Y-131110302D01*
X98780000Y-131343691D01*
X98780000Y-131994250D01*
X98938750Y-132153000D01*
X100123000Y-132153000D01*
X100123000Y-132133000D01*
X100377000Y-132133000D01*
X100377000Y-132153000D01*
X101561250Y-132153000D01*
X101720000Y-131994250D01*
X101720000Y-131343691D01*
X101623327Y-131110302D01*
X101444699Y-130931673D01*
X101239552Y-130846698D01*
X101332765Y-130828157D01*
X101542809Y-130687809D01*
X101641971Y-130539404D01*
X102054501Y-130951934D01*
X102054500Y-133608698D01*
X102038328Y-133690000D01*
X102054500Y-133771301D01*
X102054500Y-133771302D01*
X102102396Y-134012093D01*
X102284848Y-134285152D01*
X102353777Y-134331209D01*
X104294502Y-136271935D01*
X104294501Y-139048699D01*
X104278329Y-139130001D01*
X104294501Y-139211302D01*
X104294501Y-139211303D01*
X104342397Y-139452094D01*
X104485000Y-139665515D01*
X104485000Y-139675929D01*
X104634958Y-140037958D01*
X104912042Y-140315042D01*
X105274071Y-140465000D01*
X105665929Y-140465000D01*
X106027958Y-140315042D01*
X106305042Y-140037958D01*
X106455000Y-139675929D01*
X106455000Y-139284071D01*
X106305042Y-138922042D01*
X106027958Y-138644958D01*
X105945501Y-138610803D01*
X105945501Y-136011304D01*
X105961673Y-135930001D01*
X105897605Y-135607906D01*
X105802134Y-135465025D01*
X105715153Y-135334849D01*
X105646227Y-135288794D01*
X105265216Y-134907784D01*
X105365042Y-134807958D01*
X105515000Y-134445929D01*
X105515000Y-134054071D01*
X105365042Y-133692042D01*
X105292000Y-133619000D01*
X105292000Y-133245280D01*
X105376673Y-133449698D01*
X105555301Y-133628327D01*
X105788690Y-133725000D01*
X106464250Y-133725000D01*
X106623000Y-133566250D01*
X106623000Y-132407000D01*
X106603000Y-132407000D01*
X106603000Y-132153000D01*
X106623000Y-132153000D01*
X106623000Y-132133000D01*
X106877000Y-132133000D01*
X106877000Y-132153000D01*
X106897000Y-132153000D01*
X106897000Y-132407000D01*
X106877000Y-132407000D01*
X106877000Y-133566250D01*
X107035750Y-133725000D01*
X107694500Y-133725000D01*
X107694501Y-139213717D01*
X107694500Y-139213722D01*
X107694500Y-139222498D01*
X107684958Y-139232040D01*
X107535000Y-139594069D01*
X107535000Y-139985927D01*
X107684958Y-140347956D01*
X107962042Y-140625040D01*
X108324071Y-140774998D01*
X108715929Y-140774998D01*
X109077958Y-140625040D01*
X109355042Y-140347956D01*
X109505000Y-139985927D01*
X109505000Y-139594069D01*
X109355042Y-139232040D01*
X109345500Y-139222498D01*
X109345500Y-133261450D01*
X109354071Y-133265000D01*
X109745929Y-133265000D01*
X110107958Y-133115042D01*
X110385042Y-132837958D01*
X110535000Y-132475929D01*
X110535000Y-132084071D01*
X110385042Y-131722042D01*
X110107958Y-131444958D01*
X109945500Y-131377665D01*
X109945500Y-128357500D01*
X109955042Y-128347958D01*
X110105000Y-127985929D01*
X110105000Y-127594071D01*
X109955042Y-127232042D01*
X109677958Y-126954958D01*
X109477751Y-126872029D01*
X109597765Y-126848157D01*
X109600000Y-126846664D01*
X109602235Y-126848157D01*
X109850000Y-126897440D01*
X110150000Y-126897440D01*
X110397765Y-126848157D01*
X110411916Y-126838702D01*
X110523690Y-126885000D01*
X110616250Y-126885000D01*
X110775000Y-126726250D01*
X110775000Y-126362815D01*
X110797440Y-126250000D01*
X110797440Y-125977000D01*
X111025000Y-125977000D01*
X111025000Y-126726250D01*
X111183750Y-126885000D01*
X111276310Y-126885000D01*
X111509699Y-126788327D01*
X111688327Y-126609698D01*
X111785000Y-126376309D01*
X111785000Y-126135750D01*
X111626250Y-125977000D01*
X111025000Y-125977000D01*
X110797440Y-125977000D01*
X110797440Y-125703000D01*
X111025000Y-125703000D01*
X111025000Y-125723000D01*
X111626250Y-125723000D01*
X111785000Y-125564250D01*
X111785000Y-125323691D01*
X111688327Y-125090302D01*
X111606625Y-125008600D01*
X111607809Y-125007809D01*
X111748157Y-124797765D01*
X111797440Y-124550000D01*
X111797440Y-123750000D01*
X111748157Y-123502235D01*
X111725500Y-123468327D01*
X111725500Y-123401301D01*
X111741672Y-123320000D01*
X111740876Y-123316000D01*
X114226942Y-123316000D01*
X114514234Y-123435000D01*
X114965766Y-123435000D01*
X115382926Y-123262207D01*
X115702207Y-122942926D01*
X115875000Y-122525766D01*
X115875000Y-122074234D01*
X115702207Y-121657074D01*
X115382926Y-121337793D01*
X114965766Y-121165000D01*
X114720000Y-121165000D01*
X114720000Y-120865750D01*
X118280000Y-120865750D01*
X118280000Y-121516309D01*
X118376673Y-121749698D01*
X118555301Y-121928327D01*
X118788690Y-122025000D01*
X119464250Y-122025000D01*
X119623000Y-121866250D01*
X119623000Y-120707000D01*
X119877000Y-120707000D01*
X119877000Y-121866250D01*
X120035750Y-122025000D01*
X120711310Y-122025000D01*
X120944699Y-121928327D01*
X121123327Y-121749698D01*
X121220000Y-121516309D01*
X121220000Y-120865750D01*
X124780000Y-120865750D01*
X124780000Y-121516309D01*
X124876673Y-121749698D01*
X125055301Y-121928327D01*
X125288690Y-122025000D01*
X125964250Y-122025000D01*
X126123000Y-121866250D01*
X126123000Y-120707000D01*
X126377000Y-120707000D01*
X126377000Y-121866250D01*
X126535750Y-122025000D01*
X127211310Y-122025000D01*
X127444699Y-121928327D01*
X127623327Y-121749698D01*
X127720000Y-121516309D01*
X127720000Y-120865750D01*
X131280000Y-120865750D01*
X131280000Y-121516309D01*
X131376673Y-121749698D01*
X131555301Y-121928327D01*
X131788690Y-122025000D01*
X132464250Y-122025000D01*
X132623000Y-121866250D01*
X132623000Y-120707000D01*
X132877000Y-120707000D01*
X132877000Y-121866250D01*
X133035750Y-122025000D01*
X133711310Y-122025000D01*
X133944699Y-121928327D01*
X134123327Y-121749698D01*
X134220000Y-121516309D01*
X134220000Y-120865750D01*
X137780000Y-120865750D01*
X137780000Y-121516309D01*
X137876673Y-121749698D01*
X138055301Y-121928327D01*
X138288690Y-122025000D01*
X138964250Y-122025000D01*
X139123000Y-121866250D01*
X139123000Y-120707000D01*
X139377000Y-120707000D01*
X139377000Y-121866250D01*
X139535750Y-122025000D01*
X140211310Y-122025000D01*
X140444699Y-121928327D01*
X140623327Y-121749698D01*
X140720000Y-121516309D01*
X140720000Y-120865750D01*
X140561250Y-120707000D01*
X139377000Y-120707000D01*
X139123000Y-120707000D01*
X137938750Y-120707000D01*
X137780000Y-120865750D01*
X134220000Y-120865750D01*
X134061250Y-120707000D01*
X132877000Y-120707000D01*
X132623000Y-120707000D01*
X131438750Y-120707000D01*
X131280000Y-120865750D01*
X127720000Y-120865750D01*
X127561250Y-120707000D01*
X126377000Y-120707000D01*
X126123000Y-120707000D01*
X124938750Y-120707000D01*
X124780000Y-120865750D01*
X121220000Y-120865750D01*
X121061250Y-120707000D01*
X119877000Y-120707000D01*
X119623000Y-120707000D01*
X118438750Y-120707000D01*
X118280000Y-120865750D01*
X114720000Y-120865750D01*
X114561250Y-120707000D01*
X113377000Y-120707000D01*
X113377000Y-120727000D01*
X113123000Y-120727000D01*
X113123000Y-120707000D01*
X111938750Y-120707000D01*
X111780000Y-120865750D01*
X111780000Y-121284000D01*
X108220000Y-121284000D01*
X108220000Y-120865750D01*
X108061250Y-120707000D01*
X106877000Y-120707000D01*
X106877000Y-120727000D01*
X106623000Y-120727000D01*
X106623000Y-120707000D01*
X105438750Y-120707000D01*
X105280000Y-120865750D01*
X105280000Y-121445566D01*
X105097505Y-121567505D01*
X105040822Y-121652337D01*
X104744367Y-121948793D01*
X104457074Y-122067793D01*
X104137793Y-122387074D01*
X103965000Y-122804234D01*
X103965000Y-123255766D01*
X104137793Y-123672926D01*
X104457074Y-123992207D01*
X104609958Y-124055533D01*
X104565000Y-124164071D01*
X104565000Y-124555929D01*
X104714958Y-124917958D01*
X104798001Y-125001001D01*
X104798000Y-125819000D01*
X104724958Y-125892042D01*
X104575000Y-126254071D01*
X104575000Y-126645929D01*
X104724958Y-127007958D01*
X105002042Y-127285042D01*
X105364071Y-127435000D01*
X105755929Y-127435000D01*
X106117958Y-127285042D01*
X106395042Y-127007958D01*
X106545000Y-126645929D01*
X106545000Y-126254071D01*
X106395042Y-125892042D01*
X106322000Y-125819000D01*
X106322000Y-125122000D01*
X107274370Y-125122000D01*
X107658117Y-125505748D01*
X107700629Y-125569371D01*
X107952683Y-125737788D01*
X108174952Y-125782000D01*
X108174957Y-125782000D01*
X108202560Y-125787491D01*
X108202560Y-125819809D01*
X106974347Y-127048023D01*
X106692042Y-127164958D01*
X106414958Y-127442042D01*
X106265000Y-127804071D01*
X106265000Y-127962560D01*
X105915000Y-127962560D01*
X105667235Y-128011843D01*
X105457191Y-128152191D01*
X105316843Y-128362235D01*
X105273440Y-128580440D01*
X105097958Y-128404958D01*
X104735929Y-128255000D01*
X104344071Y-128255000D01*
X103982042Y-128404958D01*
X103704958Y-128682042D01*
X103567042Y-129015000D01*
X103534071Y-129015000D01*
X103172042Y-129164958D01*
X102894958Y-129442042D01*
X102890423Y-129452990D01*
X102331209Y-128893777D01*
X102285152Y-128824848D01*
X102012094Y-128642396D01*
X101771303Y-128594500D01*
X101771301Y-128594500D01*
X101727629Y-128585813D01*
X101683157Y-128362235D01*
X101542809Y-128152191D01*
X101332765Y-128011843D01*
X101085000Y-127962560D01*
X99415000Y-127962560D01*
X99167235Y-128011843D01*
X98957191Y-128152191D01*
X98816843Y-128362235D01*
X98767560Y-128610000D01*
X95459228Y-128610000D01*
X95381303Y-128594500D01*
X95381301Y-128594500D01*
X95300000Y-128578328D01*
X95228951Y-128592461D01*
X95183157Y-128362235D01*
X95042809Y-128152191D01*
X94832765Y-128011843D01*
X94585000Y-127962560D01*
X92915000Y-127962560D01*
X92667235Y-128011843D01*
X92665500Y-128013002D01*
X92665500Y-126297500D01*
X92675042Y-126287958D01*
X92825000Y-125925929D01*
X92825000Y-125534071D01*
X92675042Y-125172042D01*
X92397958Y-124894958D01*
X92035929Y-124745000D01*
X91644071Y-124745000D01*
X91387202Y-124851399D01*
X91375042Y-124822042D01*
X91097958Y-124544958D01*
X90735929Y-124395000D01*
X90344071Y-124395000D01*
X89982042Y-124544958D01*
X89704958Y-124822042D01*
X89555000Y-125184071D01*
X89555000Y-125197568D01*
X89263775Y-125488793D01*
X89194849Y-125534848D01*
X89148794Y-125603774D01*
X89012397Y-125807906D01*
X88948328Y-126130000D01*
X88964501Y-126211306D01*
X88964500Y-129082500D01*
X88954958Y-129092042D01*
X88805000Y-129454071D01*
X88732440Y-129454071D01*
X88732440Y-128610000D01*
X88683157Y-128362235D01*
X88542809Y-128152191D01*
X88332765Y-128011843D01*
X88085000Y-127962560D01*
X86415000Y-127962560D01*
X86167235Y-128011843D01*
X85957191Y-128152191D01*
X85816843Y-128362235D01*
X85770643Y-128594500D01*
X84861933Y-128594500D01*
X83375000Y-127107568D01*
X83375000Y-127094071D01*
X83225042Y-126732042D01*
X82947958Y-126454958D01*
X82585929Y-126305000D01*
X82194071Y-126305000D01*
X81832042Y-126454958D01*
X81554958Y-126732042D01*
X81405000Y-127094071D01*
X81405000Y-127485929D01*
X81554958Y-127847958D01*
X81690556Y-127983556D01*
X81585000Y-127962560D01*
X79915000Y-127962560D01*
X79667235Y-128011843D01*
X79457191Y-128152191D01*
X79316843Y-128362235D01*
X79314403Y-128374500D01*
X79297500Y-128374500D01*
X79287958Y-128364958D01*
X78925929Y-128215000D01*
X78534071Y-128215000D01*
X78172042Y-128364958D01*
X77894958Y-128642042D01*
X77745000Y-129004071D01*
X60735000Y-129004071D01*
X60735000Y-123254234D01*
X84195000Y-123254234D01*
X84195000Y-123705766D01*
X84367793Y-124122926D01*
X84687074Y-124442207D01*
X85104234Y-124615000D01*
X85555766Y-124615000D01*
X85972926Y-124442207D01*
X86179133Y-124236000D01*
X92122054Y-124236000D01*
X94463716Y-126577663D01*
X94520399Y-126662495D01*
X94856471Y-126887051D01*
X95152829Y-126946000D01*
X95152830Y-126946000D01*
X95252894Y-126965904D01*
X95352958Y-126946000D01*
X95446942Y-126946000D01*
X95734234Y-127065000D01*
X96185766Y-127065000D01*
X96602926Y-126892207D01*
X96922207Y-126572926D01*
X97095000Y-126155766D01*
X97095000Y-125704234D01*
X96922207Y-125287074D01*
X96602926Y-124967793D01*
X96185766Y-124795000D01*
X95734234Y-124795000D01*
X95607309Y-124847574D01*
X93332074Y-122572340D01*
X93275389Y-122487505D01*
X92939317Y-122262949D01*
X92642959Y-122204000D01*
X92642957Y-122204000D01*
X92542894Y-122184096D01*
X92442831Y-122204000D01*
X85690064Y-122204000D01*
X85590000Y-122184096D01*
X85489937Y-122204000D01*
X85489935Y-122204000D01*
X85193577Y-122262949D01*
X85016214Y-122381459D01*
X84687074Y-122517793D01*
X84367793Y-122837074D01*
X84195000Y-123254234D01*
X60735000Y-123254234D01*
X60735000Y-120865750D01*
X79280000Y-120865750D01*
X79280000Y-121516309D01*
X79376673Y-121749698D01*
X79555301Y-121928327D01*
X79788690Y-122025000D01*
X80464250Y-122025000D01*
X80623000Y-121866250D01*
X80623000Y-120707000D01*
X80877000Y-120707000D01*
X80877000Y-121866250D01*
X81035750Y-122025000D01*
X81711310Y-122025000D01*
X81944699Y-121928327D01*
X82123327Y-121749698D01*
X82220000Y-121516309D01*
X82220000Y-120865750D01*
X85780000Y-120865750D01*
X85780000Y-121516309D01*
X85876673Y-121749698D01*
X86055301Y-121928327D01*
X86288690Y-122025000D01*
X86964250Y-122025000D01*
X87123000Y-121866250D01*
X87123000Y-120707000D01*
X87377000Y-120707000D01*
X87377000Y-121866250D01*
X87535750Y-122025000D01*
X88211310Y-122025000D01*
X88444699Y-121928327D01*
X88623327Y-121749698D01*
X88720000Y-121516309D01*
X88720000Y-120865750D01*
X92280000Y-120865750D01*
X92280000Y-121516309D01*
X92376673Y-121749698D01*
X92555301Y-121928327D01*
X92788690Y-122025000D01*
X93464250Y-122025000D01*
X93623000Y-121866250D01*
X93623000Y-120707000D01*
X93877000Y-120707000D01*
X93877000Y-121866250D01*
X94035750Y-122025000D01*
X94711310Y-122025000D01*
X94944699Y-121928327D01*
X95123327Y-121749698D01*
X95220000Y-121516309D01*
X95220000Y-120865750D01*
X98780000Y-120865750D01*
X98780000Y-121516309D01*
X98876673Y-121749698D01*
X99055301Y-121928327D01*
X99288690Y-122025000D01*
X99964250Y-122025000D01*
X100123000Y-121866250D01*
X100123000Y-120707000D01*
X100377000Y-120707000D01*
X100377000Y-121866250D01*
X100535750Y-122025000D01*
X101211310Y-122025000D01*
X101444699Y-121928327D01*
X101623327Y-121749698D01*
X101720000Y-121516309D01*
X101720000Y-120865750D01*
X101561250Y-120707000D01*
X100377000Y-120707000D01*
X100123000Y-120707000D01*
X98938750Y-120707000D01*
X98780000Y-120865750D01*
X95220000Y-120865750D01*
X95061250Y-120707000D01*
X93877000Y-120707000D01*
X93623000Y-120707000D01*
X92438750Y-120707000D01*
X92280000Y-120865750D01*
X88720000Y-120865750D01*
X88561250Y-120707000D01*
X87377000Y-120707000D01*
X87123000Y-120707000D01*
X85938750Y-120707000D01*
X85780000Y-120865750D01*
X82220000Y-120865750D01*
X82061250Y-120707000D01*
X80877000Y-120707000D01*
X80623000Y-120707000D01*
X79438750Y-120707000D01*
X79280000Y-120865750D01*
X60735000Y-120865750D01*
X60735000Y-116910000D01*
X79267560Y-116910000D01*
X79267560Y-118530000D01*
X79316843Y-118777765D01*
X79457191Y-118987809D01*
X79667235Y-119128157D01*
X79760448Y-119146698D01*
X79555301Y-119231673D01*
X79376673Y-119410302D01*
X79280000Y-119643691D01*
X79280000Y-120294250D01*
X79438750Y-120453000D01*
X80623000Y-120453000D01*
X80623000Y-120433000D01*
X80877000Y-120433000D01*
X80877000Y-120453000D01*
X82061250Y-120453000D01*
X82220000Y-120294250D01*
X82220000Y-119643691D01*
X82123327Y-119410302D01*
X81944699Y-119231673D01*
X81739552Y-119146698D01*
X81832765Y-119128157D01*
X82042809Y-118987809D01*
X82183157Y-118777765D01*
X82232440Y-118530000D01*
X82232440Y-116910000D01*
X85767560Y-116910000D01*
X85767560Y-118530000D01*
X85816843Y-118777765D01*
X85957191Y-118987809D01*
X86167235Y-119128157D01*
X86260448Y-119146698D01*
X86055301Y-119231673D01*
X85876673Y-119410302D01*
X85780000Y-119643691D01*
X85780000Y-120294250D01*
X85938750Y-120453000D01*
X87123000Y-120453000D01*
X87123000Y-120433000D01*
X87377000Y-120433000D01*
X87377000Y-120453000D01*
X88561250Y-120453000D01*
X88720000Y-120294250D01*
X88720000Y-119643691D01*
X88623327Y-119410302D01*
X88444699Y-119231673D01*
X88239552Y-119146698D01*
X88332765Y-119128157D01*
X88542809Y-118987809D01*
X88683157Y-118777765D01*
X88732440Y-118530000D01*
X88732440Y-116910000D01*
X88713544Y-116815000D01*
X88775929Y-116815000D01*
X89137958Y-116665042D01*
X89147500Y-116655500D01*
X92321343Y-116655500D01*
X92316843Y-116662235D01*
X92267560Y-116910000D01*
X92267560Y-118530000D01*
X92316843Y-118777765D01*
X92457191Y-118987809D01*
X92667235Y-119128157D01*
X92760448Y-119146698D01*
X92555301Y-119231673D01*
X92376673Y-119410302D01*
X92280000Y-119643691D01*
X92280000Y-120294250D01*
X92438750Y-120453000D01*
X93623000Y-120453000D01*
X93623000Y-120433000D01*
X93877000Y-120433000D01*
X93877000Y-120453000D01*
X95061250Y-120453000D01*
X95220000Y-120294250D01*
X95220000Y-119643691D01*
X95123327Y-119410302D01*
X94944699Y-119231673D01*
X94739552Y-119146698D01*
X94832765Y-119128157D01*
X95042809Y-118987809D01*
X95183157Y-118777765D01*
X95232440Y-118530000D01*
X95232440Y-116974071D01*
X97585000Y-116974071D01*
X97585000Y-117365929D01*
X97734958Y-117727958D01*
X98012042Y-118005042D01*
X98374071Y-118155000D01*
X98765929Y-118155000D01*
X98767560Y-118154324D01*
X98767560Y-118530000D01*
X98816843Y-118777765D01*
X98957191Y-118987809D01*
X99167235Y-119128157D01*
X99260448Y-119146698D01*
X99055301Y-119231673D01*
X98876673Y-119410302D01*
X98780000Y-119643691D01*
X98780000Y-120294250D01*
X98938750Y-120453000D01*
X100123000Y-120453000D01*
X100123000Y-120433000D01*
X100377000Y-120433000D01*
X100377000Y-120453000D01*
X101561250Y-120453000D01*
X101720000Y-120294250D01*
X101720000Y-119643691D01*
X101623327Y-119410302D01*
X101444699Y-119231673D01*
X101239552Y-119146698D01*
X101332765Y-119128157D01*
X101542809Y-118987809D01*
X101683157Y-118777765D01*
X101732440Y-118530000D01*
X101732440Y-116910000D01*
X105267560Y-116910000D01*
X105267560Y-118530000D01*
X105316843Y-118777765D01*
X105457191Y-118987809D01*
X105667235Y-119128157D01*
X105760448Y-119146698D01*
X105555301Y-119231673D01*
X105376673Y-119410302D01*
X105280000Y-119643691D01*
X105280000Y-120294250D01*
X105438750Y-120453000D01*
X106623000Y-120453000D01*
X106623000Y-120433000D01*
X106877000Y-120433000D01*
X106877000Y-120453000D01*
X108061250Y-120453000D01*
X108220000Y-120294250D01*
X108220000Y-119643691D01*
X108123327Y-119410302D01*
X107944699Y-119231673D01*
X107739552Y-119146698D01*
X107832765Y-119128157D01*
X108042809Y-118987809D01*
X108183157Y-118777765D01*
X108232440Y-118530000D01*
X108232440Y-116910000D01*
X111767560Y-116910000D01*
X111767560Y-118530000D01*
X111816843Y-118777765D01*
X111957191Y-118987809D01*
X112167235Y-119128157D01*
X112260448Y-119146698D01*
X112055301Y-119231673D01*
X111876673Y-119410302D01*
X111780000Y-119643691D01*
X111780000Y-120294250D01*
X111938750Y-120453000D01*
X113123000Y-120453000D01*
X113123000Y-120433000D01*
X113377000Y-120433000D01*
X113377000Y-120453000D01*
X114561250Y-120453000D01*
X114720000Y-120294250D01*
X114720000Y-119643691D01*
X114623327Y-119410302D01*
X114444699Y-119231673D01*
X114239552Y-119146698D01*
X114332765Y-119128157D01*
X114542809Y-118987809D01*
X114683157Y-118777765D01*
X114732440Y-118530000D01*
X114732440Y-116910000D01*
X118267560Y-116910000D01*
X118267560Y-118530000D01*
X118316843Y-118777765D01*
X118457191Y-118987809D01*
X118667235Y-119128157D01*
X118760448Y-119146698D01*
X118555301Y-119231673D01*
X118376673Y-119410302D01*
X118280000Y-119643691D01*
X118280000Y-120294250D01*
X118438750Y-120453000D01*
X119623000Y-120453000D01*
X119623000Y-120433000D01*
X119877000Y-120433000D01*
X119877000Y-120453000D01*
X121061250Y-120453000D01*
X121220000Y-120294250D01*
X121220000Y-119643691D01*
X121123327Y-119410302D01*
X120944699Y-119231673D01*
X120739552Y-119146698D01*
X120832765Y-119128157D01*
X121042809Y-118987809D01*
X121183157Y-118777765D01*
X121232440Y-118530000D01*
X121232440Y-116910000D01*
X121183157Y-116662235D01*
X121042809Y-116452191D01*
X121013695Y-116432737D01*
X126950933Y-110495500D01*
X128835000Y-110495500D01*
X128835000Y-110685929D01*
X128984958Y-111047958D01*
X128994501Y-111057501D01*
X128994500Y-115908067D01*
X128008068Y-116894500D01*
X127729357Y-116894500D01*
X127683157Y-116662235D01*
X127542809Y-116452191D01*
X127332765Y-116311843D01*
X127085000Y-116262560D01*
X125415000Y-116262560D01*
X125167235Y-116311843D01*
X124957191Y-116452191D01*
X124816843Y-116662235D01*
X124767560Y-116910000D01*
X124767560Y-118530000D01*
X124816843Y-118777765D01*
X124957191Y-118987809D01*
X125167235Y-119128157D01*
X125260448Y-119146698D01*
X125055301Y-119231673D01*
X124876673Y-119410302D01*
X124780000Y-119643691D01*
X124780000Y-120294250D01*
X124938750Y-120453000D01*
X126123000Y-120453000D01*
X126123000Y-120433000D01*
X126377000Y-120433000D01*
X126377000Y-120453000D01*
X127561250Y-120453000D01*
X127720000Y-120294250D01*
X127720000Y-119643691D01*
X127623327Y-119410302D01*
X127444699Y-119231673D01*
X127239552Y-119146698D01*
X127332765Y-119128157D01*
X127542809Y-118987809D01*
X127683157Y-118777765D01*
X127729357Y-118545500D01*
X128268699Y-118545500D01*
X128350000Y-118561672D01*
X128431301Y-118545500D01*
X128431303Y-118545500D01*
X128672094Y-118497604D01*
X128945152Y-118315152D01*
X128991209Y-118246223D01*
X130327432Y-116910000D01*
X131267560Y-116910000D01*
X131267560Y-118530000D01*
X131316843Y-118777765D01*
X131457191Y-118987809D01*
X131667235Y-119128157D01*
X131760448Y-119146698D01*
X131555301Y-119231673D01*
X131376673Y-119410302D01*
X131280000Y-119643691D01*
X131280000Y-120294250D01*
X131438750Y-120453000D01*
X132623000Y-120453000D01*
X132623000Y-120433000D01*
X132877000Y-120433000D01*
X132877000Y-120453000D01*
X134061250Y-120453000D01*
X134220000Y-120294250D01*
X134220000Y-119643691D01*
X134123327Y-119410302D01*
X133944699Y-119231673D01*
X133739552Y-119146698D01*
X133832765Y-119128157D01*
X134042809Y-118987809D01*
X134183157Y-118777765D01*
X134232440Y-118530000D01*
X134232440Y-116910000D01*
X134183157Y-116662235D01*
X134042809Y-116452191D01*
X133832765Y-116311843D01*
X133585000Y-116262560D01*
X133575500Y-116262560D01*
X133575500Y-116221036D01*
X133927958Y-116075042D01*
X134205042Y-115797958D01*
X134355000Y-115435929D01*
X134355000Y-115044071D01*
X134205042Y-114682042D01*
X133927958Y-114404958D01*
X133565929Y-114255000D01*
X133174071Y-114255000D01*
X132812042Y-114404958D01*
X132534958Y-114682042D01*
X132385000Y-115044071D01*
X132385000Y-115057567D01*
X132223774Y-115218794D01*
X132154849Y-115264848D01*
X132108794Y-115333774D01*
X131972397Y-115537906D01*
X131908328Y-115860000D01*
X131924501Y-115941306D01*
X131924501Y-116262560D01*
X131915000Y-116262560D01*
X131667235Y-116311843D01*
X131457191Y-116452191D01*
X131316843Y-116662235D01*
X131267560Y-116910000D01*
X130327432Y-116910000D01*
X130346226Y-116891207D01*
X130415152Y-116845152D01*
X130597604Y-116572094D01*
X130645500Y-116331303D01*
X130645500Y-116331302D01*
X130661672Y-116250000D01*
X130645500Y-116168699D01*
X130645500Y-111057500D01*
X130655042Y-111047958D01*
X130805000Y-110685929D01*
X130805000Y-110651243D01*
X131157958Y-110505042D01*
X131435042Y-110227958D01*
X131585000Y-109865929D01*
X131585000Y-109505500D01*
X136618068Y-109505500D01*
X138424501Y-111311934D01*
X138424500Y-116262560D01*
X138415000Y-116262560D01*
X138167235Y-116311843D01*
X137957191Y-116452191D01*
X137816843Y-116662235D01*
X137767560Y-116910000D01*
X137767560Y-118530000D01*
X137816843Y-118777765D01*
X137957191Y-118987809D01*
X138167235Y-119128157D01*
X138260448Y-119146698D01*
X138055301Y-119231673D01*
X137876673Y-119410302D01*
X137780000Y-119643691D01*
X137780000Y-120294250D01*
X137938750Y-120453000D01*
X139123000Y-120453000D01*
X139123000Y-120433000D01*
X139377000Y-120433000D01*
X139377000Y-120453000D01*
X140561250Y-120453000D01*
X140720000Y-120294250D01*
X140720000Y-119643691D01*
X140623327Y-119410302D01*
X140444699Y-119231673D01*
X140239552Y-119146698D01*
X140332765Y-119128157D01*
X140542809Y-118987809D01*
X140683157Y-118777765D01*
X140732440Y-118530000D01*
X140732440Y-116910000D01*
X140683157Y-116662235D01*
X140542809Y-116452191D01*
X140332765Y-116311843D01*
X140085000Y-116262560D01*
X140075500Y-116262560D01*
X140075500Y-111051297D01*
X140091671Y-110969999D01*
X140075500Y-110888701D01*
X140075500Y-110888697D01*
X140027604Y-110647906D01*
X139845152Y-110374848D01*
X139776226Y-110328793D01*
X137601209Y-108153777D01*
X137555152Y-108084848D01*
X137282094Y-107902396D01*
X137041303Y-107854500D01*
X137041301Y-107854500D01*
X136960000Y-107838328D01*
X136878699Y-107854500D01*
X126631297Y-107854500D01*
X126549999Y-107838329D01*
X126468701Y-107854500D01*
X126468697Y-107854500D01*
X126227906Y-107902396D01*
X125954848Y-108084848D01*
X125908793Y-108153774D01*
X125237568Y-108825000D01*
X125224071Y-108825000D01*
X124862042Y-108974958D01*
X124584958Y-109252042D01*
X124435000Y-109614071D01*
X124435000Y-110005929D01*
X124584958Y-110367958D01*
X124664284Y-110447284D01*
X119223777Y-115887791D01*
X119154848Y-115933848D01*
X118972396Y-116206907D01*
X118961326Y-116262560D01*
X118915000Y-116262560D01*
X118667235Y-116311843D01*
X118457191Y-116452191D01*
X118316843Y-116662235D01*
X118267560Y-116910000D01*
X114732440Y-116910000D01*
X114683157Y-116662235D01*
X114542809Y-116452191D01*
X114332765Y-116311843D01*
X114085000Y-116262560D01*
X114075500Y-116262560D01*
X114075500Y-111061330D01*
X114307958Y-110965042D01*
X114585042Y-110687958D01*
X114735000Y-110325929D01*
X114735000Y-109934071D01*
X114585042Y-109572042D01*
X114307958Y-109294958D01*
X113945929Y-109145000D01*
X113554071Y-109145000D01*
X113192042Y-109294958D01*
X112914958Y-109572042D01*
X112765000Y-109934071D01*
X112765000Y-109947568D01*
X112713772Y-109998796D01*
X112644849Y-110044849D01*
X112598796Y-110113772D01*
X112598794Y-110113774D01*
X112462397Y-110317906D01*
X112398328Y-110640000D01*
X112424500Y-110771575D01*
X112424501Y-116262560D01*
X112415000Y-116262560D01*
X112167235Y-116311843D01*
X111957191Y-116452191D01*
X111816843Y-116662235D01*
X111767560Y-116910000D01*
X108232440Y-116910000D01*
X108183157Y-116662235D01*
X108042809Y-116452191D01*
X107832765Y-116311843D01*
X107585000Y-116262560D01*
X107575500Y-116262560D01*
X107575500Y-111141932D01*
X107592432Y-111125000D01*
X107605929Y-111125000D01*
X107967958Y-110975042D01*
X108245042Y-110697958D01*
X108395000Y-110335929D01*
X108395000Y-109944071D01*
X108245042Y-109582042D01*
X107967958Y-109304958D01*
X107605929Y-109155000D01*
X107214071Y-109155000D01*
X106852042Y-109304958D01*
X106574958Y-109582042D01*
X106425000Y-109944071D01*
X106425000Y-109957568D01*
X106223775Y-110158793D01*
X106154849Y-110204848D01*
X106108794Y-110273774D01*
X105972397Y-110477906D01*
X105908328Y-110800000D01*
X105924501Y-110881306D01*
X105924500Y-116262560D01*
X105915000Y-116262560D01*
X105667235Y-116311843D01*
X105457191Y-116452191D01*
X105316843Y-116662235D01*
X105267560Y-116910000D01*
X101732440Y-116910000D01*
X101683157Y-116662235D01*
X101542809Y-116452191D01*
X101332765Y-116311843D01*
X101085000Y-116262560D01*
X99415000Y-116262560D01*
X99167235Y-116311843D01*
X99129834Y-116336834D01*
X99127958Y-116334958D01*
X98765929Y-116185000D01*
X98374071Y-116185000D01*
X98012042Y-116334958D01*
X97734958Y-116612042D01*
X97585000Y-116974071D01*
X95232440Y-116974071D01*
X95232440Y-116910000D01*
X95183157Y-116662235D01*
X95042809Y-116452191D01*
X94832765Y-116311843D01*
X94585000Y-116262560D01*
X94538674Y-116262560D01*
X94527604Y-116206906D01*
X94345152Y-115933848D01*
X94276226Y-115887793D01*
X93692209Y-115303777D01*
X93646152Y-115234848D01*
X93373094Y-115052396D01*
X93132303Y-115004500D01*
X93132301Y-115004500D01*
X93051000Y-114988328D01*
X92969699Y-115004500D01*
X89147500Y-115004500D01*
X89137958Y-114994958D01*
X88775929Y-114845000D01*
X88384071Y-114845000D01*
X88295000Y-114881895D01*
X88295000Y-114554071D01*
X88145042Y-114192042D01*
X87867958Y-113914958D01*
X87505929Y-113765000D01*
X87114071Y-113765000D01*
X86752042Y-113914958D01*
X86474958Y-114192042D01*
X86325000Y-114554071D01*
X86325000Y-114945929D01*
X86474958Y-115307958D01*
X86484500Y-115317500D01*
X86484501Y-116262560D01*
X86415000Y-116262560D01*
X86167235Y-116311843D01*
X85957191Y-116452191D01*
X85816843Y-116662235D01*
X85767560Y-116910000D01*
X82232440Y-116910000D01*
X82183157Y-116662235D01*
X82042809Y-116452191D01*
X81832765Y-116311843D01*
X81625500Y-116270616D01*
X81625500Y-114647500D01*
X81635042Y-114637958D01*
X81785000Y-114275929D01*
X81785000Y-113884071D01*
X81635042Y-113522042D01*
X81357958Y-113244958D01*
X80995929Y-113095000D01*
X80604071Y-113095000D01*
X80242042Y-113244958D01*
X79964958Y-113522042D01*
X79815000Y-113884071D01*
X79815000Y-114275929D01*
X79964958Y-114637958D01*
X79974500Y-114647500D01*
X79974501Y-116262560D01*
X79915000Y-116262560D01*
X79667235Y-116311843D01*
X79457191Y-116452191D01*
X79316843Y-116662235D01*
X79267560Y-116910000D01*
X60735000Y-116910000D01*
X60735000Y-109644071D01*
X94355000Y-109644071D01*
X94355000Y-110035929D01*
X94504958Y-110397958D01*
X94514500Y-110407500D01*
X94514501Y-114653146D01*
X94365000Y-115014071D01*
X94365000Y-115405929D01*
X94514958Y-115767958D01*
X94792042Y-116045042D01*
X95154071Y-116195000D01*
X95545929Y-116195000D01*
X95907958Y-116045042D01*
X96185042Y-115767958D01*
X96190432Y-115754945D01*
X96396870Y-115754945D01*
X96758899Y-115604987D01*
X97035983Y-115327903D01*
X97185941Y-114965874D01*
X97185941Y-114574016D01*
X97065500Y-114283247D01*
X97065500Y-110427500D01*
X97075042Y-110417958D01*
X97225000Y-110055929D01*
X97225000Y-109664071D01*
X97075042Y-109302042D01*
X96797958Y-109024958D01*
X96435929Y-108875000D01*
X96044071Y-108875000D01*
X95814142Y-108970240D01*
X95535929Y-108855000D01*
X95144071Y-108855000D01*
X94782042Y-109004958D01*
X94504958Y-109282042D01*
X94355000Y-109644071D01*
X60735000Y-109644071D01*
X60735000Y-106055431D01*
X61765000Y-106055431D01*
X61765000Y-106944569D01*
X62105259Y-107766026D01*
X62733974Y-108394741D01*
X63555431Y-108735000D01*
X64444569Y-108735000D01*
X65266026Y-108394741D01*
X65894741Y-107766026D01*
X66235000Y-106944569D01*
X66235000Y-106055431D01*
X65985954Y-105454180D01*
X71415000Y-105454180D01*
X71415000Y-105885820D01*
X71580182Y-106284603D01*
X71885397Y-106589818D01*
X72284180Y-106755000D01*
X72715820Y-106755000D01*
X73114603Y-106589818D01*
X73419818Y-106284603D01*
X73585000Y-105885820D01*
X73585000Y-105454180D01*
X74415000Y-105454180D01*
X74415000Y-105885820D01*
X74580182Y-106284603D01*
X74885397Y-106589818D01*
X75284180Y-106755000D01*
X75715820Y-106755000D01*
X76114603Y-106589818D01*
X76419818Y-106284603D01*
X76585000Y-105885820D01*
X76585000Y-105454180D01*
X76515234Y-105285750D01*
X77125000Y-105285750D01*
X77125000Y-105961310D01*
X77221673Y-106194699D01*
X77400302Y-106373327D01*
X77633691Y-106470000D01*
X78284250Y-106470000D01*
X78443000Y-106311250D01*
X78443000Y-105127000D01*
X77283750Y-105127000D01*
X77125000Y-105285750D01*
X76515234Y-105285750D01*
X76419818Y-105055397D01*
X76114603Y-104750182D01*
X75715820Y-104585000D01*
X75284180Y-104585000D01*
X74885397Y-104750182D01*
X74580182Y-105055397D01*
X74415000Y-105454180D01*
X73585000Y-105454180D01*
X73419818Y-105055397D01*
X73114603Y-104750182D01*
X72715820Y-104585000D01*
X72284180Y-104585000D01*
X71885397Y-104750182D01*
X71580182Y-105055397D01*
X71415000Y-105454180D01*
X65985954Y-105454180D01*
X65894741Y-105233974D01*
X65266026Y-104605259D01*
X64444569Y-104265000D01*
X63555431Y-104265000D01*
X62733974Y-104605259D01*
X62105259Y-105233974D01*
X61765000Y-106055431D01*
X60735000Y-106055431D01*
X60735000Y-105542702D01*
X60800594Y-104980082D01*
X60979191Y-104488056D01*
X61266192Y-104050308D01*
X61278456Y-104038690D01*
X77125000Y-104038690D01*
X77125000Y-104714250D01*
X77283750Y-104873000D01*
X78443000Y-104873000D01*
X78443000Y-103688750D01*
X78697000Y-103688750D01*
X78697000Y-104873000D01*
X78717000Y-104873000D01*
X78717000Y-105127000D01*
X78697000Y-105127000D01*
X78697000Y-106311250D01*
X78855750Y-106470000D01*
X79506309Y-106470000D01*
X79739698Y-106373327D01*
X79918327Y-106194699D01*
X80003302Y-105989552D01*
X80021843Y-106082765D01*
X80162191Y-106292809D01*
X80372235Y-106433157D01*
X80620000Y-106482440D01*
X82240000Y-106482440D01*
X82487765Y-106433157D01*
X82697809Y-106292809D01*
X82838157Y-106082765D01*
X82887440Y-105835000D01*
X82887440Y-105705500D01*
X83252500Y-105705500D01*
X83262042Y-105715042D01*
X83624071Y-105865000D01*
X84015929Y-105865000D01*
X84377958Y-105715042D01*
X84655042Y-105437958D01*
X84718088Y-105285750D01*
X137125000Y-105285750D01*
X137125000Y-105961310D01*
X137221673Y-106194699D01*
X137400302Y-106373327D01*
X137633691Y-106470000D01*
X138284250Y-106470000D01*
X138443000Y-106311250D01*
X138443000Y-105127000D01*
X137283750Y-105127000D01*
X137125000Y-105285750D01*
X84718088Y-105285750D01*
X84805000Y-105075929D01*
X84805000Y-104684071D01*
X84655042Y-104322042D01*
X84377958Y-104044958D01*
X84362826Y-104038690D01*
X137125000Y-104038690D01*
X137125000Y-104714250D01*
X137283750Y-104873000D01*
X138443000Y-104873000D01*
X138443000Y-103688750D01*
X138697000Y-103688750D01*
X138697000Y-104873000D01*
X138717000Y-104873000D01*
X138717000Y-105127000D01*
X138697000Y-105127000D01*
X138697000Y-106311250D01*
X138855750Y-106470000D01*
X139506309Y-106470000D01*
X139739698Y-106373327D01*
X139918327Y-106194699D01*
X140003302Y-105989552D01*
X140021843Y-106082765D01*
X140162191Y-106292809D01*
X140372235Y-106433157D01*
X140620000Y-106482440D01*
X140924793Y-106482440D01*
X140775000Y-106844071D01*
X140775000Y-107235929D01*
X140924958Y-107597958D01*
X141202042Y-107875042D01*
X141564071Y-108025000D01*
X141955929Y-108025000D01*
X142317958Y-107875042D01*
X142595042Y-107597958D01*
X142745000Y-107235929D01*
X142745000Y-106844071D01*
X142595042Y-106482042D01*
X142585500Y-106472500D01*
X142585500Y-106367852D01*
X142697809Y-106292809D01*
X142838157Y-106082765D01*
X142843594Y-106055431D01*
X153765000Y-106055431D01*
X153765000Y-106944569D01*
X154105259Y-107766026D01*
X154733974Y-108394741D01*
X155555431Y-108735000D01*
X156444569Y-108735000D01*
X157266026Y-108394741D01*
X157894741Y-107766026D01*
X158235000Y-106944569D01*
X158235000Y-106055431D01*
X157894741Y-105233974D01*
X157266026Y-104605259D01*
X156444569Y-104265000D01*
X155555431Y-104265000D01*
X154733974Y-104605259D01*
X154105259Y-105233974D01*
X153765000Y-106055431D01*
X142843594Y-106055431D01*
X142887440Y-105835000D01*
X142887440Y-104165000D01*
X142838157Y-103917235D01*
X142697809Y-103707191D01*
X142487765Y-103566843D01*
X142240000Y-103517560D01*
X140620000Y-103517560D01*
X140372235Y-103566843D01*
X140162191Y-103707191D01*
X140021843Y-103917235D01*
X140003302Y-104010448D01*
X139918327Y-103805301D01*
X139739698Y-103626673D01*
X139506309Y-103530000D01*
X138855750Y-103530000D01*
X138697000Y-103688750D01*
X138443000Y-103688750D01*
X138284250Y-103530000D01*
X137633691Y-103530000D01*
X137400302Y-103626673D01*
X137221673Y-103805301D01*
X137125000Y-104038690D01*
X84362826Y-104038690D01*
X84015929Y-103895000D01*
X83624071Y-103895000D01*
X83262042Y-104044958D01*
X83252500Y-104054500D01*
X82865460Y-104054500D01*
X82838157Y-103917235D01*
X82697809Y-103707191D01*
X82487765Y-103566843D01*
X82240000Y-103517560D01*
X80620000Y-103517560D01*
X80372235Y-103566843D01*
X80162191Y-103707191D01*
X80021843Y-103917235D01*
X80003302Y-104010448D01*
X79918327Y-103805301D01*
X79739698Y-103626673D01*
X79506309Y-103530000D01*
X78855750Y-103530000D01*
X78697000Y-103688750D01*
X78443000Y-103688750D01*
X78284250Y-103530000D01*
X77633691Y-103530000D01*
X77400302Y-103626673D01*
X77221673Y-103805301D01*
X77125000Y-104038690D01*
X61278456Y-104038690D01*
X61646190Y-103690332D01*
X62098821Y-103427424D01*
X62609416Y-103272780D01*
X63032732Y-103235000D01*
X156957298Y-103235000D01*
X157519918Y-103300594D01*
X157519918Y-103300594D01*
G37*
X157519918Y-103300594D02*
X158011944Y-103479191D01*
X158449692Y-103766192D01*
X158809668Y-104146190D01*
X159072576Y-104598821D01*
X159227220Y-105109416D01*
X159265000Y-105532732D01*
X159265001Y-144457290D01*
X159199405Y-145019918D01*
X159020809Y-145511944D01*
X158733810Y-145949689D01*
X158353807Y-146309670D01*
X157901180Y-146572576D01*
X157390584Y-146727220D01*
X156967269Y-146765000D01*
X63042702Y-146765000D01*
X62480082Y-146699405D01*
X61988056Y-146520809D01*
X61550311Y-146233810D01*
X61190330Y-145853807D01*
X60927424Y-145401180D01*
X60772780Y-144890584D01*
X60735000Y-144467269D01*
X60735000Y-143055431D01*
X61765000Y-143055431D01*
X61765000Y-143944569D01*
X62105259Y-144766026D01*
X62733974Y-145394741D01*
X63555431Y-145735000D01*
X64444569Y-145735000D01*
X65266026Y-145394741D01*
X65375017Y-145285750D01*
X77125000Y-145285750D01*
X77125000Y-145961310D01*
X77221673Y-146194699D01*
X77400302Y-146373327D01*
X77633691Y-146470000D01*
X78284250Y-146470000D01*
X78443000Y-146311250D01*
X78443000Y-145127000D01*
X77283750Y-145127000D01*
X77125000Y-145285750D01*
X65375017Y-145285750D01*
X65894741Y-144766026D01*
X66196013Y-144038690D01*
X77125000Y-144038690D01*
X77125000Y-144714250D01*
X77283750Y-144873000D01*
X78443000Y-144873000D01*
X78443000Y-143688750D01*
X78697000Y-143688750D01*
X78697000Y-144873000D01*
X78717000Y-144873000D01*
X78717000Y-145127000D01*
X78697000Y-145127000D01*
X78697000Y-146311250D01*
X78855750Y-146470000D01*
X79506309Y-146470000D01*
X79739698Y-146373327D01*
X79918327Y-146194699D01*
X80003302Y-145989552D01*
X80021843Y-146082765D01*
X80162191Y-146292809D01*
X80372235Y-146433157D01*
X80620000Y-146482440D01*
X82240000Y-146482440D01*
X82487765Y-146433157D01*
X82697809Y-146292809D01*
X82838157Y-146082765D01*
X82887440Y-145835000D01*
X82887440Y-144165000D01*
X82838157Y-143917235D01*
X82755500Y-143793531D01*
X82755500Y-143717500D01*
X82765042Y-143707958D01*
X82915000Y-143345929D01*
X82915000Y-142954071D01*
X82765042Y-142592042D01*
X82487958Y-142314958D01*
X82125929Y-142165000D01*
X81734071Y-142165000D01*
X81372042Y-142314958D01*
X81094958Y-142592042D01*
X80945000Y-142954071D01*
X80945000Y-143345929D01*
X81016092Y-143517560D01*
X80620000Y-143517560D01*
X80372235Y-143566843D01*
X80162191Y-143707191D01*
X80021843Y-143917235D01*
X80003302Y-144010448D01*
X79918327Y-143805301D01*
X79739698Y-143626673D01*
X79506309Y-143530000D01*
X78855750Y-143530000D01*
X78697000Y-143688750D01*
X78443000Y-143688750D01*
X78284250Y-143530000D01*
X77633691Y-143530000D01*
X77400302Y-143626673D01*
X77221673Y-143805301D01*
X77125000Y-144038690D01*
X66196013Y-144038690D01*
X66235000Y-143944569D01*
X66235000Y-143055431D01*
X65894741Y-142233974D01*
X65266026Y-141605259D01*
X64708283Y-141374234D01*
X67665000Y-141374234D01*
X67665000Y-141825766D01*
X67837793Y-142242926D01*
X68157074Y-142562207D01*
X68574234Y-142735000D01*
X69025766Y-142735000D01*
X69442926Y-142562207D01*
X69762207Y-142242926D01*
X69935000Y-141825766D01*
X69935000Y-141374234D01*
X69762207Y-140957074D01*
X69442926Y-140637793D01*
X69025766Y-140465000D01*
X68574234Y-140465000D01*
X68157074Y-140637793D01*
X67837793Y-140957074D01*
X67665000Y-141374234D01*
X64708283Y-141374234D01*
X64444569Y-141265000D01*
X63555431Y-141265000D01*
X62733974Y-141605259D01*
X62105259Y-142233974D01*
X61765000Y-143055431D01*
X60735000Y-143055431D01*
X60735000Y-138104071D01*
X94085000Y-138104071D01*
X94085000Y-138495929D01*
X94234958Y-138857958D01*
X94308001Y-138931001D01*
X94308000Y-142574957D01*
X94293073Y-142650000D01*
X94308000Y-142725043D01*
X94308000Y-142725047D01*
X94352212Y-142947316D01*
X94520629Y-143199371D01*
X94584253Y-143241883D01*
X97145000Y-145802631D01*
X97145000Y-145905929D01*
X97294958Y-146267958D01*
X97572042Y-146545042D01*
X97934071Y-146695000D01*
X98325929Y-146695000D01*
X98687958Y-146545042D01*
X98965042Y-146267958D01*
X99115000Y-145905929D01*
X99115000Y-145514071D01*
X99020426Y-145285750D01*
X137125000Y-145285750D01*
X137125000Y-145961310D01*
X137221673Y-146194699D01*
X137400302Y-146373327D01*
X137633691Y-146470000D01*
X138284250Y-146470000D01*
X138443000Y-146311250D01*
X138443000Y-145127000D01*
X137283750Y-145127000D01*
X137125000Y-145285750D01*
X99020426Y-145285750D01*
X98965042Y-145152042D01*
X98687958Y-144874958D01*
X98325929Y-144725000D01*
X98222631Y-144725000D01*
X97536321Y-144038690D01*
X137125000Y-144038690D01*
X137125000Y-144714250D01*
X137283750Y-144873000D01*
X138443000Y-144873000D01*
X138443000Y-143688750D01*
X138697000Y-143688750D01*
X138697000Y-144873000D01*
X138717000Y-144873000D01*
X138717000Y-145127000D01*
X138697000Y-145127000D01*
X138697000Y-146311250D01*
X138855750Y-146470000D01*
X139506309Y-146470000D01*
X139739698Y-146373327D01*
X139918327Y-146194699D01*
X140003302Y-145989552D01*
X140021843Y-146082765D01*
X140162191Y-146292809D01*
X140372235Y-146433157D01*
X140620000Y-146482440D01*
X142240000Y-146482440D01*
X142487765Y-146433157D01*
X142697809Y-146292809D01*
X142838157Y-146082765D01*
X142887440Y-145835000D01*
X142887440Y-144165000D01*
X142838157Y-143917235D01*
X142721041Y-143741959D01*
X142795042Y-143667958D01*
X142945000Y-143305929D01*
X142945000Y-143055431D01*
X153765000Y-143055431D01*
X153765000Y-143944569D01*
X154105259Y-144766026D01*
X154733974Y-145394741D01*
X155555431Y-145735000D01*
X156444569Y-145735000D01*
X157266026Y-145394741D01*
X157894741Y-144766026D01*
X158235000Y-143944569D01*
X158235000Y-143055431D01*
X157894741Y-142233974D01*
X157266026Y-141605259D01*
X156444569Y-141265000D01*
X155555431Y-141265000D01*
X154733974Y-141605259D01*
X154105259Y-142233974D01*
X153765000Y-143055431D01*
X142945000Y-143055431D01*
X142945000Y-142914071D01*
X142795042Y-142552042D01*
X142517958Y-142274958D01*
X142155929Y-142125000D01*
X141764071Y-142125000D01*
X141402042Y-142274958D01*
X141124958Y-142552042D01*
X140975000Y-142914071D01*
X140975000Y-142927568D01*
X140903774Y-142998793D01*
X140834849Y-143044848D01*
X140788794Y-143113774D01*
X140652397Y-143317906D01*
X140612382Y-143519075D01*
X140372235Y-143566843D01*
X140162191Y-143707191D01*
X140021843Y-143917235D01*
X140003302Y-144010448D01*
X139918327Y-143805301D01*
X139739698Y-143626673D01*
X139506309Y-143530000D01*
X138855750Y-143530000D01*
X138697000Y-143688750D01*
X138443000Y-143688750D01*
X138284250Y-143530000D01*
X137633691Y-143530000D01*
X137400302Y-143626673D01*
X137221673Y-143805301D01*
X137125000Y-144038690D01*
X97536321Y-144038690D01*
X95832000Y-142334370D01*
X95832000Y-141084071D01*
X109495000Y-141084071D01*
X109495000Y-141475929D01*
X109644958Y-141837958D01*
X109922042Y-142115042D01*
X110284071Y-142265000D01*
X110675929Y-142265000D01*
X111037958Y-142115042D01*
X111315042Y-141837958D01*
X111465000Y-141475929D01*
X111465000Y-141372630D01*
X111915750Y-140921881D01*
X111979371Y-140879371D01*
X112147788Y-140627317D01*
X112192000Y-140405048D01*
X112192000Y-140405047D01*
X112206928Y-140330000D01*
X112192000Y-140254953D01*
X112192000Y-133684950D01*
X112288690Y-133725000D01*
X112964250Y-133725000D01*
X113123000Y-133566250D01*
X113123000Y-132407000D01*
X113103000Y-132407000D01*
X113103000Y-132153000D01*
X113123000Y-132153000D01*
X113123000Y-132133000D01*
X113377000Y-132133000D01*
X113377000Y-132153000D01*
X113397000Y-132153000D01*
X113397000Y-132407000D01*
X113377000Y-132407000D01*
X113377000Y-133566250D01*
X113535750Y-133725000D01*
X114211310Y-133725000D01*
X114444699Y-133628327D01*
X114623327Y-133449698D01*
X114720000Y-133216309D01*
X114720000Y-132734319D01*
X114794071Y-132765000D01*
X114998000Y-132765000D01*
X114998000Y-134989983D01*
X114983073Y-135065026D01*
X114998000Y-135140069D01*
X114998000Y-135140073D01*
X115042212Y-135362342D01*
X115210629Y-135614397D01*
X115231281Y-135628196D01*
X115175000Y-135764071D01*
X115175000Y-136155929D01*
X115324958Y-136517958D01*
X115398000Y-136591000D01*
X115398001Y-141538999D01*
X115294958Y-141642042D01*
X115145000Y-142004071D01*
X115145000Y-142395929D01*
X115294958Y-142757958D01*
X115572042Y-143035042D01*
X115934071Y-143185000D01*
X116325929Y-143185000D01*
X116687958Y-143035042D01*
X116965042Y-142757958D01*
X117115000Y-142395929D01*
X117115000Y-142004071D01*
X116965042Y-141642042D01*
X116922000Y-141599000D01*
X116922000Y-141114071D01*
X120635000Y-141114071D01*
X120635000Y-141505929D01*
X120784958Y-141867958D01*
X121062042Y-142145042D01*
X121424071Y-142295000D01*
X121815929Y-142295000D01*
X122177958Y-142145042D01*
X122455042Y-141867958D01*
X122605000Y-141505929D01*
X122605000Y-141114071D01*
X122455042Y-140752042D01*
X122177958Y-140474958D01*
X121815929Y-140325000D01*
X121424071Y-140325000D01*
X121062042Y-140474958D01*
X120784958Y-140752042D01*
X120635000Y-141114071D01*
X116922000Y-141114071D01*
X116922000Y-136591000D01*
X116995042Y-136517958D01*
X117145000Y-136155929D01*
X117145000Y-135764071D01*
X116995042Y-135402042D01*
X116906859Y-135313859D01*
X116877788Y-135167709D01*
X116709371Y-134915655D01*
X116645746Y-134873142D01*
X116522000Y-134749396D01*
X116522000Y-134165000D01*
X116845929Y-134165000D01*
X117207958Y-134015042D01*
X117485042Y-133737958D01*
X117635000Y-133375929D01*
X117635000Y-132984071D01*
X117485042Y-132622042D01*
X117428750Y-132565750D01*
X118280000Y-132565750D01*
X118280000Y-133216309D01*
X118376673Y-133449698D01*
X118555301Y-133628327D01*
X118788690Y-133725000D01*
X119464250Y-133725000D01*
X119623000Y-133566250D01*
X119623000Y-132407000D01*
X118438750Y-132407000D01*
X118280000Y-132565750D01*
X117428750Y-132565750D01*
X117412000Y-132549000D01*
X117412000Y-129085630D01*
X117887630Y-128610000D01*
X118267560Y-128610000D01*
X118267560Y-130230000D01*
X118316843Y-130477765D01*
X118457191Y-130687809D01*
X118667235Y-130828157D01*
X118760448Y-130846698D01*
X118555301Y-130931673D01*
X118376673Y-131110302D01*
X118280000Y-131343691D01*
X118280000Y-131994250D01*
X118438750Y-132153000D01*
X119623000Y-132153000D01*
X119623000Y-132133000D01*
X119877000Y-132133000D01*
X119877000Y-132153000D01*
X119897000Y-132153000D01*
X119897000Y-132407000D01*
X119877000Y-132407000D01*
X119877000Y-133566250D01*
X120035750Y-133725000D01*
X120711310Y-133725000D01*
X120944699Y-133628327D01*
X121123327Y-133449698D01*
X121220000Y-133216309D01*
X121220000Y-132565750D01*
X121061252Y-132407002D01*
X121220000Y-132407002D01*
X121220000Y-132287432D01*
X127458793Y-138526226D01*
X127504848Y-138595152D01*
X127777906Y-138777604D01*
X127873648Y-138796648D01*
X127912042Y-138835042D01*
X128274071Y-138985000D01*
X128665929Y-138985000D01*
X129027958Y-138835042D01*
X129305042Y-138557958D01*
X129455000Y-138195929D01*
X129455000Y-137804071D01*
X129305042Y-137442042D01*
X129027958Y-137164958D01*
X128665929Y-137015000D01*
X128282433Y-137015000D01*
X123833183Y-132565750D01*
X124780000Y-132565750D01*
X124780000Y-133216309D01*
X124876673Y-133449698D01*
X125055301Y-133628327D01*
X125288690Y-133725000D01*
X125964250Y-133725000D01*
X126123000Y-133566250D01*
X126123000Y-132407000D01*
X124938750Y-132407000D01*
X124780000Y-132565750D01*
X123833183Y-132565750D01*
X121232440Y-129965008D01*
X121232440Y-128610000D01*
X124767560Y-128610000D01*
X124767560Y-130230000D01*
X124816843Y-130477765D01*
X124957191Y-130687809D01*
X125167235Y-130828157D01*
X125260448Y-130846698D01*
X125055301Y-130931673D01*
X124876673Y-131110302D01*
X124780000Y-131343691D01*
X124780000Y-131994250D01*
X124938750Y-132153000D01*
X126123000Y-132153000D01*
X126123000Y-132133000D01*
X126377000Y-132133000D01*
X126377000Y-132153000D01*
X126397000Y-132153000D01*
X126397000Y-132407000D01*
X126377000Y-132407000D01*
X126377000Y-133566250D01*
X126535750Y-133725000D01*
X127211310Y-133725000D01*
X127444699Y-133628327D01*
X127623327Y-133449698D01*
X127664501Y-133350296D01*
X127664501Y-134813719D01*
X127664500Y-134813724D01*
X127664500Y-134822500D01*
X127654958Y-134832042D01*
X127505000Y-135194071D01*
X127505000Y-135585929D01*
X127654958Y-135947958D01*
X127932042Y-136225042D01*
X128294071Y-136375000D01*
X128685929Y-136375000D01*
X129047958Y-136225042D01*
X129325042Y-135947958D01*
X129475000Y-135585929D01*
X129475000Y-135194071D01*
X129325042Y-134832042D01*
X129315500Y-134822500D01*
X129315500Y-132565750D01*
X131280000Y-132565750D01*
X131280000Y-133216309D01*
X131376673Y-133449698D01*
X131555301Y-133628327D01*
X131788690Y-133725000D01*
X132464250Y-133725000D01*
X132623000Y-133566250D01*
X132623000Y-132407000D01*
X132877000Y-132407000D01*
X132877000Y-133566250D01*
X133035750Y-133725000D01*
X133711310Y-133725000D01*
X133944699Y-133628327D01*
X134123327Y-133449698D01*
X134220000Y-133216309D01*
X134220000Y-132565750D01*
X137780000Y-132565750D01*
X137780000Y-133216309D01*
X137876673Y-133449698D01*
X138055301Y-133628327D01*
X138288690Y-133725000D01*
X138964250Y-133725000D01*
X139123000Y-133566250D01*
X139123000Y-132407000D01*
X139377000Y-132407000D01*
X139377000Y-133566250D01*
X139535750Y-133725000D01*
X140211310Y-133725000D01*
X140444699Y-133628327D01*
X140623327Y-133449698D01*
X140720000Y-133216309D01*
X140720000Y-132565750D01*
X140561250Y-132407000D01*
X139377000Y-132407000D01*
X139123000Y-132407000D01*
X137938750Y-132407000D01*
X137780000Y-132565750D01*
X134220000Y-132565750D01*
X134061250Y-132407000D01*
X132877000Y-132407000D01*
X132623000Y-132407000D01*
X131438750Y-132407000D01*
X131280000Y-132565750D01*
X129315500Y-132565750D01*
X129315500Y-131716301D01*
X129331672Y-131634999D01*
X129302252Y-131487094D01*
X129267604Y-131312906D01*
X129085152Y-131039848D01*
X129016226Y-130993793D01*
X127732440Y-129710008D01*
X127732440Y-128610000D01*
X131267560Y-128610000D01*
X131267560Y-130230000D01*
X131316843Y-130477765D01*
X131457191Y-130687809D01*
X131667235Y-130828157D01*
X131760448Y-130846698D01*
X131555301Y-130931673D01*
X131376673Y-131110302D01*
X131280000Y-131343691D01*
X131280000Y-131994250D01*
X131438750Y-132153000D01*
X132623000Y-132153000D01*
X132623000Y-132133000D01*
X132877000Y-132133000D01*
X132877000Y-132153000D01*
X134061250Y-132153000D01*
X134220000Y-131994250D01*
X134220000Y-131912897D01*
X134394071Y-131985000D01*
X134785929Y-131985000D01*
X135147958Y-131835042D01*
X135425042Y-131557958D01*
X135575000Y-131195929D01*
X135575000Y-131188000D01*
X135672042Y-131285042D01*
X136034071Y-131435000D01*
X136425929Y-131435000D01*
X136787958Y-131285042D01*
X137065042Y-131007958D01*
X137215000Y-130645929D01*
X137215000Y-130632432D01*
X137601933Y-130245500D01*
X137770643Y-130245500D01*
X137816843Y-130477765D01*
X137957191Y-130687809D01*
X138167235Y-130828157D01*
X138260448Y-130846698D01*
X138055301Y-130931673D01*
X137876673Y-131110302D01*
X137780000Y-131343691D01*
X137780000Y-131994250D01*
X137938750Y-132153000D01*
X139123000Y-132153000D01*
X139123000Y-132133000D01*
X139377000Y-132133000D01*
X139377000Y-132153000D01*
X140561250Y-132153000D01*
X140720000Y-131994250D01*
X140720000Y-131343691D01*
X140623327Y-131110302D01*
X140444699Y-130931673D01*
X140239552Y-130846698D01*
X140332765Y-130828157D01*
X140542809Y-130687809D01*
X140683157Y-130477765D01*
X140732440Y-130230000D01*
X140732440Y-128610000D01*
X140683157Y-128362235D01*
X140542809Y-128152191D01*
X140332765Y-128011843D01*
X140085000Y-127962560D01*
X138415000Y-127962560D01*
X138167235Y-128011843D01*
X137957191Y-128152191D01*
X137816843Y-128362235D01*
X137770643Y-128594500D01*
X137341301Y-128594500D01*
X137260000Y-128578328D01*
X137178698Y-128594500D01*
X137178697Y-128594500D01*
X136937906Y-128642396D01*
X136664848Y-128824848D01*
X136618794Y-128893773D01*
X136047568Y-129465000D01*
X136034071Y-129465000D01*
X135672042Y-129614958D01*
X135427866Y-129859134D01*
X135431672Y-129840000D01*
X135367604Y-129517906D01*
X135332253Y-129465000D01*
X135185152Y-129244848D01*
X135116223Y-129198791D01*
X134811209Y-128893777D01*
X134765152Y-128824848D01*
X134492094Y-128642396D01*
X134251303Y-128594500D01*
X134251301Y-128594500D01*
X134228453Y-128589955D01*
X134183157Y-128362235D01*
X134042809Y-128152191D01*
X133832765Y-128011843D01*
X133585000Y-127962560D01*
X131915000Y-127962560D01*
X131667235Y-128011843D01*
X131457191Y-128152191D01*
X131316843Y-128362235D01*
X131267560Y-128610000D01*
X127732440Y-128610000D01*
X127683157Y-128362235D01*
X127542809Y-128152191D01*
X127332765Y-128011843D01*
X127085000Y-127962560D01*
X125415000Y-127962560D01*
X125167235Y-128011843D01*
X124957191Y-128152191D01*
X124816843Y-128362235D01*
X124767560Y-128610000D01*
X121232440Y-128610000D01*
X121183157Y-128362235D01*
X121042809Y-128152191D01*
X120832765Y-128011843D01*
X120585000Y-127962560D01*
X118915000Y-127962560D01*
X118667235Y-128011843D01*
X118457191Y-128152191D01*
X118316843Y-128362235D01*
X118267560Y-128610000D01*
X117887630Y-128610000D01*
X120315631Y-126182000D01*
X125309000Y-126182000D01*
X125382042Y-126255042D01*
X125744071Y-126405000D01*
X126135929Y-126405000D01*
X126497958Y-126255042D01*
X126775042Y-125977958D01*
X126925000Y-125615929D01*
X126925000Y-125466000D01*
X129946942Y-125466000D01*
X130234234Y-125585000D01*
X130685766Y-125585000D01*
X130973058Y-125466000D01*
X131678945Y-125466000D01*
X131797793Y-125752926D01*
X132117074Y-126072207D01*
X132534234Y-126245000D01*
X132985766Y-126245000D01*
X133402926Y-126072207D01*
X133722207Y-125752926D01*
X133895000Y-125335766D01*
X133895000Y-124884234D01*
X133722207Y-124467074D01*
X133402926Y-124147793D01*
X133115633Y-124028793D01*
X132889179Y-123802339D01*
X132832495Y-123717505D01*
X132496423Y-123492949D01*
X132200065Y-123434000D01*
X132200063Y-123434000D01*
X132100000Y-123414096D01*
X131999937Y-123434000D01*
X130973058Y-123434000D01*
X130685766Y-123315000D01*
X130234234Y-123315000D01*
X129946942Y-123434000D01*
X120563058Y-123434000D01*
X120275766Y-123315000D01*
X119824234Y-123315000D01*
X119407074Y-123487793D01*
X119087793Y-123807074D01*
X118915000Y-124224234D01*
X118915000Y-124675766D01*
X119087793Y-125092926D01*
X119168618Y-125173751D01*
X116522685Y-127819685D01*
X116297958Y-127594958D01*
X115935929Y-127445000D01*
X115544071Y-127445000D01*
X115182042Y-127594958D01*
X114904958Y-127872042D01*
X114755000Y-128234071D01*
X114755000Y-128625929D01*
X114904958Y-128987958D01*
X114998001Y-129081001D01*
X114998001Y-129975568D01*
X114732440Y-129710007D01*
X114732440Y-128610000D01*
X114683157Y-128362235D01*
X114542809Y-128152191D01*
X114332765Y-128011843D01*
X114085000Y-127962560D01*
X112905070Y-127962560D01*
X114252631Y-126615000D01*
X114625929Y-126615000D01*
X114987958Y-126465042D01*
X115265042Y-126187958D01*
X115415000Y-125825929D01*
X115415000Y-125434071D01*
X115265042Y-125072042D01*
X114987958Y-124794958D01*
X114625929Y-124645000D01*
X114234071Y-124645000D01*
X113872042Y-124794958D01*
X113594958Y-125072042D01*
X113562877Y-125149492D01*
X110944251Y-127768119D01*
X110880630Y-127810629D01*
X110838119Y-127874251D01*
X110838118Y-127874252D01*
X110712213Y-128062683D01*
X110653073Y-128360000D01*
X110668001Y-128435048D01*
X110668000Y-140014369D01*
X110387370Y-140295000D01*
X110284071Y-140295000D01*
X109922042Y-140444958D01*
X109644958Y-140722042D01*
X109495000Y-141084071D01*
X95832000Y-141084071D01*
X95832000Y-138931000D01*
X95905042Y-138857958D01*
X96055000Y-138495929D01*
X96055000Y-138104071D01*
X95905042Y-137742042D01*
X95627958Y-137464958D01*
X95265929Y-137315000D01*
X94874071Y-137315000D01*
X94512042Y-137464958D01*
X94234958Y-137742042D01*
X94085000Y-138104071D01*
X60735000Y-138104071D01*
X60735000Y-132565750D01*
X79280000Y-132565750D01*
X79280000Y-133216309D01*
X79376673Y-133449698D01*
X79555301Y-133628327D01*
X79788690Y-133725000D01*
X80464250Y-133725000D01*
X80623000Y-133566250D01*
X80623000Y-132407000D01*
X80877000Y-132407000D01*
X80877000Y-133566250D01*
X81035750Y-133725000D01*
X81711310Y-133725000D01*
X81944699Y-133628327D01*
X82123327Y-133449698D01*
X82220000Y-133216309D01*
X82220000Y-132565750D01*
X85780000Y-132565750D01*
X85780000Y-133216309D01*
X85876673Y-133449698D01*
X86055301Y-133628327D01*
X86288690Y-133725000D01*
X86964250Y-133725000D01*
X87123000Y-133566250D01*
X87123000Y-132407000D01*
X87377000Y-132407000D01*
X87377000Y-133566250D01*
X87535750Y-133725000D01*
X88211310Y-133725000D01*
X88444699Y-133628327D01*
X88623327Y-133449698D01*
X88720000Y-133216309D01*
X88720000Y-132565750D01*
X92280000Y-132565750D01*
X92280000Y-133216309D01*
X92376673Y-133449698D01*
X92555301Y-133628327D01*
X92788690Y-133725000D01*
X93464250Y-133725000D01*
X93623000Y-133566250D01*
X93623000Y-132407000D01*
X92438750Y-132407000D01*
X92280000Y-132565750D01*
X88720000Y-132565750D01*
X88561250Y-132407000D01*
X87377000Y-132407000D01*
X87123000Y-132407000D01*
X85938750Y-132407000D01*
X85780000Y-132565750D01*
X82220000Y-132565750D01*
X82061250Y-132407000D01*
X80877000Y-132407000D01*
X80623000Y-132407000D01*
X79438750Y-132407000D01*
X79280000Y-132565750D01*
X60735000Y-132565750D01*
X60735000Y-129004071D01*
X77745000Y-129004071D01*
X77745000Y-129395929D01*
X77894958Y-129757958D01*
X78172042Y-130035042D01*
X78534071Y-130185000D01*
X78925929Y-130185000D01*
X79267560Y-130043491D01*
X79267560Y-130230000D01*
X79316843Y-130477765D01*
X79457191Y-130687809D01*
X79667235Y-130828157D01*
X79760448Y-130846698D01*
X79555301Y-130931673D01*
X79376673Y-131110302D01*
X79280000Y-131343691D01*
X79280000Y-131994250D01*
X79438750Y-132153000D01*
X80623000Y-132153000D01*
X80623000Y-132133000D01*
X80877000Y-132133000D01*
X80877000Y-132153000D01*
X82061250Y-132153000D01*
X82220000Y-131994250D01*
X82220000Y-131343691D01*
X82123327Y-131110302D01*
X81944699Y-130931673D01*
X81739552Y-130846698D01*
X81832765Y-130828157D01*
X82042809Y-130687809D01*
X82183157Y-130477765D01*
X82232440Y-130230000D01*
X82232440Y-128610000D01*
X82183157Y-128362235D01*
X82098385Y-128235365D01*
X82194071Y-128275000D01*
X82207568Y-128275000D01*
X83878793Y-129946226D01*
X83924848Y-130015152D01*
X84197906Y-130197604D01*
X84436948Y-130245152D01*
X84520000Y-130261672D01*
X84601303Y-130245500D01*
X85770643Y-130245500D01*
X85816843Y-130477765D01*
X85957191Y-130687809D01*
X86167235Y-130828157D01*
X86260448Y-130846698D01*
X86055301Y-130931673D01*
X85876673Y-131110302D01*
X85780000Y-131343691D01*
X85780000Y-131994250D01*
X85938750Y-132153000D01*
X87123000Y-132153000D01*
X87123000Y-132133000D01*
X87377000Y-132133000D01*
X87377000Y-132153000D01*
X88561250Y-132153000D01*
X88720000Y-131994250D01*
X88720000Y-131343691D01*
X88623327Y-131110302D01*
X88444699Y-130931673D01*
X88239552Y-130846698D01*
X88332765Y-130828157D01*
X88542809Y-130687809D01*
X88683157Y-130477765D01*
X88732440Y-130230000D01*
X88732440Y-129454071D01*
X88805000Y-129454071D01*
X88805000Y-129845929D01*
X88954958Y-130207958D01*
X89232042Y-130485042D01*
X89594071Y-130635000D01*
X89675000Y-130635000D01*
X89675000Y-130665929D01*
X89824958Y-131027958D01*
X90102042Y-131305042D01*
X90464071Y-131455000D01*
X90855929Y-131455000D01*
X91217958Y-131305042D01*
X91495042Y-131027958D01*
X91645000Y-130665929D01*
X91645000Y-130652432D01*
X92267560Y-130029873D01*
X92267560Y-130230000D01*
X92316843Y-130477765D01*
X92457191Y-130687809D01*
X92667235Y-130828157D01*
X92760448Y-130846698D01*
X92555301Y-130931673D01*
X92376673Y-131110302D01*
X92280000Y-131343691D01*
X92280000Y-131994250D01*
X92438750Y-132153000D01*
X93623000Y-132153000D01*
X93623000Y-132133000D01*
X93877000Y-132133000D01*
X93877000Y-132153000D01*
X95061250Y-132153000D01*
X95220000Y-131994250D01*
X95220000Y-131343691D01*
X95123327Y-131110302D01*
X94944699Y-130931673D01*
X94739552Y-130846698D01*
X94832765Y-130828157D01*
X95042809Y-130687809D01*
X95183157Y-130477765D01*
X95184347Y-130471780D01*
X95284501Y-130571934D01*
X95284500Y-132192500D01*
X95274958Y-132202042D01*
X95152333Y-132498083D01*
X95061250Y-132407000D01*
X93877000Y-132407000D01*
X93877000Y-133566250D01*
X94035750Y-133725000D01*
X94711310Y-133725000D01*
X94944699Y-133628327D01*
X95123327Y-133449698D01*
X95220000Y-133216309D01*
X95220000Y-133185278D01*
X95274958Y-133317958D01*
X95552042Y-133595042D01*
X95914071Y-133745000D01*
X96305929Y-133745000D01*
X96667958Y-133595042D01*
X96945042Y-133317958D01*
X97095000Y-132955929D01*
X97095000Y-132565750D01*
X98780000Y-132565750D01*
X98780000Y-133216309D01*
X98876673Y-133449698D01*
X99055301Y-133628327D01*
X99288690Y-133725000D01*
X99964250Y-133725000D01*
X100123000Y-133566250D01*
X100123000Y-132407000D01*
X100377000Y-132407000D01*
X100377000Y-133566250D01*
X100535750Y-133725000D01*
X101211310Y-133725000D01*
X101444699Y-133628327D01*
X101623327Y-133449698D01*
X101720000Y-133216309D01*
X101720000Y-132565750D01*
X101561250Y-132407000D01*
X100377000Y-132407000D01*
X100123000Y-132407000D01*
X98938750Y-132407000D01*
X98780000Y-132565750D01*
X97095000Y-132565750D01*
X97095000Y-132564071D01*
X97033377Y-132415301D01*
X97274071Y-132515000D01*
X97665929Y-132515000D01*
X98027958Y-132365042D01*
X98305042Y-132087958D01*
X98455000Y-131725929D01*
X98455000Y-131334071D01*
X98305042Y-130972042D01*
X98232000Y-130899000D01*
X98232000Y-130493877D01*
X98284998Y-130365929D01*
X98284998Y-129974071D01*
X98135040Y-129612042D01*
X97857956Y-129334958D01*
X97495927Y-129185000D01*
X97104069Y-129185000D01*
X96742040Y-129334958D01*
X96562215Y-129514783D01*
X95941209Y-128893777D01*
X95895152Y-128824848D01*
X95622094Y-128642396D01*
X95459228Y-128610000D01*
X98767560Y-128610000D01*
X98767560Y-130230000D01*
X98816843Y-130477765D01*
X98957191Y-130687809D01*
X99167235Y-130828157D01*
X99260448Y-130846698D01*
X99055301Y-130931673D01*
X98876673Y-131110302D01*
X98780000Y-131343691D01*
X98780000Y-131994250D01*
X98938750Y-132153000D01*
X100123000Y-132153000D01*
X100123000Y-132133000D01*
X100377000Y-132133000D01*
X100377000Y-132153000D01*
X101561250Y-132153000D01*
X101720000Y-131994250D01*
X101720000Y-131343691D01*
X101623327Y-131110302D01*
X101444699Y-130931673D01*
X101239552Y-130846698D01*
X101332765Y-130828157D01*
X101542809Y-130687809D01*
X101641971Y-130539404D01*
X102054501Y-130951934D01*
X102054500Y-133608698D01*
X102038328Y-133690000D01*
X102054500Y-133771301D01*
X102054500Y-133771302D01*
X102102396Y-134012093D01*
X102284848Y-134285152D01*
X102353777Y-134331209D01*
X104294502Y-136271935D01*
X104294501Y-139048699D01*
X104278329Y-139130001D01*
X104294501Y-139211302D01*
X104294501Y-139211303D01*
X104342397Y-139452094D01*
X104485000Y-139665515D01*
X104485000Y-139675929D01*
X104634958Y-140037958D01*
X104912042Y-140315042D01*
X105274071Y-140465000D01*
X105665929Y-140465000D01*
X106027958Y-140315042D01*
X106305042Y-140037958D01*
X106455000Y-139675929D01*
X106455000Y-139284071D01*
X106305042Y-138922042D01*
X106027958Y-138644958D01*
X105945501Y-138610803D01*
X105945501Y-136011304D01*
X105961673Y-135930001D01*
X105897605Y-135607906D01*
X105802134Y-135465025D01*
X105715153Y-135334849D01*
X105646227Y-135288794D01*
X105265216Y-134907784D01*
X105365042Y-134807958D01*
X105515000Y-134445929D01*
X105515000Y-134054071D01*
X105365042Y-133692042D01*
X105292000Y-133619000D01*
X105292000Y-133245280D01*
X105376673Y-133449698D01*
X105555301Y-133628327D01*
X105788690Y-133725000D01*
X106464250Y-133725000D01*
X106623000Y-133566250D01*
X106623000Y-132407000D01*
X106603000Y-132407000D01*
X106603000Y-132153000D01*
X106623000Y-132153000D01*
X106623000Y-132133000D01*
X106877000Y-132133000D01*
X106877000Y-132153000D01*
X106897000Y-132153000D01*
X106897000Y-132407000D01*
X106877000Y-132407000D01*
X106877000Y-133566250D01*
X107035750Y-133725000D01*
X107694500Y-133725000D01*
X107694501Y-139213717D01*
X107694500Y-139213722D01*
X107694500Y-139222498D01*
X107684958Y-139232040D01*
X107535000Y-139594069D01*
X107535000Y-139985927D01*
X107684958Y-140347956D01*
X107962042Y-140625040D01*
X108324071Y-140774998D01*
X108715929Y-140774998D01*
X109077958Y-140625040D01*
X109355042Y-140347956D01*
X109505000Y-139985927D01*
X109505000Y-139594069D01*
X109355042Y-139232040D01*
X109345500Y-139222498D01*
X109345500Y-133261450D01*
X109354071Y-133265000D01*
X109745929Y-133265000D01*
X110107958Y-133115042D01*
X110385042Y-132837958D01*
X110535000Y-132475929D01*
X110535000Y-132084071D01*
X110385042Y-131722042D01*
X110107958Y-131444958D01*
X109945500Y-131377665D01*
X109945500Y-128357500D01*
X109955042Y-128347958D01*
X110105000Y-127985929D01*
X110105000Y-127594071D01*
X109955042Y-127232042D01*
X109677958Y-126954958D01*
X109477751Y-126872029D01*
X109597765Y-126848157D01*
X109600000Y-126846664D01*
X109602235Y-126848157D01*
X109850000Y-126897440D01*
X110150000Y-126897440D01*
X110397765Y-126848157D01*
X110411916Y-126838702D01*
X110523690Y-126885000D01*
X110616250Y-126885000D01*
X110775000Y-126726250D01*
X110775000Y-126362815D01*
X110797440Y-126250000D01*
X110797440Y-125977000D01*
X111025000Y-125977000D01*
X111025000Y-126726250D01*
X111183750Y-126885000D01*
X111276310Y-126885000D01*
X111509699Y-126788327D01*
X111688327Y-126609698D01*
X111785000Y-126376309D01*
X111785000Y-126135750D01*
X111626250Y-125977000D01*
X111025000Y-125977000D01*
X110797440Y-125977000D01*
X110797440Y-125703000D01*
X111025000Y-125703000D01*
X111025000Y-125723000D01*
X111626250Y-125723000D01*
X111785000Y-125564250D01*
X111785000Y-125323691D01*
X111688327Y-125090302D01*
X111606625Y-125008600D01*
X111607809Y-125007809D01*
X111748157Y-124797765D01*
X111797440Y-124550000D01*
X111797440Y-123750000D01*
X111748157Y-123502235D01*
X111725500Y-123468327D01*
X111725500Y-123401301D01*
X111741672Y-123320000D01*
X111740876Y-123316000D01*
X114226942Y-123316000D01*
X114514234Y-123435000D01*
X114965766Y-123435000D01*
X115382926Y-123262207D01*
X115702207Y-122942926D01*
X115875000Y-122525766D01*
X115875000Y-122074234D01*
X115702207Y-121657074D01*
X115382926Y-121337793D01*
X114965766Y-121165000D01*
X114720000Y-121165000D01*
X114720000Y-120865750D01*
X118280000Y-120865750D01*
X118280000Y-121516309D01*
X118376673Y-121749698D01*
X118555301Y-121928327D01*
X118788690Y-122025000D01*
X119464250Y-122025000D01*
X119623000Y-121866250D01*
X119623000Y-120707000D01*
X119877000Y-120707000D01*
X119877000Y-121866250D01*
X120035750Y-122025000D01*
X120711310Y-122025000D01*
X120944699Y-121928327D01*
X121123327Y-121749698D01*
X121220000Y-121516309D01*
X121220000Y-120865750D01*
X124780000Y-120865750D01*
X124780000Y-121516309D01*
X124876673Y-121749698D01*
X125055301Y-121928327D01*
X125288690Y-122025000D01*
X125964250Y-122025000D01*
X126123000Y-121866250D01*
X126123000Y-120707000D01*
X126377000Y-120707000D01*
X126377000Y-121866250D01*
X126535750Y-122025000D01*
X127211310Y-122025000D01*
X127444699Y-121928327D01*
X127623327Y-121749698D01*
X127720000Y-121516309D01*
X127720000Y-120865750D01*
X131280000Y-120865750D01*
X131280000Y-121516309D01*
X131376673Y-121749698D01*
X131555301Y-121928327D01*
X131788690Y-122025000D01*
X132464250Y-122025000D01*
X132623000Y-121866250D01*
X132623000Y-120707000D01*
X132877000Y-120707000D01*
X132877000Y-121866250D01*
X133035750Y-122025000D01*
X133711310Y-122025000D01*
X133944699Y-121928327D01*
X134123327Y-121749698D01*
X134220000Y-121516309D01*
X134220000Y-120865750D01*
X137780000Y-120865750D01*
X137780000Y-121516309D01*
X137876673Y-121749698D01*
X138055301Y-121928327D01*
X138288690Y-122025000D01*
X138964250Y-122025000D01*
X139123000Y-121866250D01*
X139123000Y-120707000D01*
X139377000Y-120707000D01*
X139377000Y-121866250D01*
X139535750Y-122025000D01*
X140211310Y-122025000D01*
X140444699Y-121928327D01*
X140623327Y-121749698D01*
X140720000Y-121516309D01*
X140720000Y-120865750D01*
X140561250Y-120707000D01*
X139377000Y-120707000D01*
X139123000Y-120707000D01*
X137938750Y-120707000D01*
X137780000Y-120865750D01*
X134220000Y-120865750D01*
X134061250Y-120707000D01*
X132877000Y-120707000D01*
X132623000Y-120707000D01*
X131438750Y-120707000D01*
X131280000Y-120865750D01*
X127720000Y-120865750D01*
X127561250Y-120707000D01*
X126377000Y-120707000D01*
X126123000Y-120707000D01*
X124938750Y-120707000D01*
X124780000Y-120865750D01*
X121220000Y-120865750D01*
X121061250Y-120707000D01*
X119877000Y-120707000D01*
X119623000Y-120707000D01*
X118438750Y-120707000D01*
X118280000Y-120865750D01*
X114720000Y-120865750D01*
X114561250Y-120707000D01*
X113377000Y-120707000D01*
X113377000Y-120727000D01*
X113123000Y-120727000D01*
X113123000Y-120707000D01*
X111938750Y-120707000D01*
X111780000Y-120865750D01*
X111780000Y-121284000D01*
X108220000Y-121284000D01*
X108220000Y-120865750D01*
X108061250Y-120707000D01*
X106877000Y-120707000D01*
X106877000Y-120727000D01*
X106623000Y-120727000D01*
X106623000Y-120707000D01*
X105438750Y-120707000D01*
X105280000Y-120865750D01*
X105280000Y-121445566D01*
X105097505Y-121567505D01*
X105040822Y-121652337D01*
X104744367Y-121948793D01*
X104457074Y-122067793D01*
X104137793Y-122387074D01*
X103965000Y-122804234D01*
X103965000Y-123255766D01*
X104137793Y-123672926D01*
X104457074Y-123992207D01*
X104609958Y-124055533D01*
X104565000Y-124164071D01*
X104565000Y-124555929D01*
X104714958Y-124917958D01*
X104798001Y-125001001D01*
X104798000Y-125819000D01*
X104724958Y-125892042D01*
X104575000Y-126254071D01*
X104575000Y-126645929D01*
X104724958Y-127007958D01*
X105002042Y-127285042D01*
X105364071Y-127435000D01*
X105755929Y-127435000D01*
X106117958Y-127285042D01*
X106395042Y-127007958D01*
X106545000Y-126645929D01*
X106545000Y-126254071D01*
X106395042Y-125892042D01*
X106322000Y-125819000D01*
X106322000Y-125122000D01*
X107274370Y-125122000D01*
X107658117Y-125505748D01*
X107700629Y-125569371D01*
X107952683Y-125737788D01*
X108174952Y-125782000D01*
X108174957Y-125782000D01*
X108202560Y-125787491D01*
X108202560Y-125819809D01*
X106974347Y-127048023D01*
X106692042Y-127164958D01*
X106414958Y-127442042D01*
X106265000Y-127804071D01*
X106265000Y-127962560D01*
X105915000Y-127962560D01*
X105667235Y-128011843D01*
X105457191Y-128152191D01*
X105316843Y-128362235D01*
X105273440Y-128580440D01*
X105097958Y-128404958D01*
X104735929Y-128255000D01*
X104344071Y-128255000D01*
X103982042Y-128404958D01*
X103704958Y-128682042D01*
X103567042Y-129015000D01*
X103534071Y-129015000D01*
X103172042Y-129164958D01*
X102894958Y-129442042D01*
X102890423Y-129452990D01*
X102331209Y-128893777D01*
X102285152Y-128824848D01*
X102012094Y-128642396D01*
X101771303Y-128594500D01*
X101771301Y-128594500D01*
X101727629Y-128585813D01*
X101683157Y-128362235D01*
X101542809Y-128152191D01*
X101332765Y-128011843D01*
X101085000Y-127962560D01*
X99415000Y-127962560D01*
X99167235Y-128011843D01*
X98957191Y-128152191D01*
X98816843Y-128362235D01*
X98767560Y-128610000D01*
X95459228Y-128610000D01*
X95381303Y-128594500D01*
X95381301Y-128594500D01*
X95300000Y-128578328D01*
X95228951Y-128592461D01*
X95183157Y-128362235D01*
X95042809Y-128152191D01*
X94832765Y-128011843D01*
X94585000Y-127962560D01*
X92915000Y-127962560D01*
X92667235Y-128011843D01*
X92665500Y-128013002D01*
X92665500Y-126297500D01*
X92675042Y-126287958D01*
X92825000Y-125925929D01*
X92825000Y-125534071D01*
X92675042Y-125172042D01*
X92397958Y-124894958D01*
X92035929Y-124745000D01*
X91644071Y-124745000D01*
X91387202Y-124851399D01*
X91375042Y-124822042D01*
X91097958Y-124544958D01*
X90735929Y-124395000D01*
X90344071Y-124395000D01*
X89982042Y-124544958D01*
X89704958Y-124822042D01*
X89555000Y-125184071D01*
X89555000Y-125197568D01*
X89263775Y-125488793D01*
X89194849Y-125534848D01*
X89148794Y-125603774D01*
X89012397Y-125807906D01*
X88948328Y-126130000D01*
X88964501Y-126211306D01*
X88964500Y-129082500D01*
X88954958Y-129092042D01*
X88805000Y-129454071D01*
X88732440Y-129454071D01*
X88732440Y-128610000D01*
X88683157Y-128362235D01*
X88542809Y-128152191D01*
X88332765Y-128011843D01*
X88085000Y-127962560D01*
X86415000Y-127962560D01*
X86167235Y-128011843D01*
X85957191Y-128152191D01*
X85816843Y-128362235D01*
X85770643Y-128594500D01*
X84861933Y-128594500D01*
X83375000Y-127107568D01*
X83375000Y-127094071D01*
X83225042Y-126732042D01*
X82947958Y-126454958D01*
X82585929Y-126305000D01*
X82194071Y-126305000D01*
X81832042Y-126454958D01*
X81554958Y-126732042D01*
X81405000Y-127094071D01*
X81405000Y-127485929D01*
X81554958Y-127847958D01*
X81690556Y-127983556D01*
X81585000Y-127962560D01*
X79915000Y-127962560D01*
X79667235Y-128011843D01*
X79457191Y-128152191D01*
X79316843Y-128362235D01*
X79314403Y-128374500D01*
X79297500Y-128374500D01*
X79287958Y-128364958D01*
X78925929Y-128215000D01*
X78534071Y-128215000D01*
X78172042Y-128364958D01*
X77894958Y-128642042D01*
X77745000Y-129004071D01*
X60735000Y-129004071D01*
X60735000Y-123254234D01*
X84195000Y-123254234D01*
X84195000Y-123705766D01*
X84367793Y-124122926D01*
X84687074Y-124442207D01*
X85104234Y-124615000D01*
X85555766Y-124615000D01*
X85972926Y-124442207D01*
X86179133Y-124236000D01*
X92122054Y-124236000D01*
X94463716Y-126577663D01*
X94520399Y-126662495D01*
X94856471Y-126887051D01*
X95152829Y-126946000D01*
X95152830Y-126946000D01*
X95252894Y-126965904D01*
X95352958Y-126946000D01*
X95446942Y-126946000D01*
X95734234Y-127065000D01*
X96185766Y-127065000D01*
X96602926Y-126892207D01*
X96922207Y-126572926D01*
X97095000Y-126155766D01*
X97095000Y-125704234D01*
X96922207Y-125287074D01*
X96602926Y-124967793D01*
X96185766Y-124795000D01*
X95734234Y-124795000D01*
X95607309Y-124847574D01*
X93332074Y-122572340D01*
X93275389Y-122487505D01*
X92939317Y-122262949D01*
X92642959Y-122204000D01*
X92642957Y-122204000D01*
X92542894Y-122184096D01*
X92442831Y-122204000D01*
X85690064Y-122204000D01*
X85590000Y-122184096D01*
X85489937Y-122204000D01*
X85489935Y-122204000D01*
X85193577Y-122262949D01*
X85016214Y-122381459D01*
X84687074Y-122517793D01*
X84367793Y-122837074D01*
X84195000Y-123254234D01*
X60735000Y-123254234D01*
X60735000Y-120865750D01*
X79280000Y-120865750D01*
X79280000Y-121516309D01*
X79376673Y-121749698D01*
X79555301Y-121928327D01*
X79788690Y-122025000D01*
X80464250Y-122025000D01*
X80623000Y-121866250D01*
X80623000Y-120707000D01*
X80877000Y-120707000D01*
X80877000Y-121866250D01*
X81035750Y-122025000D01*
X81711310Y-122025000D01*
X81944699Y-121928327D01*
X82123327Y-121749698D01*
X82220000Y-121516309D01*
X82220000Y-120865750D01*
X85780000Y-120865750D01*
X85780000Y-121516309D01*
X85876673Y-121749698D01*
X86055301Y-121928327D01*
X86288690Y-122025000D01*
X86964250Y-122025000D01*
X87123000Y-121866250D01*
X87123000Y-120707000D01*
X87377000Y-120707000D01*
X87377000Y-121866250D01*
X87535750Y-122025000D01*
X88211310Y-122025000D01*
X88444699Y-121928327D01*
X88623327Y-121749698D01*
X88720000Y-121516309D01*
X88720000Y-120865750D01*
X92280000Y-120865750D01*
X92280000Y-121516309D01*
X92376673Y-121749698D01*
X92555301Y-121928327D01*
X92788690Y-122025000D01*
X93464250Y-122025000D01*
X93623000Y-121866250D01*
X93623000Y-120707000D01*
X93877000Y-120707000D01*
X93877000Y-121866250D01*
X94035750Y-122025000D01*
X94711310Y-122025000D01*
X94944699Y-121928327D01*
X95123327Y-121749698D01*
X95220000Y-121516309D01*
X95220000Y-120865750D01*
X98780000Y-120865750D01*
X98780000Y-121516309D01*
X98876673Y-121749698D01*
X99055301Y-121928327D01*
X99288690Y-122025000D01*
X99964250Y-122025000D01*
X100123000Y-121866250D01*
X100123000Y-120707000D01*
X100377000Y-120707000D01*
X100377000Y-121866250D01*
X100535750Y-122025000D01*
X101211310Y-122025000D01*
X101444699Y-121928327D01*
X101623327Y-121749698D01*
X101720000Y-121516309D01*
X101720000Y-120865750D01*
X101561250Y-120707000D01*
X100377000Y-120707000D01*
X100123000Y-120707000D01*
X98938750Y-120707000D01*
X98780000Y-120865750D01*
X95220000Y-120865750D01*
X95061250Y-120707000D01*
X93877000Y-120707000D01*
X93623000Y-120707000D01*
X92438750Y-120707000D01*
X92280000Y-120865750D01*
X88720000Y-120865750D01*
X88561250Y-120707000D01*
X87377000Y-120707000D01*
X87123000Y-120707000D01*
X85938750Y-120707000D01*
X85780000Y-120865750D01*
X82220000Y-120865750D01*
X82061250Y-120707000D01*
X80877000Y-120707000D01*
X80623000Y-120707000D01*
X79438750Y-120707000D01*
X79280000Y-120865750D01*
X60735000Y-120865750D01*
X60735000Y-116910000D01*
X79267560Y-116910000D01*
X79267560Y-118530000D01*
X79316843Y-118777765D01*
X79457191Y-118987809D01*
X79667235Y-119128157D01*
X79760448Y-119146698D01*
X79555301Y-119231673D01*
X79376673Y-119410302D01*
X79280000Y-119643691D01*
X79280000Y-120294250D01*
X79438750Y-120453000D01*
X80623000Y-120453000D01*
X80623000Y-120433000D01*
X80877000Y-120433000D01*
X80877000Y-120453000D01*
X82061250Y-120453000D01*
X82220000Y-120294250D01*
X82220000Y-119643691D01*
X82123327Y-119410302D01*
X81944699Y-119231673D01*
X81739552Y-119146698D01*
X81832765Y-119128157D01*
X82042809Y-118987809D01*
X82183157Y-118777765D01*
X82232440Y-118530000D01*
X82232440Y-116910000D01*
X85767560Y-116910000D01*
X85767560Y-118530000D01*
X85816843Y-118777765D01*
X85957191Y-118987809D01*
X86167235Y-119128157D01*
X86260448Y-119146698D01*
X86055301Y-119231673D01*
X85876673Y-119410302D01*
X85780000Y-119643691D01*
X85780000Y-120294250D01*
X85938750Y-120453000D01*
X87123000Y-120453000D01*
X87123000Y-120433000D01*
X87377000Y-120433000D01*
X87377000Y-120453000D01*
X88561250Y-120453000D01*
X88720000Y-120294250D01*
X88720000Y-119643691D01*
X88623327Y-119410302D01*
X88444699Y-119231673D01*
X88239552Y-119146698D01*
X88332765Y-119128157D01*
X88542809Y-118987809D01*
X88683157Y-118777765D01*
X88732440Y-118530000D01*
X88732440Y-116910000D01*
X88713544Y-116815000D01*
X88775929Y-116815000D01*
X89137958Y-116665042D01*
X89147500Y-116655500D01*
X92321343Y-116655500D01*
X92316843Y-116662235D01*
X92267560Y-116910000D01*
X92267560Y-118530000D01*
X92316843Y-118777765D01*
X92457191Y-118987809D01*
X92667235Y-119128157D01*
X92760448Y-119146698D01*
X92555301Y-119231673D01*
X92376673Y-119410302D01*
X92280000Y-119643691D01*
X92280000Y-120294250D01*
X92438750Y-120453000D01*
X93623000Y-120453000D01*
X93623000Y-120433000D01*
X93877000Y-120433000D01*
X93877000Y-120453000D01*
X95061250Y-120453000D01*
X95220000Y-120294250D01*
X95220000Y-119643691D01*
X95123327Y-119410302D01*
X94944699Y-119231673D01*
X94739552Y-119146698D01*
X94832765Y-119128157D01*
X95042809Y-118987809D01*
X95183157Y-118777765D01*
X95232440Y-118530000D01*
X95232440Y-116974071D01*
X97585000Y-116974071D01*
X97585000Y-117365929D01*
X97734958Y-117727958D01*
X98012042Y-118005042D01*
X98374071Y-118155000D01*
X98765929Y-118155000D01*
X98767560Y-118154324D01*
X98767560Y-118530000D01*
X98816843Y-118777765D01*
X98957191Y-118987809D01*
X99167235Y-119128157D01*
X99260448Y-119146698D01*
X99055301Y-119231673D01*
X98876673Y-119410302D01*
X98780000Y-119643691D01*
X98780000Y-120294250D01*
X98938750Y-120453000D01*
X100123000Y-120453000D01*
X100123000Y-120433000D01*
X100377000Y-120433000D01*
X100377000Y-120453000D01*
X101561250Y-120453000D01*
X101720000Y-120294250D01*
X101720000Y-119643691D01*
X101623327Y-119410302D01*
X101444699Y-119231673D01*
X101239552Y-119146698D01*
X101332765Y-119128157D01*
X101542809Y-118987809D01*
X101683157Y-118777765D01*
X101732440Y-118530000D01*
X101732440Y-116910000D01*
X105267560Y-116910000D01*
X105267560Y-118530000D01*
X105316843Y-118777765D01*
X105457191Y-118987809D01*
X105667235Y-119128157D01*
X105760448Y-119146698D01*
X105555301Y-119231673D01*
X105376673Y-119410302D01*
X105280000Y-119643691D01*
X105280000Y-120294250D01*
X105438750Y-120453000D01*
X106623000Y-120453000D01*
X106623000Y-120433000D01*
X106877000Y-120433000D01*
X106877000Y-120453000D01*
X108061250Y-120453000D01*
X108220000Y-120294250D01*
X108220000Y-119643691D01*
X108123327Y-119410302D01*
X107944699Y-119231673D01*
X107739552Y-119146698D01*
X107832765Y-119128157D01*
X108042809Y-118987809D01*
X108183157Y-118777765D01*
X108232440Y-118530000D01*
X108232440Y-116910000D01*
X111767560Y-116910000D01*
X111767560Y-118530000D01*
X111816843Y-118777765D01*
X111957191Y-118987809D01*
X112167235Y-119128157D01*
X112260448Y-119146698D01*
X112055301Y-119231673D01*
X111876673Y-119410302D01*
X111780000Y-119643691D01*
X111780000Y-120294250D01*
X111938750Y-120453000D01*
X113123000Y-120453000D01*
X113123000Y-120433000D01*
X113377000Y-120433000D01*
X113377000Y-120453000D01*
X114561250Y-120453000D01*
X114720000Y-120294250D01*
X114720000Y-119643691D01*
X114623327Y-119410302D01*
X114444699Y-119231673D01*
X114239552Y-119146698D01*
X114332765Y-119128157D01*
X114542809Y-118987809D01*
X114683157Y-118777765D01*
X114732440Y-118530000D01*
X114732440Y-116910000D01*
X118267560Y-116910000D01*
X118267560Y-118530000D01*
X118316843Y-118777765D01*
X118457191Y-118987809D01*
X118667235Y-119128157D01*
X118760448Y-119146698D01*
X118555301Y-119231673D01*
X118376673Y-119410302D01*
X118280000Y-119643691D01*
X118280000Y-120294250D01*
X118438750Y-120453000D01*
X119623000Y-120453000D01*
X119623000Y-120433000D01*
X119877000Y-120433000D01*
X119877000Y-120453000D01*
X121061250Y-120453000D01*
X121220000Y-120294250D01*
X121220000Y-119643691D01*
X121123327Y-119410302D01*
X120944699Y-119231673D01*
X120739552Y-119146698D01*
X120832765Y-119128157D01*
X121042809Y-118987809D01*
X121183157Y-118777765D01*
X121232440Y-118530000D01*
X121232440Y-116910000D01*
X121183157Y-116662235D01*
X121042809Y-116452191D01*
X121013695Y-116432737D01*
X126950933Y-110495500D01*
X128835000Y-110495500D01*
X128835000Y-110685929D01*
X128984958Y-111047958D01*
X128994501Y-111057501D01*
X128994500Y-115908067D01*
X128008068Y-116894500D01*
X127729357Y-116894500D01*
X127683157Y-116662235D01*
X127542809Y-116452191D01*
X127332765Y-116311843D01*
X127085000Y-116262560D01*
X125415000Y-116262560D01*
X125167235Y-116311843D01*
X124957191Y-116452191D01*
X124816843Y-116662235D01*
X124767560Y-116910000D01*
X124767560Y-118530000D01*
X124816843Y-118777765D01*
X124957191Y-118987809D01*
X125167235Y-119128157D01*
X125260448Y-119146698D01*
X125055301Y-119231673D01*
X124876673Y-119410302D01*
X124780000Y-119643691D01*
X124780000Y-120294250D01*
X124938750Y-120453000D01*
X126123000Y-120453000D01*
X126123000Y-120433000D01*
X126377000Y-120433000D01*
X126377000Y-120453000D01*
X127561250Y-120453000D01*
X127720000Y-120294250D01*
X127720000Y-119643691D01*
X127623327Y-119410302D01*
X127444699Y-119231673D01*
X127239552Y-119146698D01*
X127332765Y-119128157D01*
X127542809Y-118987809D01*
X127683157Y-118777765D01*
X127729357Y-118545500D01*
X128268699Y-118545500D01*
X128350000Y-118561672D01*
X128431301Y-118545500D01*
X128431303Y-118545500D01*
X128672094Y-118497604D01*
X128945152Y-118315152D01*
X128991209Y-118246223D01*
X130327432Y-116910000D01*
X131267560Y-116910000D01*
X131267560Y-118530000D01*
X131316843Y-118777765D01*
X131457191Y-118987809D01*
X131667235Y-119128157D01*
X131760448Y-119146698D01*
X131555301Y-119231673D01*
X131376673Y-119410302D01*
X131280000Y-119643691D01*
X131280000Y-120294250D01*
X131438750Y-120453000D01*
X132623000Y-120453000D01*
X132623000Y-120433000D01*
X132877000Y-120433000D01*
X132877000Y-120453000D01*
X134061250Y-120453000D01*
X134220000Y-120294250D01*
X134220000Y-119643691D01*
X134123327Y-119410302D01*
X133944699Y-119231673D01*
X133739552Y-119146698D01*
X133832765Y-119128157D01*
X134042809Y-118987809D01*
X134183157Y-118777765D01*
X134232440Y-118530000D01*
X134232440Y-116910000D01*
X134183157Y-116662235D01*
X134042809Y-116452191D01*
X133832765Y-116311843D01*
X133585000Y-116262560D01*
X133575500Y-116262560D01*
X133575500Y-116221036D01*
X133927958Y-116075042D01*
X134205042Y-115797958D01*
X134355000Y-115435929D01*
X134355000Y-115044071D01*
X134205042Y-114682042D01*
X133927958Y-114404958D01*
X133565929Y-114255000D01*
X133174071Y-114255000D01*
X132812042Y-114404958D01*
X132534958Y-114682042D01*
X132385000Y-115044071D01*
X132385000Y-115057567D01*
X132223774Y-115218794D01*
X132154849Y-115264848D01*
X132108794Y-115333774D01*
X131972397Y-115537906D01*
X131908328Y-115860000D01*
X131924501Y-115941306D01*
X131924501Y-116262560D01*
X131915000Y-116262560D01*
X131667235Y-116311843D01*
X131457191Y-116452191D01*
X131316843Y-116662235D01*
X131267560Y-116910000D01*
X130327432Y-116910000D01*
X130346226Y-116891207D01*
X130415152Y-116845152D01*
X130597604Y-116572094D01*
X130645500Y-116331303D01*
X130645500Y-116331302D01*
X130661672Y-116250000D01*
X130645500Y-116168699D01*
X130645500Y-111057500D01*
X130655042Y-111047958D01*
X130805000Y-110685929D01*
X130805000Y-110651243D01*
X131157958Y-110505042D01*
X131435042Y-110227958D01*
X131585000Y-109865929D01*
X131585000Y-109505500D01*
X136618068Y-109505500D01*
X138424501Y-111311934D01*
X138424500Y-116262560D01*
X138415000Y-116262560D01*
X138167235Y-116311843D01*
X137957191Y-116452191D01*
X137816843Y-116662235D01*
X137767560Y-116910000D01*
X137767560Y-118530000D01*
X137816843Y-118777765D01*
X137957191Y-118987809D01*
X138167235Y-119128157D01*
X138260448Y-119146698D01*
X138055301Y-119231673D01*
X137876673Y-119410302D01*
X137780000Y-119643691D01*
X137780000Y-120294250D01*
X137938750Y-120453000D01*
X139123000Y-120453000D01*
X139123000Y-120433000D01*
X139377000Y-120433000D01*
X139377000Y-120453000D01*
X140561250Y-120453000D01*
X140720000Y-120294250D01*
X140720000Y-119643691D01*
X140623327Y-119410302D01*
X140444699Y-119231673D01*
X140239552Y-119146698D01*
X140332765Y-119128157D01*
X140542809Y-118987809D01*
X140683157Y-118777765D01*
X140732440Y-118530000D01*
X140732440Y-116910000D01*
X140683157Y-116662235D01*
X140542809Y-116452191D01*
X140332765Y-116311843D01*
X140085000Y-116262560D01*
X140075500Y-116262560D01*
X140075500Y-111051297D01*
X140091671Y-110969999D01*
X140075500Y-110888701D01*
X140075500Y-110888697D01*
X140027604Y-110647906D01*
X139845152Y-110374848D01*
X139776226Y-110328793D01*
X137601209Y-108153777D01*
X137555152Y-108084848D01*
X137282094Y-107902396D01*
X137041303Y-107854500D01*
X137041301Y-107854500D01*
X136960000Y-107838328D01*
X136878699Y-107854500D01*
X126631297Y-107854500D01*
X126549999Y-107838329D01*
X126468701Y-107854500D01*
X126468697Y-107854500D01*
X126227906Y-107902396D01*
X125954848Y-108084848D01*
X125908793Y-108153774D01*
X125237568Y-108825000D01*
X125224071Y-108825000D01*
X124862042Y-108974958D01*
X124584958Y-109252042D01*
X124435000Y-109614071D01*
X124435000Y-110005929D01*
X124584958Y-110367958D01*
X124664284Y-110447284D01*
X119223777Y-115887791D01*
X119154848Y-115933848D01*
X118972396Y-116206907D01*
X118961326Y-116262560D01*
X118915000Y-116262560D01*
X118667235Y-116311843D01*
X118457191Y-116452191D01*
X118316843Y-116662235D01*
X118267560Y-116910000D01*
X114732440Y-116910000D01*
X114683157Y-116662235D01*
X114542809Y-116452191D01*
X114332765Y-116311843D01*
X114085000Y-116262560D01*
X114075500Y-116262560D01*
X114075500Y-111061330D01*
X114307958Y-110965042D01*
X114585042Y-110687958D01*
X114735000Y-110325929D01*
X114735000Y-109934071D01*
X114585042Y-109572042D01*
X114307958Y-109294958D01*
X113945929Y-109145000D01*
X113554071Y-109145000D01*
X113192042Y-109294958D01*
X112914958Y-109572042D01*
X112765000Y-109934071D01*
X112765000Y-109947568D01*
X112713772Y-109998796D01*
X112644849Y-110044849D01*
X112598796Y-110113772D01*
X112598794Y-110113774D01*
X112462397Y-110317906D01*
X112398328Y-110640000D01*
X112424500Y-110771575D01*
X112424501Y-116262560D01*
X112415000Y-116262560D01*
X112167235Y-116311843D01*
X111957191Y-116452191D01*
X111816843Y-116662235D01*
X111767560Y-116910000D01*
X108232440Y-116910000D01*
X108183157Y-116662235D01*
X108042809Y-116452191D01*
X107832765Y-116311843D01*
X107585000Y-116262560D01*
X107575500Y-116262560D01*
X107575500Y-111141932D01*
X107592432Y-111125000D01*
X107605929Y-111125000D01*
X107967958Y-110975042D01*
X108245042Y-110697958D01*
X108395000Y-110335929D01*
X108395000Y-109944071D01*
X108245042Y-109582042D01*
X107967958Y-109304958D01*
X107605929Y-109155000D01*
X107214071Y-109155000D01*
X106852042Y-109304958D01*
X106574958Y-109582042D01*
X106425000Y-109944071D01*
X106425000Y-109957568D01*
X106223775Y-110158793D01*
X106154849Y-110204848D01*
X106108794Y-110273774D01*
X105972397Y-110477906D01*
X105908328Y-110800000D01*
X105924501Y-110881306D01*
X105924500Y-116262560D01*
X105915000Y-116262560D01*
X105667235Y-116311843D01*
X105457191Y-116452191D01*
X105316843Y-116662235D01*
X105267560Y-116910000D01*
X101732440Y-116910000D01*
X101683157Y-116662235D01*
X101542809Y-116452191D01*
X101332765Y-116311843D01*
X101085000Y-116262560D01*
X99415000Y-116262560D01*
X99167235Y-116311843D01*
X99129834Y-116336834D01*
X99127958Y-116334958D01*
X98765929Y-116185000D01*
X98374071Y-116185000D01*
X98012042Y-116334958D01*
X97734958Y-116612042D01*
X97585000Y-116974071D01*
X95232440Y-116974071D01*
X95232440Y-116910000D01*
X95183157Y-116662235D01*
X95042809Y-116452191D01*
X94832765Y-116311843D01*
X94585000Y-116262560D01*
X94538674Y-116262560D01*
X94527604Y-116206906D01*
X94345152Y-115933848D01*
X94276226Y-115887793D01*
X93692209Y-115303777D01*
X93646152Y-115234848D01*
X93373094Y-115052396D01*
X93132303Y-115004500D01*
X93132301Y-115004500D01*
X93051000Y-114988328D01*
X92969699Y-115004500D01*
X89147500Y-115004500D01*
X89137958Y-114994958D01*
X88775929Y-114845000D01*
X88384071Y-114845000D01*
X88295000Y-114881895D01*
X88295000Y-114554071D01*
X88145042Y-114192042D01*
X87867958Y-113914958D01*
X87505929Y-113765000D01*
X87114071Y-113765000D01*
X86752042Y-113914958D01*
X86474958Y-114192042D01*
X86325000Y-114554071D01*
X86325000Y-114945929D01*
X86474958Y-115307958D01*
X86484500Y-115317500D01*
X86484501Y-116262560D01*
X86415000Y-116262560D01*
X86167235Y-116311843D01*
X85957191Y-116452191D01*
X85816843Y-116662235D01*
X85767560Y-116910000D01*
X82232440Y-116910000D01*
X82183157Y-116662235D01*
X82042809Y-116452191D01*
X81832765Y-116311843D01*
X81625500Y-116270616D01*
X81625500Y-114647500D01*
X81635042Y-114637958D01*
X81785000Y-114275929D01*
X81785000Y-113884071D01*
X81635042Y-113522042D01*
X81357958Y-113244958D01*
X80995929Y-113095000D01*
X80604071Y-113095000D01*
X80242042Y-113244958D01*
X79964958Y-113522042D01*
X79815000Y-113884071D01*
X79815000Y-114275929D01*
X79964958Y-114637958D01*
X79974500Y-114647500D01*
X79974501Y-116262560D01*
X79915000Y-116262560D01*
X79667235Y-116311843D01*
X79457191Y-116452191D01*
X79316843Y-116662235D01*
X79267560Y-116910000D01*
X60735000Y-116910000D01*
X60735000Y-109644071D01*
X94355000Y-109644071D01*
X94355000Y-110035929D01*
X94504958Y-110397958D01*
X94514500Y-110407500D01*
X94514501Y-114653146D01*
X94365000Y-115014071D01*
X94365000Y-115405929D01*
X94514958Y-115767958D01*
X94792042Y-116045042D01*
X95154071Y-116195000D01*
X95545929Y-116195000D01*
X95907958Y-116045042D01*
X96185042Y-115767958D01*
X96190432Y-115754945D01*
X96396870Y-115754945D01*
X96758899Y-115604987D01*
X97035983Y-115327903D01*
X97185941Y-114965874D01*
X97185941Y-114574016D01*
X97065500Y-114283247D01*
X97065500Y-110427500D01*
X97075042Y-110417958D01*
X97225000Y-110055929D01*
X97225000Y-109664071D01*
X97075042Y-109302042D01*
X96797958Y-109024958D01*
X96435929Y-108875000D01*
X96044071Y-108875000D01*
X95814142Y-108970240D01*
X95535929Y-108855000D01*
X95144071Y-108855000D01*
X94782042Y-109004958D01*
X94504958Y-109282042D01*
X94355000Y-109644071D01*
X60735000Y-109644071D01*
X60735000Y-106055431D01*
X61765000Y-106055431D01*
X61765000Y-106944569D01*
X62105259Y-107766026D01*
X62733974Y-108394741D01*
X63555431Y-108735000D01*
X64444569Y-108735000D01*
X65266026Y-108394741D01*
X65894741Y-107766026D01*
X66235000Y-106944569D01*
X66235000Y-106055431D01*
X65985954Y-105454180D01*
X71415000Y-105454180D01*
X71415000Y-105885820D01*
X71580182Y-106284603D01*
X71885397Y-106589818D01*
X72284180Y-106755000D01*
X72715820Y-106755000D01*
X73114603Y-106589818D01*
X73419818Y-106284603D01*
X73585000Y-105885820D01*
X73585000Y-105454180D01*
X74415000Y-105454180D01*
X74415000Y-105885820D01*
X74580182Y-106284603D01*
X74885397Y-106589818D01*
X75284180Y-106755000D01*
X75715820Y-106755000D01*
X76114603Y-106589818D01*
X76419818Y-106284603D01*
X76585000Y-105885820D01*
X76585000Y-105454180D01*
X76515234Y-105285750D01*
X77125000Y-105285750D01*
X77125000Y-105961310D01*
X77221673Y-106194699D01*
X77400302Y-106373327D01*
X77633691Y-106470000D01*
X78284250Y-106470000D01*
X78443000Y-106311250D01*
X78443000Y-105127000D01*
X77283750Y-105127000D01*
X77125000Y-105285750D01*
X76515234Y-105285750D01*
X76419818Y-105055397D01*
X76114603Y-104750182D01*
X75715820Y-104585000D01*
X75284180Y-104585000D01*
X74885397Y-104750182D01*
X74580182Y-105055397D01*
X74415000Y-105454180D01*
X73585000Y-105454180D01*
X73419818Y-105055397D01*
X73114603Y-104750182D01*
X72715820Y-104585000D01*
X72284180Y-104585000D01*
X71885397Y-104750182D01*
X71580182Y-105055397D01*
X71415000Y-105454180D01*
X65985954Y-105454180D01*
X65894741Y-105233974D01*
X65266026Y-104605259D01*
X64444569Y-104265000D01*
X63555431Y-104265000D01*
X62733974Y-104605259D01*
X62105259Y-105233974D01*
X61765000Y-106055431D01*
X60735000Y-106055431D01*
X60735000Y-105542702D01*
X60800594Y-104980082D01*
X60979191Y-104488056D01*
X61266192Y-104050308D01*
X61278456Y-104038690D01*
X77125000Y-104038690D01*
X77125000Y-104714250D01*
X77283750Y-104873000D01*
X78443000Y-104873000D01*
X78443000Y-103688750D01*
X78697000Y-103688750D01*
X78697000Y-104873000D01*
X78717000Y-104873000D01*
X78717000Y-105127000D01*
X78697000Y-105127000D01*
X78697000Y-106311250D01*
X78855750Y-106470000D01*
X79506309Y-106470000D01*
X79739698Y-106373327D01*
X79918327Y-106194699D01*
X80003302Y-105989552D01*
X80021843Y-106082765D01*
X80162191Y-106292809D01*
X80372235Y-106433157D01*
X80620000Y-106482440D01*
X82240000Y-106482440D01*
X82487765Y-106433157D01*
X82697809Y-106292809D01*
X82838157Y-106082765D01*
X82887440Y-105835000D01*
X82887440Y-105705500D01*
X83252500Y-105705500D01*
X83262042Y-105715042D01*
X83624071Y-105865000D01*
X84015929Y-105865000D01*
X84377958Y-105715042D01*
X84655042Y-105437958D01*
X84718088Y-105285750D01*
X137125000Y-105285750D01*
X137125000Y-105961310D01*
X137221673Y-106194699D01*
X137400302Y-106373327D01*
X137633691Y-106470000D01*
X138284250Y-106470000D01*
X138443000Y-106311250D01*
X138443000Y-105127000D01*
X137283750Y-105127000D01*
X137125000Y-105285750D01*
X84718088Y-105285750D01*
X84805000Y-105075929D01*
X84805000Y-104684071D01*
X84655042Y-104322042D01*
X84377958Y-104044958D01*
X84362826Y-104038690D01*
X137125000Y-104038690D01*
X137125000Y-104714250D01*
X137283750Y-104873000D01*
X138443000Y-104873000D01*
X138443000Y-103688750D01*
X138697000Y-103688750D01*
X138697000Y-104873000D01*
X138717000Y-104873000D01*
X138717000Y-105127000D01*
X138697000Y-105127000D01*
X138697000Y-106311250D01*
X138855750Y-106470000D01*
X139506309Y-106470000D01*
X139739698Y-106373327D01*
X139918327Y-106194699D01*
X140003302Y-105989552D01*
X140021843Y-106082765D01*
X140162191Y-106292809D01*
X140372235Y-106433157D01*
X140620000Y-106482440D01*
X140924793Y-106482440D01*
X140775000Y-106844071D01*
X140775000Y-107235929D01*
X140924958Y-107597958D01*
X141202042Y-107875042D01*
X141564071Y-108025000D01*
X141955929Y-108025000D01*
X142317958Y-107875042D01*
X142595042Y-107597958D01*
X142745000Y-107235929D01*
X142745000Y-106844071D01*
X142595042Y-106482042D01*
X142585500Y-106472500D01*
X142585500Y-106367852D01*
X142697809Y-106292809D01*
X142838157Y-106082765D01*
X142843594Y-106055431D01*
X153765000Y-106055431D01*
X153765000Y-106944569D01*
X154105259Y-107766026D01*
X154733974Y-108394741D01*
X155555431Y-108735000D01*
X156444569Y-108735000D01*
X157266026Y-108394741D01*
X157894741Y-107766026D01*
X158235000Y-106944569D01*
X158235000Y-106055431D01*
X157894741Y-105233974D01*
X157266026Y-104605259D01*
X156444569Y-104265000D01*
X155555431Y-104265000D01*
X154733974Y-104605259D01*
X154105259Y-105233974D01*
X153765000Y-106055431D01*
X142843594Y-106055431D01*
X142887440Y-105835000D01*
X142887440Y-104165000D01*
X142838157Y-103917235D01*
X142697809Y-103707191D01*
X142487765Y-103566843D01*
X142240000Y-103517560D01*
X140620000Y-103517560D01*
X140372235Y-103566843D01*
X140162191Y-103707191D01*
X140021843Y-103917235D01*
X140003302Y-104010448D01*
X139918327Y-103805301D01*
X139739698Y-103626673D01*
X139506309Y-103530000D01*
X138855750Y-103530000D01*
X138697000Y-103688750D01*
X138443000Y-103688750D01*
X138284250Y-103530000D01*
X137633691Y-103530000D01*
X137400302Y-103626673D01*
X137221673Y-103805301D01*
X137125000Y-104038690D01*
X84362826Y-104038690D01*
X84015929Y-103895000D01*
X83624071Y-103895000D01*
X83262042Y-104044958D01*
X83252500Y-104054500D01*
X82865460Y-104054500D01*
X82838157Y-103917235D01*
X82697809Y-103707191D01*
X82487765Y-103566843D01*
X82240000Y-103517560D01*
X80620000Y-103517560D01*
X80372235Y-103566843D01*
X80162191Y-103707191D01*
X80021843Y-103917235D01*
X80003302Y-104010448D01*
X79918327Y-103805301D01*
X79739698Y-103626673D01*
X79506309Y-103530000D01*
X78855750Y-103530000D01*
X78697000Y-103688750D01*
X78443000Y-103688750D01*
X78284250Y-103530000D01*
X77633691Y-103530000D01*
X77400302Y-103626673D01*
X77221673Y-103805301D01*
X77125000Y-104038690D01*
X61278456Y-104038690D01*
X61646190Y-103690332D01*
X62098821Y-103427424D01*
X62609416Y-103272780D01*
X63032732Y-103235000D01*
X156957298Y-103235000D01*
X157519918Y-103300594D01*
M02*
